<?xml version="1.0" standalone="no"?>
<!DOCTYPE svg PUBLIC "-//W3C//DTD SVG 1.1//EN" "http://www.w3.org/Graphics/SVG/1.1/DTD/svg11.dtd" >
<svg>
<metadata>
Created by FontForge 20090914 at Fri Mar 25 03:29:20 2016
 By www-data
Copyright (c) 1990 VNI All Rights Reserved.
</metadata>
<defs>
<font id="VNI-Swiss-Condense" horiz-adv-x="40" >
  <font-face 
    font-family="VNI-Swiss-Condense"
    font-weight="400"
    font-stretch="normal"
    units-per-em="1000"
    panose-1="0 0 0 0 0 0 0 0 0 0"
    ascent="800"
    descent="-200"
    x-height="592"
    cap-height="740"
    bbox="-364 -238 1000 1100"
    underline-thickness="102"
    underline-position="-87"
    unicode-range="U+0020-U+2122"
  />
<missing-glyph horiz-adv-x="762" 
d="M47 0v762h668v-762h-668zM668 47v668h-574v-668h574z" />
    <glyph glyph-name=".notdef" horiz-adv-x="762" 
d="M47 0v762h668v-762h-668zM668 47v668h-574v-668h574z" />
    <glyph glyph-name="space" unicode=" " horiz-adv-x="227" 
 />
    <glyph glyph-name="exclam" unicode="!" horiz-adv-x="290" 
d="M74 190v550h134v-550h-134zM74 2v152h134v-152h-134z" />
    <glyph glyph-name="quotedbl" unicode="&#x22;" horiz-adv-x="362" 
d="M48 720h96v-278h-96v278zM210 720h98v-278h-98v278z" />
    <glyph glyph-name="numbersign" unicode="#" horiz-adv-x="836" 
d="M380 734h110l-72 -208h122l72 208h112l-74 -208h140l-36 -100h-140l-42 -120h146l-36 -102h-146l-74 -206h-110l74 206h-122l-76 -206h-108l72 206h-144l38 102h142l42 120h-148l36 100h148zM380 426l-44 -122h126l44 122h-126z" />
    <glyph glyph-name="dollar" unicode="$" horiz-adv-x="454" 
d="M252 472v120c-1.33301 16.667 -2.66602 26.334 -3.99902 29.001c-4 10 -11.333 15 -22 15c-12 0 -20.333 -5.66699 -25 -17s-7 -24.333 -7 -39c0 -4.66699 0.666992 -11.667 2 -21s2 -15.666 2 -18.999c2 -16.667 8.33301 -32.334 19 -47.001
c9.33301 -10.667 16.333 -19 21 -25l86 -90c30 -32 50.167 -60.5 60.5 -85.5s15.5 -55.167 15.5 -90.5l-2 -64c0 -42 -14.667 -74.667 -44 -98c-24.667 -20 -60 -32.667 -106 -38v-110h-50v110c-60.667 8 -102 29 -124 63c-17.333 26.667 -26 67.667 -26 123l2 94h146v-142
c0 -15.333 2.16699 -26.5 6.5 -33.5s10.166 -10.5 17.499 -10.5c4 0 8 1 12 3c9.33301 4.66699 15 13 17 25s3 24 3 36l-2 46c0 21.333 -5.66699 39.666 -17 54.999c-4.66699 6.66699 -13 16.334 -25 29.001l-84 90c-29.333 30.667 -49.333 57.167 -60 79.5
s-16 49.833 -16 82.5c0 4 0.666992 12 2 24s2 22 2 30c0 44 13.667 77.667 41 101c23.333 19.333 58.333 33 105 41v84h50v-84c60 -6.66699 101 -26 123 -58c16.667 -24.667 25 -63.334 25 -116.001v-92h-144z" />
    <glyph glyph-name="percent" unicode="%" horiz-adv-x="616" 
d="M474 88v202.001c0 22.667 -6.66699 34 -20 34s-20 -11.333 -20 -34v-202c0 -24 6.66699 -36 20 -36c5.33301 0 10 3.16699 14 9.5s6 15.166 6 26.499zM346 266.001c0 41.333 7.33398 72 22.001 92c17.333 24 46 36 86 36c41.333 0 70.333 -12 87 -36
c14 -20 21 -50.667 21 -92v-152c0 -41.333 -7 -72 -21 -92c-17.333 -24 -46.333 -36 -87 -36s-68.834 10.667 -84.501 32s-23.5 53.333 -23.5 96v152zM48.001 626.001c0 41.333 7.33203 72 21.999 92c18 24 47.333 36 88 36s69.334 -11.667 86.001 -35
c14.667 -20 22 -51 22 -93v-152c0 -42 -7 -72.667 -21 -92c-17.333 -24 -46.333 -36 -87 -36s-69.167 11 -85.5 33s-24.5 53.667 -24.5 95v152zM178 450.001v202.001c0 22.667 -7.33301 34 -22 34c-13.333 0 -20 -11.333 -20 -34v-202c0 -24 6.66699 -36 20 -36
c6 0 11.167 3.16699 15.5 9.5s6.5 15.166 6.5 26.499zM412 756.002h58l-270 -770h-60z" />
    <glyph glyph-name="ampersand" unicode="&#x26;" horiz-adv-x="524" 
d="M48 174l0.000976562 139.996c0 29.333 5 53 15 71s27.667 35 53 51c-18 28.667 -30.5 53 -37.5 73s-10.5 41.667 -10.5 65c0 4.66699 0.666992 14.334 2 29.001s2 26.334 2 35.001c4.66699 39.333 21.167 68.5 49.5 87.5s62.5 28.5 102.5 28.5h20.5
c7 0 14.167 -0.666992 21.5 -2c50 -7.33301 82.667 -27 98 -59c10.667 -22 16 -61 16 -117v-8c0 -39.333 -10.333 -71 -31 -95c-14 -16 -42.333 -37 -85 -63c23.333 -38 43.333 -74.667 60 -110c-1.33301 9.33301 -2.33301 18 -3 26s-1 17.333 -1 28l2 54h118v-220
c0 -10 -1.16699 -19.5 -3.5 -28.5s-5.83301 -19.5 -10.5 -31.5c4 -3.33301 8.83301 -6.5 14.5 -9.5s12.167 -4.5 19.5 -4.5l12 2v-114l-50 -2c-12.667 0 -23.5 1.83301 -32.5 5.5s-18.167 11.167 -27.5 22.5c-14 -10.667 -27.833 -19.167 -41.5 -25.5
s-26.334 -10.166 -38.001 -11.499s-21 -2.16602 -28 -2.49902s-15.167 -0.5 -24.5 -0.5c-16.667 0 -29 0.333008 -37 1c-10 2 -17 3 -21 3c-45.333 9.33301 -78 31 -98 65c-17.333 29.333 -26 68.333 -26 117zM188.001 313.996v-144c0 -22 5 -39.5 15 -52.5
s23 -19.5 39 -19.5c18 0 36 8 54 24zM218.001 489.996c12 7.33301 20.334 14.498 25.001 21.498s7 17.167 7 30.5v16l2 46c0 12.667 -1.16699 23.334 -3.5 32.001s-6.5 14 -12.5 16h-10c-16 0 -24 -10 -24 -30l-2 -60c0 -15.333 1.16699 -28.666 3.5 -39.999
s7.16602 -22 14.499 -32z" />
    <glyph glyph-name="quotesingle" unicode="'" horiz-adv-x="246" 
d="M48 478l34 262h122l-68 -262h-88z" />
    <glyph glyph-name="parenleft" unicode="(" horiz-adv-x="338" 
d="M286 740c-36 -68.667 -63.667 -139.334 -83 -212.001s-29 -144.667 -29 -216c0 -143.333 37.333 -283.333 112 -420h-116c-41.333 77.333 -72.333 150.333 -93 219s-31 136.334 -31 203.001s10.5 135.167 31.5 205.5s52.5 143.833 94.5 220.5h114z" />
    <glyph glyph-name="parenright" unicode=")" horiz-adv-x="338" 
d="M48 -108c36.667 66.667 64.167 135.168 82.5 205.501s27.5 142.5 27.5 216.5c0 72.667 -9.16699 145.167 -27.5 217.5s-45.833 141.833 -82.5 208.5h116c41.333 -76.667 72 -149.667 92 -219s30 -138.333 30 -207c0 -132.667 -40.667 -273.334 -122 -422.001h-116z" />
    <glyph glyph-name="asterisk" unicode="*" horiz-adv-x="430" 
d="M82 466l66 88l-100 30l26 82l98 -32v106h84v-106l96 32l28 -82l-100 -32l60 -82l-66 -52l-64 86l-58 -86z" />
    <glyph glyph-name="plus" unicode="+" horiz-adv-x="708" 
d="M298 612h102v-254h248v-100h-248v-256h-102v256h-250v100h250v254z" />
    <glyph glyph-name="comma" unicode="," horiz-adv-x="258" 
d="M28 -130l40 282h136l-86 -282h-90z" />
    <glyph glyph-name="hyphen" unicode="-" horiz-adv-x="186" 
d="M0 246v102h182v-102h-182z" />
    <glyph glyph-name="period" unicode="." horiz-adv-x="234" 
d="M48 2v150h134v-150h-134z" />
    <glyph glyph-name="slash" unicode="/" horiz-adv-x="336" 
d="M126 -92h-76l162 848h76z" />
    <glyph glyph-name="zero" unicode="0" horiz-adv-x="418" 
d="M182 614l-0.000976562 -479.999c0 -12 2.33301 -21.667 7 -29s10.334 -11 17.001 -11c6 0 12.167 4 18.5 12s9.5 17.333 9.5 28v480c0 24 -8.66699 36 -26 36c-6 0 -11.833 -3.33301 -17.5 -10s-8.5 -15.334 -8.5 -26.001zM35.999 566.001c0 64.667 12 111.667 36 141
c26.667 32.667 72 49 136 49c64.667 0 110.334 -16.333 137.001 -49c23.333 -28.667 35 -75.667 35 -141v-390c0 -65.333 -11.667 -112.333 -35 -141c-26.667 -32.667 -72.334 -49 -137.001 -49c-65.333 0 -111 16 -137 48c-23.333 28.667 -35 76 -35 142v390z" />
    <glyph glyph-name="one" unicode="1" horiz-adv-x="314" 
d="M118 2v564h-82v90c60.667 0 98 28 112 84h116v-738h-146z" />
    <glyph glyph-name="two" unicode="2" horiz-adv-x="418" 
d="M230 614c0 24 -8.66699 36.001 -26 36.001c-16 0 -24 -12 -24 -36v-134h-144l-2 74c0 54 6.66699 95.333 20 124c18.667 40 52 64 100 72l60 4c51.333 0 91.833 -13.833 121.5 -41.5s44.5 -69.834 44.5 -126.501c0 -55.333 -17.333 -113.666 -52 -174.999l-98 -152
c-36 -58.667 -54 -108.334 -54 -149.001l2 -2h202v-106h-346v122c0 44 12.667 90.667 38 140c10.667 20 36.667 61.333 78 124c36 55.333 54.667 84.333 56 87c16 28.667 24 75 24 139z" />
    <glyph glyph-name="three" unicode="3" horiz-adv-x="418" 
d="M36 292l146.001 0.00195312v-158c0 -12 2.66699 -21.667 8 -29s11.333 -11 18 -11c4.66699 0 9 2 13 6c8.66699 8 13 19.333 13 34v138c0 23.333 -6.83301 38.833 -20.5 46.5s-32.167 11.5 -55.5 11.5h-22v106l34 -2c20.667 0 35.667 3.33301 45 10
c12.667 9.33301 19 26 19 50v120c0 24 -8.66699 36 -26 36c-6 0 -11.833 -3.33301 -17.5 -10s-8.5 -15.334 -8.5 -26.001v-136h-146l-2 82c0 48 5 84.667 15 110c8 20.667 19.833 37 35.5 49s34.5 21.167 56.5 27.5s45 9.5 69 9.5c29.333 0 56.833 -4.5 82.5 -13.5
s45.5 -22.5 59.5 -40.5c9.33301 -12 16.333 -25.667 21 -41s7 -30.333 7 -45l2 -72l-2 -50c-4 -28.667 -16.333 -52.334 -37 -71.001c-18 -16 -42.333 -29 -73 -39c38 -6.66699 65.833 -18.5 83.5 -35.5s26.5 -44.5 26.5 -82.5v-130c0 -50 -16.333 -88 -49 -114
c-30 -24 -71 -36 -123 -36c-64.667 0 -110.334 16.333 -137.001 49c-23.333 28.667 -35 75.667 -35 141v116z" />
    <glyph glyph-name="four" unicode="4" horiz-adv-x="442" 
d="M148 290h85.999l2 220c0 25.333 1 50.833 3 76.5s3.66699 46.167 5 61.5h-8c-11.333 -58.667 -24.666 -118.667 -39.999 -180c-12.667 -52.667 -28.667 -112 -48 -178zM229.999 2v182h-194v106l140 450h200v-450h46v-106h-46v-182h-146z" />
    <glyph glyph-name="five" unicode="5" horiz-adv-x="418" 
d="M380 394l0.000976562 -258c0 -50 -16.333 -88 -49 -114c-30 -24 -71 -36 -123 -36c-64.667 0 -110.334 16.333 -137.001 49c-23.333 28.667 -35 75.667 -35 141v114h146v-156c0 -12 2.66699 -21.333 8 -28s11.333 -10 18 -10c6 0 11.833 3.66699 17.5 11
s8.5 16.333 8.5 27v232c0 9.33301 -2.66699 17 -8 23s-11.333 9 -18 9s-12.667 -2.66699 -18 -8s-8 -12.666 -8 -21.999h-146v372h340v-102h-200v-150c13.333 11.333 28 20.166 44 26.499s32 9.5 48 9.5c11.333 0 20 -0.5 26 -1.5s13.333 -3.16699 22 -6.5
c24 -10 40.667 -25.667 50 -47s14 -46.333 14 -75z" />
    <glyph glyph-name="six" unicode="6" horiz-adv-x="418" 
d="M380 176c0 -65.333 -11.668 -112.332 -35.001 -140.999c-26.667 -32.667 -72.334 -49 -137.001 -49c-65.333 0 -111 16 -137 48c-23.333 28.667 -35 76 -35 142v390c0 33.333 1.66699 58.333 5 75c6 28.667 16.833 51 32.5 67s34.334 27.667 56.001 35
s45.834 11 72.501 11l60 -4c35.333 -6 63.833 -21.167 85.5 -45.5s32.5 -54.5 32.5 -90.5v-136h-146v136c0 24 -8.66699 36 -26 36c-6 0 -11.833 -3.33301 -17.5 -10s-8.5 -15.334 -8.5 -26.001v-198c29.333 18.667 58 28 86 28c31.333 0 57.833 -11.5 79.5 -34.5
s32.5 -54.167 32.5 -93.5v-140zM181.999 280.001l-0.000976562 -145.999c0 -12 2.33301 -21.667 7 -29s10.334 -11 17.001 -11c6 0 12.167 4 18.5 12s9.5 17.333 9.5 28v146c0 24 -8.66699 36 -26 36c-6 0 -11.833 -3.33301 -17.5 -10s-8.5 -15.334 -8.5 -26.001z" />
    <glyph glyph-name="seven" unicode="7" horiz-adv-x="430" 
d="M66 2l188 634h-218v104h368v-98l-184 -640h-154z" />
    <glyph glyph-name="eight" unicode="8" horiz-adv-x="418" 
d="M380 162c0 -43.333 -6.33691 -77.667 -19.0039 -103c-16 -31.333 -42.333 -52.333 -79 -63c-24.667 -6.66699 -50 -10 -76 -10c-36 0 -67.333 6.33301 -94 19c-31.333 14.667 -52.666 37 -63.999 67c-4 12 -7.33301 31.333 -10 58s-4 54 -4 82
c0 17.333 0.5 32.5 1.5 45.5s2.5 29.167 4.5 48.5c4 21.333 14.333 39.333 31 54c14 12 33 22 57 30c-41.333 16.667 -68 38.334 -80 65.001c-8 18 -12 53.667 -12 107l-2 18c0 20 1.5 38.833 4.5 56.5s8.83301 34.167 17.5 49.5c14.667 24.667 35.5 42.5 62.5 53.5
s56.833 16.5 89.5 16.5c34.667 0 64.834 -5.16699 90.501 -15.5s46.834 -28.5 63.501 -54.5c4.66699 -8 8.83398 -19.5 12.501 -34.5s5.5 -34.167 5.5 -57.5v-32c0 -52.667 -4 -88.667 -12 -108c-12 -28.667 -38.667 -50 -80 -64c25.333 -8 43.5 -16.333 54.5 -25
s19.167 -18.834 24.5 -30.501s8.83301 -25 10.5 -40s2.5 -33.833 2.5 -56.5v-76zM181.996 291.999v-159.999c0 -12.667 2.5 -22.5 7.5 -29.5s11.167 -10.5 18.5 -10.5c6 0 11.833 3.66699 17.5 11s8.5 17 8.5 29v160c0 24 -8.66699 36 -26 36
c-6 0 -11.833 -3.33301 -17.5 -10s-8.5 -15.334 -8.5 -26.001zM233.996 484v126.001c0 24 -8.66699 36 -26 36c-6 0 -11.833 -3.33301 -17.5 -10s-8.5 -15.334 -8.5 -26.001v-126c0 -12 2.66699 -21.333 8 -28s11.333 -10 18 -10c6 0 11.833 3.66699 17.5 11
s8.5 16.333 8.5 27z" />
    <glyph glyph-name="nine" unicode="9" horiz-adv-x="418" 
d="M182 134c0 -12 2.66504 -21.667 7.99805 -29s11.333 -11 18 -11c4.66699 0 9 2 13 6c8.66699 8 13 19.333 13 34v154c-26.667 -18.667 -54.667 -28 -84 -28c-32 0 -59 11.667 -81 35s-33 55 -33 95v176c0 64.667 11.667 111.667 35 141c26 32.667 71.667 49 137 49
c64.667 0 110.334 -16.333 137.001 -49c23.333 -28.667 35 -75.667 35 -141v-390c0 -64.667 -11.667 -111.667 -35 -141c-26 -32.667 -71.667 -49 -137 -49c-36 0 -67 5.66699 -93 17c-31.333 14 -53.666 35.667 -66.999 65c-4.66699 10.667 -8.16699 23 -10.5 37
s-3.5 29.667 -3.5 47l2 72h146v-90zM233.998 422v185.999c0 24 -8.66699 36 -26 36c-16 0 -24 -12 -24 -36v-186c0 -24 8 -36 24 -36c6 0 11.833 3.33301 17.5 10s8.5 15.334 8.5 26.001z" />
    <glyph glyph-name="colon" unicode=":" horiz-adv-x="234" 
d="M48 2v150h136v-150h-136zM48 442v150h136v-150h-136z" />
    <glyph glyph-name="semicolon" unicode=";" horiz-adv-x="246" 
d="M60 442v150h136v-150h-136zM28 -130l40 280h136l-86 -280h-90z" />
    <glyph glyph-name="less" unicode="&#x3c;" horiz-adv-x="684" 
d="M636 598v-108l-446 -182l446 -184v-108l-588 242v100z" />
    <glyph glyph-name="equal" unicode="=" horiz-adv-x="708" 
d="M48 464h600v-98h-600v98zM48 250h600v-100h-600v100z" />
    <glyph glyph-name="greater" unicode="&#x3e;" horiz-adv-x="684" 
d="M48 598l588 -240v-100l-588 -242v108l448 184l-448 182v108z" />
    <glyph glyph-name="question" unicode="?" horiz-adv-x="512" 
d="M188 188l-0.00390625 154.004c0 28 6.66699 53.333 20 76l45 61.5c10.667 15 17.834 28.833 21.501 41.5s5.5 26.334 5.5 41.001v52c0 11.333 -1.66699 21.166 -5 29.499s-9.66602 12.5 -18.999 12.5s-15.666 -3.33301 -18.999 -10s-5 -15.334 -5 -26.001v-144h-134v132
c0 43.333 11.833 77.166 35.5 101.499s57.834 39.166 102.501 44.499h24c37.333 0 69.666 -7.66699 96.999 -23c32.667 -18 52.334 -44.333 59.001 -79c2.66699 -21.333 4 -46 4 -74c0 -22.667 -1 -42.834 -3 -60.501s-5.5 -32.167 -10.5 -43.5s-22.167 -36.333 -51.5 -75
c-22 -29.333 -33 -55 -33 -77v-134h-134zM187.996 2.00391v152h134v-152h-134z" />
    <glyph glyph-name="at" unicode="@" horiz-adv-x="995" 
d="M581 337c-2.66699 24.667 -11.835 44.168 -27.502 58.501s-33.5 21.5 -53.5 21.5c-28 0 -54 -13 -78 -39c-28 -30 -46.667 -71.333 -56 -124l-4 -39c0 -28.667 7.33301 -51.334 22 -68.001s32.334 -25 53.001 -25c24 0 47.833 10.167 71.5 30.5s39.834 47.5 48.501 81.5z
M558.999 132.001c-19.333 -26 -40.8291 -45.6689 -64.4961 -59.002s-51.5 -20 -83.5 -20c-48.667 0 -86.334 14.667 -113.001 44s-40 69.333 -40 120l2 11c0 76.667 24.333 140.334 73 191.001c44 46 94.333 69 151 69c23.333 0 45.833 -5.5 67.5 -16.5
s39.167 -27.167 52.5 -48.5l28 49h85l-71 -289l-4 -20c0 -10.667 3.16699 -18.834 9.5 -24.501s14.833 -8.5 25.5 -8.5c13.333 0 28.833 4 46.5 12s31.834 16.333 42.501 25c26 24.667 46.167 54.334 60.5 89.001s21.5 70.667 21.5 108c0 21.333 -1.66699 41.333 -5 60
s-9.33301 36.667 -18 54c-24.667 50 -62.834 88.5 -114.501 115.5s-107.5 40.5 -167.5 40.5h-8c-78 0 -149.5 -17.5 -214.5 -52.5s-114.833 -86.5 -149.5 -154.5c-28.667 -54 -43 -112.333 -43 -175c0 -46 8.66699 -89.667 26 -131s42.833 -76.166 76.5 -104.499
s73 -49.666 118 -63.999s90.833 -21.5 137.5 -21.5c51.333 0 103.666 8 156.999 24s100.666 37.667 141.999 65l38 -53c-38 -28.667 -78.333 -52.167 -121 -70.5s-86.334 -30.5 -131.001 -36.5c-8.66699 0 -24.167 -0.666992 -46.5 -2s-34.5 -2 -36.5 -2
c-64 0 -123.333 9.33301 -178 28c-60 20.667 -111.333 51.334 -154 92.001c-37.333 35.333 -66.166 77 -86.499 125s-30.5 97 -30.5 147c0 120 43 225.333 129 316c94 99.333 213.333 149 358 149c29.333 0 58.666 -2 87.999 -6c92 -13.333 167.667 -48.333 227 -105
c64 -60.667 96 -135.334 96 -224.001v-14c0 -54.667 -11.833 -105.834 -35.5 -153.501s-57.834 -86.5 -102.501 -116.5c-19.333 -12 -41.166 -22.167 -65.499 -30.5s-47.833 -12.5 -70.5 -12.5c-18.667 0 -36.667 3.16699 -54 9.5s-29.5 14.833 -36.5 25.5
s-11.5 26 -13.5 46z" />
    <glyph glyph-name="A" unicode="A" horiz-adv-x="476" 
d="M206 308l72 -0.00195312l-24 224c0 12.667 -1 25.334 -3 38.001c-6 38 -9 59.333 -9 64h-6c0 -15.333 -0.333008 -27.666 -1 -36.999s-3 -30.333 -7 -63zM28 1.99805l126 738h174l126 -738h-144l-20 196h-98l-22 -196h-142z" />
    <glyph glyph-name="B" unicode="B" horiz-adv-x="418" 
d="M36 2l-0.00195312 738.001h172c42.667 0 76.334 -5.33301 101.001 -16c20.667 -8.66699 37 -21.334 49 -38.001c8 -12 13.333 -24.833 16 -38.5s4 -30.167 4 -49.5v-28c0 -59.333 -5 -98 -15 -116c-14 -25.333 -47 -44 -99 -56v-4c38.667 -5.33301 67.334 -17 86.001 -35
s28 -45.667 28 -83v-114c0 -60 -15 -102.333 -45 -127c-27.333 -22 -72.333 -33 -135 -33h-162zM231.998 486.001l-0.000976562 118.001c0 17.333 -3.66699 28.666 -11 33.999s-19.666 8 -36.999 8v-202c18.667 0 30.667 2 36 6c8 6 12 18 12 36zM231.997 148.002
l-0.000976562 153.999c0 15.333 -4 25.833 -12 31.5s-20 8.5 -36 8.5v-236c14.667 0 26.334 3.33301 35.001 10s13 17.334 13 32.001z" />
    <glyph glyph-name="C" unicode="C" horiz-adv-x="418" 
d="M36 566c0 32.667 1.66406 57.334 4.99707 74.001c6 28 16.833 50.333 32.5 67s34.334 28.667 56.001 36s45.834 11 72.501 11h18.5c5 0 18.833 -1.33301 41.5 -4c48 -8 81 -32 99 -72c12.667 -28 19 -70 19 -126v-68h-146v130c0 24 -8.66699 36 -26 36
c-6 0 -11.833 -3.33301 -17.5 -10s-8.5 -15.334 -8.5 -26.001v-480c0 -12.667 2.33301 -22.5 7 -29.5s10.334 -10.5 17.001 -10.5s13 3.66699 19 11s9 17 9 29v148h146v-106c0 -64.667 -11.667 -111.667 -35 -141c-26 -32.667 -71.667 -49 -137 -49s-111 16 -137 48
c-23.333 28.667 -35 76 -35 142v390z" />
    <glyph glyph-name="D" unicode="D" horiz-adv-x="418" 
d="M36 2v738h172c64 0 108.667 -14.333 134 -43s38 -75 38 -139v-374c0 -65.333 -13.667 -112 -41 -140s-74.333 -42 -141 -42h-162zM182 640v-534c16.667 0 29.167 3 37.5 9s12.5 17 12.5 33v448c0 18.667 -3.66699 30.667 -11 36s-20.333 8 -39 8z" />
    <glyph glyph-name="E" unicode="E" horiz-adv-x="454" 
d="M36 2v738h374v-104h-226v-170h222v-106h-222v-246h226v-112h-374z" />
    <glyph glyph-name="F" unicode="F" horiz-adv-x="350" 
d="M36 2v738h274v-104h-126v-170h122v-106h-122v-358h-148z" />
    <glyph glyph-name="G" unicode="G" horiz-adv-x="418" 
d="M36 566c0 65.333 11.6641 112.333 34.9971 141c26.667 32.667 72.334 49 137.001 49c57.333 0 100.333 -13.167 129 -39.5s43 -67.166 43 -122.499v-110h-146v130c0 24 -8.66699 36 -26 36c-6 0 -11.833 -3.33301 -17.5 -10s-8.5 -15.334 -8.5 -26.001v-480
c0 -12 2.33301 -21.667 7 -29s10.334 -11 17.001 -11c6 0 12.167 4 18.5 12s9.5 17.333 9.5 28v130h-38v112h184v-374h-74l-8 46c-16 -19.333 -34.833 -34.833 -56.5 -46.5s-44.167 -17.5 -67.5 -17.5c-14 0 -28 2 -42 6c-37.333 11.333 -63.666 36.333 -78.999 75
c-11.333 28.667 -17 65.667 -17 111v390z" />
    <glyph glyph-name="H" unicode="H" horiz-adv-x="418" 
d="M36 2v738h146v-274h46v274h148v-738h-148v356h-46v-356h-146z" />
    <glyph glyph-name="I" unicode="I" horiz-adv-x="222" 
d="M36 2v738h148v-738h-148z" />
    <glyph glyph-name="J" unicode="J" horiz-adv-x="418" 
d="M234 740h146v-564c0 -65.333 -11.667 -112.333 -35 -141c-26.667 -32.667 -72.334 -49 -137.001 -49c-64 0 -109.333 16.333 -136 49c-24 29.333 -36 76.333 -36 141v106h146v-148c0 -12.667 2.33301 -22.5 7 -29.5s10.334 -10.5 17.001 -10.5s13 3.66699 19 11
s9 17 9 29v606z" />
    <glyph glyph-name="K" unicode="K" horiz-adv-x="442" 
d="M36 2v738h148v-326l74 326h142l-92 -306l92 -432h-146l-68 380l-2 -380h-148z" />
    <glyph glyph-name="L" unicode="L" horiz-adv-x="350" 
d="M36 2v738h148v-626h126v-112h-274z" />
    <glyph glyph-name="M" unicode="M" horiz-adv-x="626" 
d="M36 2l0.000976562 738.004h210l48 -386c3.33301 -22 6.16602 -44.833 8.49902 -68.5s3.5 -44.834 3.5 -63.501h6c0 22.667 1.66699 46 5 70s7 48 11 72l58 376h202v-738h-134v390l2 160h-4c0 -20.667 -1.16699 -41.334 -3.5 -62.001s-5.83301 -43.334 -10.5 -68.001
l-72 -420h-124l-70 400c-4.66699 28 -8.16699 54.167 -10.5 78.5s-3.5 48.166 -3.5 71.499h-4v-550h-118z" />
    <glyph glyph-name="N" unicode="N" horiz-adv-x="454" 
d="M36 2l0.000976562 738.002h202l52 -314c5.33301 -32.667 10 -68.334 14 -107.001s6 -73.667 6 -105h8c0 24.667 -1.33301 61.667 -4 111s-4 85.666 -4 108.999l-2 306h116v-738h-172l-76 400c-4.66699 22 -8.83398 47.833 -12.501 77.5s-7.5 62.5 -11.5 98.5h-4
c0 -15.333 1 -38.333 3 -69s3 -53.667 3 -69v-438h-118z" />
    <glyph glyph-name="O" unicode="O" horiz-adv-x="454" 
d="M192 614l-0.000976562 -480c0 -12 2.66699 -21.667 8 -29s11.333 -11 18 -11s13.334 4 20.001 12s10 17.333 10 28v480c0 12 -2.66699 21 -8 27s-12 9 -20 9c-18.667 0 -28 -12 -28 -36zM35.999 566c0 64.667 12.668 111.667 38.001 141c28 32.667 76.667 49 146 49
c70 0 119 -16.333 147 -49c24.667 -28.667 37 -75.667 37 -141v-390c0 -65.333 -12.333 -112.333 -37 -141c-28 -32.667 -77 -49 -147 -49c-68.667 0 -117.334 16.333 -146.001 49c-25.333 29.333 -38 76.333 -38 141v390z" />
    <glyph glyph-name="P" unicode="P" horiz-adv-x="406" 
d="M36 2l0.000976562 738.001h172c52.667 0 92.667 -9 120 -27c33.333 -22 50 -57.667 50 -107v-158c0 -60.667 -16.667 -103.334 -50 -128.001c-28.667 -21.333 -73.334 -32 -134.001 -32l-10 2v-288h-148zM232.001 434.001l-0.000976562 170.001
c0 17.333 -3.66699 28.666 -11 33.999s-19.666 8 -36.999 8v-254c18.667 0 30.667 2 36 6c8 6 12 18 12 36z" />
    <glyph glyph-name="Q" unicode="Q" horiz-adv-x="418" 
d="M36 566c0 65.333 11.665 112.333 34.998 141c26.667 32.667 72.334 49 137.001 49s110.334 -16.333 137.001 -49c23.333 -28.667 35 -75.667 35 -141v-390c0 -44 -4.66699 -78 -14 -102c-12.667 -32.667 -36 -56.667 -70 -72c0 -8.66699 3.16699 -14.5 9.5 -17.5
s15.833 -4.5 28.5 -4.5h42v-108h-56c-38 0 -62.667 6 -74 18c-13.333 14 -20 46 -20 96h-20c-61.333 0 -105 15.333 -131 46s-39 78.667 -39 144v390zM181.998 614l-0.000976562 -479.999c0 -12.667 2.33301 -22.5 7 -29.5s10.334 -10.5 17.001 -10.5s13 3.66699 19 11
s9 17 9 29v480c0 24 -8.66699 36 -26 36c-6 0 -11.833 -3.33301 -17.5 -10s-8.5 -15.334 -8.5 -26.001z" />
    <glyph glyph-name="R" unicode="R" horiz-adv-x="430" 
d="M36 2l0.000976562 738.001h172c52.667 0 92.667 -9 120 -27c33.333 -22 50 -57.667 50 -107v-54c0 -46.667 -6 -80.334 -18 -101.001c-17.333 -30 -49.333 -45 -96 -45v-4c42 -4 71.5 -15.167 88.5 -33.5s25.5 -48.5 25.5 -90.5v-154c0 -28 0.833008 -50.333 2.5 -67
s5.5 -35 11.5 -55h-146c-5.33301 16 -9 34.667 -11 56s-3 42 -3 62v162c0 18.667 -3.83301 33.667 -11.5 45s-19.834 17 -36.501 17v-342h-148zM232.001 486.001l-0.000976562 117.999c0 16.667 -3.66699 27.834 -11 33.501s-19.666 8.5 -36.999 8.5v-202c16 0 28 3 36 9
s12 17 12 33z" />
    <glyph glyph-name="S" unicode="S" horiz-adv-x="418" 
d="M36 608c0 48.667 17.333 85.999 52 111.999c30.667 22.667 70 34 118 34c9.33301 0 16.833 -0.166992 22.5 -0.5s16.834 -1.5 33.501 -3.5c36.667 -6 65.5 -22.5 86.5 -49.5s31.5 -59.167 31.5 -96.5v-120h-148v130c0 12.667 -2.5 21.834 -7.5 27.501
s-11.167 8.5 -18.5 8.5c-10 0 -16 -3.33301 -18 -10c-5.33301 -13.333 -8 -27.333 -8 -42l2 -32c0 -15.333 1.16699 -28.166 3.5 -38.499s7.83301 -20.833 16.5 -31.5l140 -156c16.667 -18.667 27.667 -40.667 33 -66c3.33301 -16 5 -41.333 5 -76v-46
c0 -28.667 -2.33301 -51.334 -7 -68.001c-6.66699 -24 -17.834 -42.833 -33.501 -56.5s-35.5 -24 -59.5 -31s-48 -10.5 -72 -10.5c-32 0 -62 5.33301 -90 16c-28.667 12 -49.5 30.5 -62.5 55.5s-19.5 53.833 -19.5 86.5v138h146v-148c0 -12.667 2.5 -22.5 7.5 -29.5
s11.167 -10.5 18.5 -10.5c4.66699 0 9.66699 2.16699 15 6.5s8.33301 8.5 9 12.5s1 12.5 1 25.5s0.333008 23.5 1 31.5v23v18c-1.33301 6.66699 -2 11 -2 13c-3.33301 16 -11.333 31.333 -24 46l-134 150c-14.667 18 -25 37.5 -31 58.5s-9 44.167 -9 69.5z" />
    <glyph glyph-name="T" unicode="T" horiz-adv-x="408" 
d="M130 2v632h-94v106h336v-106h-96v-632h-146z" />
    <glyph glyph-name="U" unicode="U" horiz-adv-x="454" 
d="M412 740v-563.999c0 -64 -13.333 -111 -40 -141c-29.333 -32.667 -78.666 -49 -147.999 -49c-70.667 0 -120.334 16 -149.001 48c-26 29.333 -39 76.666 -39 141.999v564h158v-606c0 -12.667 2.83301 -22.5 8.5 -29.5s12.167 -10.5 19.5 -10.5
c6.66699 0 13 3.66699 19 11s9 17 9 29v606h162z" />
    <glyph glyph-name="V" unicode="V" horiz-adv-x="454" 
d="M118 2l-82 737.999h130l40 -432c0 -13.333 1.33301 -31.666 4 -54.999c6.66699 -58 10 -91 10 -99l6 -2c0 26 1.33301 52 4 78c4.66699 34.667 8 60.667 10 78l42 432h132l-102 -738h-194z" />
    <glyph glyph-name="W" unicode="W" horiz-adv-x="662" 
d="M108 2l-72 737.999h140l18 -282c0 -23.333 2.66699 -58.333 8 -105s8 -81.667 8 -105h4c0 24.667 3 57.834 9 99.501l17 116.5l28 276h144l30 -270l24 -222h4c0 36 1.83301 75.167 5.5 117.5l8.5 98.5l20 276h124l-80 -738h-170l-36 396c-2 20 -3.83301 42.5 -5.5 67.5
s-2.5 42.5 -2.5 52.5h-4l-54 -516h-168z" />
    <glyph glyph-name="X" unicode="X" horiz-adv-x="466" 
d="M36 2l87.999 379.999l-78 358h152l30 -168c2.66699 -13.333 4.83398 -28.5 6.50098 -45.5s3.5 -33.167 5.5 -48.5h4l6 47c2 15.333 5.33301 32.333 10 51l34 164h132l-82 -334l86 -404h-156l-36 230c-2.66699 12 -5 25.833 -7 41.5s-3 29.834 -3 42.501h-4
c0 -15.333 -1 -29.333 -3 -42l-9 -42l-38 -230h-138z" />
    <glyph glyph-name="Y" unicode="Y" horiz-adv-x="454" 
d="M146 2l0.000976562 280.002l-116 458h150l32 -170c2.66699 -14.667 6 -31.834 10 -51.501s7.33301 -41.834 10 -66.501h6c1.33301 16 5.16602 39 11.499 69s9.83301 46.333 10.5 49l26 170h140l-124 -458v-280h-156z" />
    <glyph glyph-name="Z" unicode="Z" horiz-adv-x="372" 
d="M36 2v114l136 516h-136v108h288v-88l-144 -538h146v-112h-290z" />
    <glyph glyph-name="bracketleft" unicode="[" horiz-adv-x="326" 
d="M48 -110v850h226v-96h-100v-660h100v-94h-226z" />
    <glyph glyph-name="backslash" unicode="\" horiz-adv-x="326" 
d="M206 -92l-162 848h76l162 -848h-76z" />
    <glyph glyph-name="bracketright" unicode="]" horiz-adv-x="326" 
d="M272 740v-850h-224v94h100v662h-100v94h224z" />
    <glyph glyph-name="asciicircum" unicode="^" horiz-adv-x="995" 
d="M427 703h122l232 -270h-114l-177 177l-179 -177h-114z" />
    <glyph glyph-name="underscore" unicode="_" horiz-adv-x="522" 
d="M0 -136h512v-102h-512v102z" />
    <glyph glyph-name="grave" unicode="`" horiz-adv-x="196" 
d="M163 459h-84l-67 252h120z" />
    <glyph glyph-name="a" unicode="a" horiz-adv-x="396" 
d="M36 470c0 46.667 13.5039 81.002 40.5039 103.002s64.833 33 113.5 33h8c23.333 0 46.166 -4.33301 68.499 -13s40.166 -21.667 53.499 -39c8.66699 -12 14.5 -26.667 17.5 -44s4.5 -36 4.5 -56v-376c0 -22.667 3.33301 -47.334 10 -74.001h-132c-4 16 -6 32 -6 48
c-10.667 -18.667 -23.834 -33.334 -39.501 -44.001s-33.834 -16 -54.501 -16c-28 0 -49 9.33301 -63 28s-21 42.667 -21 72v124c0 36.667 8.66699 66 26 88c14.667 18.667 40 36.667 76 54c28.667 14 45.667 23 51 27c16.667 12.667 25 38.334 25 77.001
c0 12.667 -1.33301 22.334 -4 29.001c-4.66699 11.333 -12 17 -22 17h-4c-7.33301 -0.666992 -12.833 -7.33398 -16.5 -20.001s-5.5 -27.334 -5.5 -44.001c0 -9.33301 0.666992 -21 2 -35s2 -21.667 2 -23h-130v84zM214.004 136.002l0.000976562 156l-24.5 -18
c-8.33301 -6 -14.833 -12.667 -19.5 -20c-2 -3.33301 -3.5 -13.833 -4.5 -31.5s-1.5 -32.5 -1.5 -44.5l2 -58c1.33301 -8.66699 4.66602 -15 9.99902 -19c2.66699 -2 6 -3 10 -3c6.66699 0 13 3.66699 19 11s9 16.333 9 27z" />
    <glyph glyph-name="b" unicode="b" horiz-adv-x="396" 
d="M36 2v738.001h130v-198c11.333 19.333 24.333 34.166 39 44.499s31.667 15.5 51 15.5c13.333 0 23.333 -0.666992 30 -2c21.333 -5.33301 36.333 -16.833 45 -34.5s13 -38.834 13 -63.501v-416c0 -30 -6.83301 -53.833 -20.5 -71.5s-35.5 -26.5 -65.5 -26.5
c-22 0 -40.5 5.83301 -55.5 17.5s-27.167 27.834 -36.5 48.501l-2 -52h-128zM212 132.001v328c0 22.667 -8 34 -24 34c-14.667 0 -22 -11.333 -22 -34v-328c0 -11.333 2.5 -20.5 7.5 -27.5s10.5 -10.5 16.5 -10.5c4.66699 0 9.16699 3 13.5 9s6.5 14.333 6.5 25z" />
    <glyph glyph-name="c" unicode="c" horiz-adv-x="396" 
d="M36 156l0.00390625 281.997l-2 14c0 31.333 2.83301 55.166 8.5 71.499s14.667 30.833 27 43.5s28.666 22.334 48.999 29.001s41.5 10 63.5 10h15c4 0 16.333 -1.33301 37 -4c44.667 -7.33301 75 -25.666 91 -54.999c11.333 -20.667 17 -53 17 -97v-64h-130l2 62
c0 22 -1.5 37.833 -4.5 47.5s-6.83301 15.167 -11.5 16.5h-12c-5.33301 0 -10 -2.5 -14 -7.5s-6 -13.833 -6 -26.5v-358c0 -24 7.33301 -36 22 -36c5.33301 0 10.666 3.33301 15.999 10s8 15.334 8 26.001v112h130v-110c0 -44 -14 -77.333 -42 -100s-64.667 -34 -110 -34
c-24 0 -46.833 3.33301 -68.5 10s-39.334 17 -53.001 31s-22.834 30.333 -27.501 49s-7 39.334 -7 62.001z" />
    <glyph glyph-name="d" unicode="d" horiz-adv-x="396" 
d="M166 132c0 -11.333 2.16797 -20.5 6.50098 -27.5s9.5 -10.5 15.5 -10.5c5.33301 0 10.666 3.66699 15.999 11s8 16.333 8 27v328c0 22.667 -8 34 -24 34c-14.667 0 -22 -11.333 -22 -34v-328zM342.001 2l-128.001 0.000976562v52
c-10.667 -22.667 -23.167 -39.334 -37.5 -50.001s-33.166 -16 -56.499 -16c-28.667 0 -50.167 8.16699 -64.5 24.5s-21.5 38.166 -21.5 65.499l2 8v416l-2 6c0 28.667 7.16699 51.834 21.5 69.501s35.833 26.5 64.5 26.5c40.667 0 70.667 -20.667 90 -62l2 198h130v-738z
" />
    <glyph glyph-name="e" unicode="e" horiz-adv-x="396" 
d="M170 120c0 -24 8 -36.0029 24 -36.0029s24 12 24 36v112h134v-110c0 -44 -14.5 -77.333 -43.5 -100s-66.5 -34 -112.5 -34c-25.333 0 -49.333 3.33301 -72 10s-41 17 -55 31s-23.333 30.333 -28 49s-7 39.334 -7 62.001l2 16v282l-2 16c0 28.667 1.66699 49.334 5 62.001
s9.66602 25.334 18.999 38.001c14.667 18.667 33.834 32 57.501 40s49.167 12 76.5 12c45.333 0 82.333 -10 111 -30c32.667 -22.667 49 -54.667 49 -96v-202h-182v-158zM170 477.997v-112h48v112c0 24 -8 36 -24 36s-24 -12 -24 -36z" />
    <glyph glyph-name="f" unicode="f" horiz-adv-x="280" 
d="M68 2l-0.00292969 496h-32v94h32l-2 40c0 16.667 2.33301 32.5 7 47.5s12.334 27 23.001 36s24.334 15.333 41.001 19s34.334 5.5 53.001 5.5h50v-92c-20 0 -32 -3.33301 -36 -10s-6 -22 -6 -46h42v-94h-42v-496h-130z" />
    <glyph glyph-name="g" unicode="g" horiz-adv-x="396" 
d="M212 132c-11.333 -22 -24.0029 -38.499 -38.0029 -49.499s-32.667 -16.5 -56 -16.5c-28.667 0 -49.5 9 -62.5 27s-19.5 42.333 -19.5 73v344l-2 2c0 28 8 50 24 66s35.333 24 58 24c17.333 0 35 -5.33301 53 -16s32.333 -25.334 43 -44.001h4v50h126v-556
c0 -32 -1.66699 -55.667 -5 -71c-6 -26.667 -18.333 -47.667 -37 -63c-15.333 -11.333 -32.166 -19.5 -50.499 -24.5s-38.166 -7.5 -59.499 -7.5c-32 0 -59.667 5.33301 -83 16c-27.333 12.667 -47.666 32 -60.999 58c-8 20 -12 41.333 -12 64l2 40h130l-2 -36
c0 -14 1.5 -24.5 4.5 -31.5s6.83301 -11.167 11.5 -12.5h8c10 0 17 5.33301 21 16c2 5.33301 3 11.333 3 18v130zM165.997 208.001c0 -24 7.33398 -36.001 22.001 -36.001c5.33301 0 10.666 3.33301 15.999 10s8 15.334 8 26.001v256c0 22.667 -8 34 -24 34
c-14.667 0 -22 -11.333 -22 -34v-256z" />
    <glyph glyph-name="h" unicode="h" horiz-adv-x="396" 
d="M36 2l0.000976562 738.001h130v-198c23.333 40 54 60 92 60c13.333 0 22.666 -0.666992 27.999 -2c21.333 -5.33301 36.333 -16.833 45 -34.5s13 -38.834 13 -63.501v-500h-132v460c0 20 -8 30 -24 30c-6 0 -11.167 -2.5 -15.5 -7.5s-6.5 -13.167 -6.5 -24.5v-458h-130z
" />
    <glyph glyph-name="i" unicode="i" horiz-adv-x="210" 
d="M36 2v590h130v-590h-130zM36 628v112h130v-112h-130z" />
    <glyph glyph-name="j" unicode="j" horiz-adv-x="210" 
d="M36 -4v596h130v-632c0 -36.667 -11.667 -61.667 -35 -75c-17.333 -10 -44.333 -15 -81 -15h-70v92h20c12 0 20.333 1.66699 25 5c7.33301 5.33301 11 15 11 29zM36 628v112h130v-112h-130z" />
    <glyph glyph-name="k" unicode="k" horiz-adv-x="396" 
d="M36 2v738h130v-406l56 258h134l-64 -256l64 -334h-138l-50 310l-2 -310h-130z" />
    <glyph glyph-name="l" unicode="l" horiz-adv-x="210" 
d="M36 2v738h130v-738h-130z" />
    <glyph glyph-name="m" unicode="m" horiz-adv-x="568" 
d="M36 2l-0.00195312 590h126v-50c10.667 18.667 24.667 33.667 42 45s34.666 17 51.999 17s33.333 -5.16699 48 -15.5s25.334 -25.833 32.001 -46.5c12.667 18.667 26.834 33.334 42.501 44.001s32.834 16 51.501 16l32 -4c20 -4.66699 34 -15.834 42 -33.501
s12 -38.5 12 -62.5v-500h-130v460c0 20 -8 30 -24 30c-6 0 -11.167 -2.5 -15.5 -7.5s-6.5 -13.167 -6.5 -24.5v-458h-128v458c0 22.667 -8 34 -24 34s-24 -11.333 -24 -34v-458h-128z" />
    <glyph glyph-name="n" unicode="n" horiz-adv-x="396" 
d="M36 2l-0.000976562 590h128v-50c11.333 18.667 24.833 33.334 40.5 44.001s32.834 16 51.501 16c13.333 0 23.333 -0.666992 30 -2c21.333 -5.33301 36.333 -16.833 45 -34.5s13 -38.834 13 -63.501v-500h-132v460c0 20 -8 30 -24 30c-6 0 -11.167 -2.5 -15.5 -7.5
s-6.5 -13.167 -6.5 -24.5v-458h-130z" />
    <glyph glyph-name="o" unicode="o" horiz-adv-x="396" 
d="M36 438c0 58.667 10.334 100.332 31.001 124.999c24 28.667 66.333 43 127 43c59.333 0 100.666 -14 123.999 -42c21.333 -25.333 32 -67.333 32 -126v-282c0 -57.333 -10.333 -98.666 -31 -123.999c-24 -29.333 -65.667 -44 -125 -44c-60 0 -102 14.333 -126 43
c-21.333 25.333 -32 67 -32 125v282zM170.001 477.998v-358c0 -24 7.33301 -36 22 -36c5.33301 0 11 3.5 17 10.5s9 15.5 9 25.5v358c0 24 -8 36 -24 36s-24 -12 -24 -36z" />
    <glyph glyph-name="p" unicode="p" horiz-adv-x="396" 
d="M36 -130v722.001h128v-50c11.333 18.667 24.833 33.334 40.5 44.001s32.834 16 51.501 16c13.333 0 23.333 -0.666992 30 -2c21.333 -5.33301 36.333 -16.833 45 -34.5s13 -38.834 13 -63.501v-412c0 -30.667 -6.33301 -54.334 -19 -71.001
c-14.667 -19.333 -37 -29 -67 -29c-20 0 -37.333 4.83301 -52 14.5s-27.334 23.5 -38.001 41.5l-2 -176h-130zM166 460.001v-328c0 -10 2.5 -18.5 7.5 -25.5s10.5 -10.5 16.5 -10.5c4.66699 0 9.16699 3 13.5 9s6.5 13.667 6.5 23l2 4v328c0 22.667 -8 34 -24 34
c-14.667 0 -22 -11.333 -22 -34z" />
    <glyph glyph-name="q" unicode="q" horiz-adv-x="396" 
d="M344 -130h-130.001v176c-12 -18.667 -25.5 -32.667 -40.5 -42s-32.833 -14 -53.5 -14c-29.333 0 -50.666 9.16699 -63.999 27.5s-20 42.5 -20 72.5v412c0 32 6.83301 57 20.5 75s35.5 27 65.5 27c20 0 37.667 -5.5 53 -16.5s28.333 -26.167 39 -45.5l2 50h128v-722z
M213.999 460c0 22.667 -8.66699 33.999 -26 33.999c-14.667 0 -22 -11.333 -22 -34v-328c0 -10 2.33301 -18.5 7 -25.5s9.66699 -10.5 15 -10.5c6.66699 0 12.667 3.33301 18 10s8 15.334 8 26.001v328z" />
    <glyph glyph-name="r" unicode="r" horiz-adv-x="396" 
d="M36 2l-0.000976562 590h128v-50c11.333 18.667 24.833 33.334 40.5 44.001s32.834 16 51.501 16c13.333 0 23.333 -0.666992 30 -2c21.333 -5.33301 36.333 -16.833 45 -34.5s13 -38.834 13 -63.501v-228h-132v188c0 20 -8 30 -24 30c-6 0 -11.167 -2.5 -15.5 -7.5
s-6.5 -13.167 -6.5 -24.5v-458h-130z" />
    <glyph glyph-name="s" unicode="s" horiz-adv-x="396" 
d="M344 124c0 -45.333 -13.832 -79.332 -41.499 -101.999s-65.167 -34 -112.5 -34c-46 0 -82.333 10.667 -109 32c-30 24 -45 58 -45 102v110h130v-112c0 -10.667 1.66699 -19.667 5 -27s9.66602 -11 18.999 -11l4 2c8 2 13.333 6.5 16 13.5s4 15.833 4 26.5v32
c0 14 -1.16699 26.333 -3.5 37s-7.16602 19.667 -14.499 27l-140 128c-8.66699 12 -14.5 25 -17.5 39s-4.5 30.333 -4.5 49l2 32c0 28 4 51.5 12 70.5s22.667 34.167 44 45.5c29.333 14.667 62 22 98 22c24 0 47.667 -4 71 -12s41.666 -19.333 54.999 -34
c10.667 -14 18 -29.833 22 -47.5s6 -37.834 6 -60.501v-66h-130v56v16c0 20 -1.33301 34 -4 42c0 4 -2.33301 7.33301 -7 10s-9.66699 4 -15 4h-4c-7.33301 -0.666992 -12.5 -5.16699 -15.5 -13.5s-4.5 -18.5 -4.5 -30.5l2 -36c0 -16 13.667 -36.333 41 -61l121 -107
c6 -9.33301 10.167 -21.5 12.5 -36.5s3.5 -31.5 3.5 -49.5v-56z" />
    <glyph glyph-name="t" unicode="t" horiz-adv-x="280" 
d="M36 498v94.001h32v110h130v-110h38v-94h-38v-358c0 -14.667 0.333008 -23.334 1 -26.001c3.33301 -12 13 -18 29 -18l8 2v-96l-64 -2c-36.667 0 -62 5.66699 -76 17c-18.667 15.333 -28 45 -28 89v392h-32z" />
    <glyph glyph-name="u" unicode="u" horiz-adv-x="396" 
d="M344 592v-589.999h-128v50h-4c-10.667 -18.667 -23.5 -33.334 -38.5 -44.001s-32.833 -16 -53.5 -16c-29.333 0 -50.666 8.83301 -63.999 26.5s-20 42.167 -20 73.5v500h130v-458c0 -10 2.33301 -18.5 7 -25.5s9.66699 -10.5 15 -10.5s10.666 3.5 15.999 10.5
s8 15.5 8 25.5v458h132z" />
    <glyph glyph-name="v" unicode="v" horiz-adv-x="406" 
d="M120 2l-84 589.999h130l30 -292c0 -17.333 1.33301 -43.333 4 -78s4 -60.667 4 -78h4c0 52.667 3.33301 111.334 10 176.001l26 272h124l-86 -590h-162z" />
    <glyph glyph-name="w" unicode="w" horiz-adv-x="626" 
d="M116 2l-80 589.998h132l24 -306c1.33301 -15.333 2.33301 -38.333 3 -69s1 -53.667 1 -69h6c0 16.667 1 36 3 58c4.66699 51.333 7 83.333 7 96l34 290h136l26 -306c2 -18 3.5 -38.667 4.5 -62s1.5 -48.666 1.5 -75.999h6c0 28.667 1.66699 58.334 5 89.001l7 65l26 290
h126l-88 -590h-150l-26 270c-2.66699 35.333 -4 75 -4 119v17h-6c0 -37.333 -3.33301 -79.333 -10 -126l-34 -280h-150z" />
    <glyph glyph-name="x" unicode="x" horiz-adv-x="418" 
d="M36 2l80 310l-64 280h138l20 -136l10 -82h4c0 16.667 1 32 3 46c0 2 3 17.333 9 46l24 126h120l-66 -282l66 -308h-136l-28 148c-4 30 -6 60 -6 90h-4c0 -26.667 -3.33301 -56.667 -10 -90l-30 -148h-130z" />
    <glyph glyph-name="y" unicode="y" horiz-adv-x="408" 
d="M274 -2c-6.66699 -45.333 -17 -76.667 -31 -94c-18 -22.667 -48.333 -34 -91 -34h-110v96h50c17.333 0 26 7.33301 26 22l-2 38l-84 566h132l24 -296l6 -146h4l14 158l30 284h122z" />
    <glyph glyph-name="z" unicode="z" horiz-adv-x="326" 
d="M36 2v102l108 390h-104v98h244v-86l-112 -404h112v-100h-248z" />
    <glyph glyph-name="braceleft" unicode="{" horiz-adv-x="507" 
d="M423 711l-0.000976562 -101c-42.667 0 -70.667 -5.5 -84 -16.5s-20 -37.5 -20 -79.5v-114c0 -44.667 -6 -76.334 -18 -95.001c-14 -22 -41.333 -38.333 -82 -49c40 -10.667 66.667 -26.167 80 -46.5s20 -52.833 20 -97.5v-112c0 -42 7 -68.667 21 -80
c12 -9.33301 39.667 -14 83 -14v-101h-45c-30 0 -52.333 1.16699 -67 3.5s-29 6.5 -43 12.5c-29.333 10.667 -48.666 30.667 -57.999 60c-6 18.667 -9 48 -9 88v116c0 44.667 -8.5 75.834 -25.5 93.501s-45.167 26.5 -84.5 26.5h-16v102l10 -2
c42.667 0 72.667 8.66699 90 26s26 49.333 26 96v120c0 41.333 2.66699 70.333 8 87c9.33301 28.667 29 49 59 61c13.333 6 28.5 10.167 45.5 12.5s35.167 3.5 54.5 3.5h55z" />
    <glyph glyph-name="bar" unicode="|" horiz-adv-x="507" 
d="M195 752h100v-980h-100v980z" />
    <glyph glyph-name="braceright" unicode="}" horiz-adv-x="507" 
d="M69 711l47.002 -0.00195312c26 0 49 -1.66699 69 -5s39.333 -10.166 58 -20.499s31.667 -28.833 39 -55.5c4.66699 -17.333 7 -41.666 7 -72.999v-132c0 -45.333 8.66699 -76.666 26 -93.999s47 -26 89 -26l11 2v-102h-17c-38.667 0 -66.5 -8.83301 -83.5 -26.5
s-25.5 -48.834 -25.5 -93.501v-116c0 -44.667 -3.66699 -76.334 -11 -95.001c-11.333 -29.333 -35 -49 -71 -59c-16 -4 -32.833 -6.66699 -50.5 -8s-36.5 -2 -56.5 -2h-31v101c43.333 0 70.666 4.33301 81.999 13c14.667 11.333 22 38.333 22 81v112
c0 44.667 6.16699 77.167 18.5 97.5s39.166 35.833 80.499 46.5c-40 10.667 -66.5 26.334 -79.5 47.001s-19.5 53 -19.5 97v116c0 42 -6.5 68.167 -19.5 78.5s-41.167 15.5 -84.5 15.5v101z" />
    <glyph glyph-name="asciitilde" unicode="~" horiz-adv-x="995" 
d="M687 677h98.0039c0 -59.333 -9.66699 -106.333 -29 -141c-24 -43.333 -64 -68.333 -120 -75l-28 -4c-28.667 0 -56.334 7.5 -83.001 22.5s-51.334 34.167 -74.001 57.5c-13.333 13.333 -28 24.333 -44 33s-31 13 -45 13c-12.667 0 -26.334 -5.33301 -41.001 -16
c-11.333 -8.66699 -19.833 -20.834 -25.5 -36.501s-8.5 -39.5 -8.5 -71.5h-96l-2 8c0 50.667 9 93 27 127c21.333 40.667 55 66.334 101 77.001c7.33301 0.666992 14.5 1.5 21.5 2.5s14.833 1.5 23.5 1.5c28.667 0 55.167 -5.33301 79.5 -16s47.833 -27 70.5 -49
c18.667 -18.667 33 -31.667 43 -39c16.667 -12 33 -18 49 -18c9.33301 0 20.666 2.66699 33.999 8c20.667 8 34.667 24 42 48c4.66699 16 7 38.667 7 68z" />
    <glyph glyph-name="c128" horiz-adv-x="227" 
 />
    <glyph glyph-name="c129" horiz-adv-x="227" 
 />
    <glyph glyph-name="c141" horiz-adv-x="227" 
 />
    <glyph glyph-name="c142" horiz-adv-x="507" 
d="M171 303h51v307h-9l-8 -73zM478 711v-101h-118v-163h118v-103h-118v-236h118v-106h-256v189h-68l-32 -189h-128l146 709h338z" />
    <glyph glyph-name="c143" horiz-adv-x="507" 
d="M311 459v-109h43v109c0 23.333 -7 35 -21 35c-14.667 0 -22 -11.667 -22 -35zM480 226l-0.000976562 -110.002c0 -40 -12.167 -71 -36.5 -93s-54.166 -33 -89.499 -33c-19.333 0 -37.833 3.16699 -55.5 9.5s-34.5 16.5 -50.5 30.5c-31.333 -26.667 -69.333 -40 -114 -40
c-36.667 0 -65.167 9.16699 -85.5 27.5s-30.5 45.166 -30.5 80.499v109c0 34.667 8.33301 62.667 25 84c14.667 18.667 38.334 35.834 71.001 51.501s52.667 27.834 60 36.501c10 12 15 33.333 15 64c0 12.667 -1.66699 23.334 -5 32.001s-9.66602 13 -18.999 13h-4
c-7.33301 -0.666992 -12.666 -7 -15.999 -19s-5 -26 -5 -42c0 -8.66699 0.666992 -20 2 -34s2 -21.667 2 -23h-126l-2 61c0 28 3.33301 52.667 10 74s19.667 38.666 39 51.999c11.333 8.66699 24.5 14.834 39.5 18.501s32.167 5.5 51.5 5.5h27
c12.667 0 24.167 -2.5 34.5 -7.5s21.166 -11.833 32.499 -20.5c12 9.33301 26.5 16.333 43.5 21s33.5 7 49.5 7c37.333 0 68.666 -10 93.999 -30c28.667 -22.667 43 -52.667 43 -90v-195h-169v-152c0 -10 2.33301 -18.333 7 -25s9.66699 -10 15 -10
s10.166 3.33301 14.499 10s6.5 15 6.5 25v112h126zM188.999 129.998l-0.000976562 150c-10 -6.66699 -18.167 -12.5 -24.5 -17.5s-11.833 -11.167 -16.5 -18.5c-1.33301 -3.33301 -2.66602 -13.333 -3.99902 -30s-2 -31 -2 -43l2 -57c2.66699 -14 9 -21 19 -21
c6.66699 0 12.667 3.33301 18 10s8 15.667 8 27z" />
    <glyph glyph-name="c144" horiz-adv-x="227" 
 />
    <glyph glyph-name="c157" horiz-adv-x="227" 
 />
    <glyph glyph-name="c158" horiz-adv-x="227" 
 />
    <glyph glyph-name="nonbreakingspace" unicode="&#xa0;" horiz-adv-x="227" 
 />
    <glyph glyph-name="exclamdown" unicode="&#xa1;" horiz-adv-x="220" 
d="M167 528v-526h-128v526h128zM167 711v-148h-128v148h128z" />
    <glyph glyph-name="cent" unicode="&#xa2;" horiz-adv-x="373" 
d="M31 161l0.000976562 264.001c0 52 8 89.667 24 113c18.667 26.667 52.667 43 102 49v94h46v-94c52.667 -6.66699 87.667 -24.334 105 -53.001c12.667 -20.667 19 -57 19 -109v-47h-124l2 57c0 23.333 -1.5 39.5 -4.5 48.5s-7.5 13.833 -13.5 14.5h-10
c-8.66699 0 -14.167 -3.66699 -16.5 -11s-3.5 -14.666 -3.5 -21.999v-343c0 -10.667 2.16699 -19.167 6.5 -25.5s9.5 -9.5 15.5 -9.5c5.33301 0 10.666 3.16699 15.999 9.5s8 14.833 8 25.5v110h124v-104c0 -38.667 -11 -68.334 -33 -89.001s-52.333 -33 -91 -37v-100h-46
v100c-50 6 -83.5 21 -100.5 45s-25.5 62 -25.5 114z" />
    <glyph glyph-name="sterling" unicode="&#xa3;" horiz-adv-x="373" 
d="M12 2v101.999c19.333 15.333 33.333 33.333 42 54s13 42.667 13 66c0 26.667 -2 51.667 -6 75h-49v75h37c-13.333 68 -20.666 106.333 -21.999 115c-4.66699 30 -7 54.667 -7 74s1.83301 37.166 5.5 53.499s8.83398 30.5 15.501 42.5c12.667 22 31.5 38.333 56.5 49
s52.167 16 81.5 16c22 0 43 -1.66699 63 -5c37.333 -8.66699 64 -25.167 80 -49.5s24 -56.5 24 -96.5v-118h-137v128c0 12 -1.33301 21.833 -4 29.5s-9.33398 11.5 -20.001 11.5c-9.33301 0 -16 -3.33301 -20 -10s-6.66699 -15 -8 -25l-1 -12
c0 -31.333 4 -65.666 12 -102.999c11.333 -51.333 17.666 -84.666 18.999 -99.999h159v-75h-151c1.33301 -8 2 -16.333 2 -25v-26c0 -34 -5.66699 -62 -17 -84c-13.333 -26 -36 -46 -68 -60v-8c11.333 2.66699 24.5 4.66699 39.5 6s29.5 2 43.5 2h151v-102h-334z" />
    <glyph glyph-name="currency" unicode="&#xa4;" horiz-adv-x="598" 
d="M75 691l98.001 -97c36 24 75.333 36 118 36c43.333 0 82.666 -12 117.999 -36l99 97l51 -49l-98 -99c23.333 -35.333 35 -74 35 -116s-11.667 -80.667 -35 -116l98 -98l-51 -52l-99 97c-36.667 -25.333 -76.667 -38 -120 -38c-39.333 0 -78 12.667 -116 38l-98 -97
l-49 52l98 98c-24.667 34 -37 72 -37 114c0 42.667 12.333 82 37 118l-98 99zM293.001 559c-36 0 -67.666 -13.667 -94.999 -41s-41 -59 -41 -95l2 -10c4 -33.333 18.667 -61.333 44 -84s55.333 -34 90 -34c33.333 0 62.666 11.333 87.999 34s39.333 50.667 42 84v12
c0 36 -13 67.333 -39 94s-56.333 40 -91 40z" />
    <glyph glyph-name="yen" unicode="&#xa5;" horiz-adv-x="373" 
d="M356 711l-67 -268h67v-53h-80l-16 -65h96v-55h-110v-268h-138v268h-106v55h92l-15 65h-77v53h65l-65 268h142l23 -162c3.33301 -20 6 -39.333 8 -58c0 -2 2 -21.333 6 -58h8l18 114l29 164h120z" />
    <glyph glyph-name="brokenbar" unicode="&#xa6;" horiz-adv-x="507" 
d="M195 689h100v-364h-100v364zM195 197h100v-360h-100v360z" />
    <glyph glyph-name="section" unicode="&#xa7;" horiz-adv-x="397" 
d="M354 488l-102.004 0.000976562v55c0 18.667 -1.5 35.5 -4.5 50.5s-8.16699 25.167 -15.5 30.5c-11.333 6.66699 -26.333 10 -45 10c-20.667 0 -36.334 -5.33301 -47.001 -16c-2 -2.66699 -4 -7 -6 -13c-4 -10 -6 -19.333 -6 -28c0 -4 0.833008 -9.16699 2.5 -15.5
s2.83398 -11.166 3.50098 -14.499c4 -8.66699 10.333 -16.334 19 -23.001c5.33301 -4 20 -12.667 44 -26c60 -28 94.333 -44.667 103 -50c37.333 -24.667 56 -55.334 56 -92.001l2 -49c0 -7.33301 -0.5 -15.666 -1.5 -24.999s-1.83301 -16.666 -2.5 -21.999
c-5.33301 -22.667 -18.333 -39.667 -39 -51c16.667 -12.667 28 -26.834 34 -42.501s9 -34.5 9 -56.5v-25c0 -41.333 -8.33301 -73.5 -25 -96.5s-45.667 -39.5 -87 -49.5c-18 -4 -37.667 -6 -59 -6c-22 0 -43.667 3.16699 -65 9.5s-39.666 15.5 -54.999 27.5
c-18 14.667 -30.333 33.5 -37 56.5s-10 48.833 -10 77.5l2 71h106c0 -3.33301 -0.666992 -13 -2 -29s-2 -28.667 -2 -38c0 -32 5.5 -54.333 16.5 -67s28.5 -19 52.5 -19c10.667 0 20.834 1.66699 30.501 5s16.5 8 20.5 14c8 10 12 23.333 12 40c0 6 -0.666992 12.667 -2 20
s-4 13.666 -8 18.999c-6 10.667 -16.667 20 -32 28c-5.33301 2.66699 -18.333 8.33398 -39 17.001c-62 29.333 -100.333 51 -115 65c-20 19.333 -32 42.333 -36 69l-4 49c0 20 2 38 6 54c2 10.667 6.33301 20 13 28s15.334 16.333 26.001 25
c-16.667 14.667 -28 31.667 -34 51s-9 42.333 -9 69c0 40.667 8.83301 72.667 26.5 96s46.834 39.666 87.501 48.999c18 4 37.667 6 59 6c34.667 0 66 -6.83301 94 -20.5s47 -34.834 57 -63.501c4 -8 6.66699 -18.667 8 -32s2 -27.666 2 -42.999zM253.996 240.001v30
c0 53.333 -11 87 -33 101l-93 46l-2 -59c0 -28 4.66699 -47.667 14 -59c7.33301 -8.66699 24.333 -19 51 -31z" />
    <glyph glyph-name="dieresis" unicode="&#xa8;" horiz-adv-x="227" 
 />
    <glyph glyph-name="copyright" unicode="&#xa9;" horiz-adv-x="818" 
d="M402 713c97.333 0 181 -35.333 251 -106s105 -155.667 105 -255c0 -97.333 -35 -180.333 -105 -249s-153.667 -103 -251 -103c-81.333 -0 -154 24.333 -218 73s-106.333 111.667 -127 189c-4.66699 18 -8.16699 34.333 -10.5 49s-3.5 29 -3.5 43
c0 95.333 35.333 179 106 251s155 108 253 108zM402 654c-82 0 -152.5 -30.5 -211.5 -91.5s-88.5 -131.833 -88.5 -212.5c0 -22.667 3.33301 -46.667 10 -72c18.667 -64 55.167 -116.833 109.5 -158.5s114.5 -62.5 180.5 -62.5c82 0 152.333 29 211 87s88 127.333 88 208
c0 82.667 -29.333 153.667 -88 213s-129 89 -211 89zM573 431l-89 0.00195312c-2.66699 22 -11.834 39.667 -27.501 53s-33.167 20 -52.5 20c-26 0 -48 -11.667 -66 -35c-20.667 -27.333 -31 -66.333 -31 -117c0 -37.333 6.33301 -68.333 19 -93c16.667 -32 42 -48 76 -48
l4 -2c22.667 0 41.167 7.16699 55.5 21.5s22.5 33.166 24.5 56.499h93c0 -46 -17.167 -82 -51.5 -108s-76.166 -39 -125.499 -39c-60.667 0 -108.334 19.5 -143.001 58.5s-52 88.833 -52 149.5l2 6c0 69.333 21 123.666 63 162.999c36.667 34.667 81.334 52 134.001 52
c43.333 0 81 -12 113 -36c36 -26.667 54 -60.667 54 -102z" />
    <glyph glyph-name="ordfeminine" unicode="&#xaa;" horiz-adv-x="624" 
d="M99 596h440v-452h-440v452z" />
    <glyph glyph-name="guillemotleft" unicode="&#xab;" horiz-adv-x="373" 
d="M165 61l-141 158v124l141 159v-126l-86 -96l86 -95v-124zM337 61l-142 158v124l142 159v-126l-87 -96l87 -95v-124z" />
    <glyph glyph-name="logicalnot" unicode="&#xac;" horiz-adv-x="818" 
d="M112 415h577v-240h-95v148h-482v92z" />
    <glyph glyph-name="minus" unicode="&#xad;" horiz-adv-x="186" 
d="M0 246v102h182v-102h-182z" />
    <glyph glyph-name="registered" unicode="&#xae;" horiz-adv-x="818" 
d="M402 713c98 0 181.833 -35.167 251.5 -105.5s104.5 -155.5 104.5 -255.5c0 -97.333 -35 -180.333 -105 -249s-153.667 -103 -251 -103c-81.333 -0 -154 24.333 -218 73s-106.333 111.667 -127 189c-4.66699 18 -8.16699 34.333 -10.5 49s-3.5 29 -3.5 43
c0 95.333 35.333 179 106 251s155 108 253 108zM402 654c-81.333 0 -152.002 -30.333 -212.002 -91s-90 -131.667 -90 -213c0 -3.33301 0.666992 -9 2 -17s2 -14 2 -18c10 -72 43.333 -133.333 100 -184s121.334 -76 194.001 -76l4 2l2 -2
c78.667 0 147.834 29.5 207.501 88.5s89.5 127.833 89.5 206.5c0 83.333 -29.167 154.833 -87.5 214.5s-128.833 89.5 -211.5 89.5zM251.998 559h155.001c59.333 0 102.666 -9.33301 129.999 -28c22.667 -15.333 36 -38 40 -68v-16c0 -25.333 -8 -48 -24 -68
s-37 -33.333 -63 -40l89 -176h-107l-74 162h-50v-162h-96v396zM347.999 498v-114l36 -2c35.333 0 59.833 4.66699 73.5 14s20.5 22.333 20.5 39v6c0 22 -11.333 37.667 -34 47c-16.667 6.66699 -38.667 10 -66 10h-30z" />
    <glyph glyph-name="macron" unicode="&#xaf;" horiz-adv-x="507" 
d="M0 752h492v-96h-492v96z" />
    <glyph glyph-name="degree" unicode="&#xb0;" horiz-adv-x="882" 
d="M449 616c70 0 126.667 -22.667 170 -68s65 -101 65 -167c0 -66.667 -21.667 -122.167 -65 -166.5s-100 -66.5 -170 -66.5c-68 0 -123.667 22.667 -167 68s-65 100.333 -65 165c0 65.333 21.5 120.833 64.5 166.5s98.833 68.5 167.5 68.5z" />
    <glyph glyph-name="plusminus" unicode="&#xb1;" horiz-adv-x="818" 
d="M352 589h99v-158h238v-94h-238v-158h-99v158h-240v94h240v158zM112 94h577v-92h-577v92z" />
    <glyph glyph-name="twosuperior" unicode="&#xb2;" horiz-adv-x="263" 
d="M138 636c0 13.333 -5.33008 20.001 -15.9971 20.001s-16 -6.66699 -16 -20v-77h-92l-2 39c0 40.667 7.33301 70 22 88c12 14.667 30.333 24.334 55 29.001c5.33301 0.666992 11.666 1.16699 18.999 1.5s12.666 0.5 15.999 0.5c33.333 0 59.666 -8.33301 78.999 -25
s29 -41.334 29 -74.001c0 -38 -21.667 -86 -65 -144s-65 -100.667 -65 -128l2 -2h128v-61h-218v69c0 26 8 53.333 24 82c6 11.333 22.333 34.666 49 69.999c22.667 31.333 34.667 48.333 36 51c10 16.667 15 43.667 15 81z" />
    <glyph glyph-name="threesuperior" unicode="&#xb3;" horiz-adv-x="263" 
d="M14 451l92 0.00292969v-93c0 -15.333 5.33301 -23 16 -23c12 0 18 7.66699 18 23v79c0 14 -4.33301 23.333 -13 28s-20 7 -34 7h-14v61l19 -2c16.667 0 27.834 3.16699 33.501 9.5s8.5 15.166 8.5 26.499v69c0 13.333 -6 20 -18 20c-10.667 0 -16 -6.66699 -16 -20v-79
h-92l-2 43c0 21.333 2.33301 40.166 7 56.499s14 29.833 28 40.5c20 13.333 45.667 20 77 20c19.333 0 37 -2.5 53 -7.5s29.167 -14 39.5 -27s15.5 -28.5 15.5 -46.5v-69c-2.66699 -16.667 -10.167 -30.334 -22.5 -41.001s-27.833 -18.667 -46.5 -24
c25.333 -4.66699 43.166 -11.5 53.499 -20.5s15.5 -24.5 15.5 -46.5v-75c0 -28 -10 -49.333 -30 -64s-46 -22 -78 -22c-41.333 0 -70 9 -86 27s-24 45.667 -24 83v67z" />
    <glyph glyph-name="acute" unicode="&#xb4;" horiz-adv-x="227" 
 />
    <glyph glyph-name="mu" unicode="&#xb5;" horiz-adv-x="617" 
d="M98 526l140.003 0.000976562l-37 -209l-10.5 -63c-3.66699 -22.667 -5.5 -41 -5.5 -55l2 -20c0 -22.667 6.66699 -41.334 20 -56.001s31.666 -23 54.999 -25l6 -2c38 0 67.667 22 89 66c13.333 27.333 23.666 66 30.999 116l43 248h140l-93 -524h-130l8 55
c-12.667 -22 -26.834 -38.667 -42.501 -50s-35.5 -17 -59.5 -17h-4c-20.667 0 -39.167 4.66699 -55.5 14s-30.5 22.333 -42.5 39l-44 -250h-134z" />
    <glyph glyph-name="paragraph" unicode="&#xb6;" horiz-adv-x="507" 
d="M472 713v-56.001h-55v-655h-73v655h-76v-655h-73v376c-26.667 2.66699 -46.667 5.66699 -60 9c-20 5.33301 -38 14 -54 26c-42 33.333 -63 77.333 -63 132c0 52.667 18 93.834 54 123.501s81 44.5 135 44.5h265z" />
    <glyph glyph-name="periodcentered" unicode="&#xb7;" horiz-adv-x="227" 
 />
    <glyph glyph-name="periodcentered" unicode="&#x2219;" horiz-adv-x="227" 
 />
    <glyph glyph-name="cedilla" unicode="&#xb8;" horiz-adv-x="227" 
 />
    <glyph glyph-name="onesuperior" unicode="&#xb9;" horiz-adv-x="227" 
 />
    <glyph glyph-name="ordmasculine" unicode="&#xba;" horiz-adv-x="664" 
d="M113 618h472v-489h-472v489zM157 576v-409h386v409h-386z" />
    <glyph glyph-name="guillemotright" unicode="&#xbb;" horiz-adv-x="373" 
d="M195 500l142 -157v-124l-142 -158v124l86 95l-86 96v124zM24 500l141 -157v-124l-141 -158v124l86 95l-86 96v124z" />
    <glyph glyph-name="onequarter" unicode="&#xbc;" horiz-adv-x="598" 
d="M75 313v303h-51v45c36 0 59 16 69 48h68v-396h-86zM159 -12h-57l317 738h59zM419 156h53l2 118c0 24.667 2 48.667 6 72h-6c-14.667 -64 -33 -127.333 -55 -190zM470 2v96h-118v58l85 242h122v-242h26v-58h-26v-96h-89z" />
    <glyph glyph-name="onehalf" unicode="&#xbd;" horiz-adv-x="598" 
d="M75 313v303h-51v45c36 0 59 16 69 48h68v-396h-86zM159 -12h-57l317 738h59zM484 329c0 12.667 -4.99902 19 -14.999 19c-10.667 0 -16 -6.33301 -16 -19v-71h-87l-2 43c0 36 7 62 21 78c11.333 12.667 28.666 21 51.999 25l33 2c32 0 57.167 -7.33301 75.5 -22
s27.5 -37.667 27.5 -69c0 -36 -20.333 -81 -61 -135s-61 -93.667 -61 -119l2 -2h120v-57h-209v65c0 26 11.667 56.333 35 91l36 51c20 26.667 31.333 42 34 46c10 15.333 15 40 15 74z" />
    <glyph glyph-name="threequarters" unicode="&#xbe;" horiz-adv-x="598" 
d="M6 469h87.9971v-85c0 -14.667 5.33301 -22 16 -22s16 7.33301 16 22v73c0 12.667 -4.16699 21.334 -12.5 26.001s-19.166 7 -32.499 7h-14v55l16 -2c12.667 0 22.334 2 29.001 6c9.33301 6 14 15.333 14 28v65c0 11.333 -5.33301 17 -16 17s-16 -5.66699 -16 -17v-73h-88
l-2 41c0 19.333 2.33301 36.666 7 51.999s13.334 27 26.001 35c18 13.333 42.333 20 73 20c18 0 35.167 -2.5 51.5 -7.5s28.833 -12.5 37.5 -22.5c10.667 -14.667 16 -29.667 16 -45v-65c-2.66699 -15.333 -9.83398 -27.5 -21.501 -36.5s-26.167 -16.5 -43.5 -22.5
c22 -4 38.333 -10.5 49 -19.5s16 -23.5 16 -43.5v-71c0 -26.667 -9.66699 -46.5 -29 -59.5s-44.666 -19.5 -75.999 -19.5c-40 0 -67.333 8 -82 24s-22 42 -22 78v62zM158.997 -12h-57l317 738h59zM418.997 156h53l2 118c0 24.667 2 48.667 6 72h-6
c-14.667 -64 -33 -127.333 -55 -190zM469.997 2v96h-118v58l85 242h122v-242h26v-58h-26v-96h-89z" />
    <glyph glyph-name="questiondown" unicode="&#xbf;" horiz-adv-x="373" 
d="M246 531l0.000976562 -149.001c0 -22 -3 -40 -9 -54c-2.66699 -6 -19.334 -30 -50.001 -72c-12.667 -18 -20.834 -32.333 -24.501 -43s-5.5 -26 -5.5 -46l2 -15l-2 -34c0 -10 1.5 -18.333 4.5 -25s8.16699 -10 15.5 -10l2 -2c8.66699 0 15.167 3.33301 19.5 10
s6.5 15 6.5 25v138h128v-126c0 -44.667 -13.5 -79.167 -40.5 -103.5s-62.833 -36.5 -107.5 -36.5h-10c-33.333 0 -62 5.66699 -86 17c-29.333 14 -48.666 35.333 -57.999 64c-1.33301 7.33301 -2.66602 15.333 -3.99902 24c-3.33301 22.667 -5 42.334 -5 59.001
c0 17.333 1.5 36.333 4.5 57s6.5 36.334 10.5 47.001c5.33301 11.333 21.666 35.666 48.999 72.999c20 27.333 30 52.333 30 75v127h130zM246.001 710.999v-146h-130v146h130z" />
    <glyph glyph-name="Agrave" unicode="&#xc0;" 
d="M-114 878l-82 112h110l42 -112h-70zM-274 784h-80l76 112h100l76 -112h-80l-46 54z" />
    <glyph glyph-name="Aacute" unicode="&#xc1;" 
d="M-44 862h-74l44 112h114zM-274 784h-80l76 112h100l76 -112h-80l-46 54z" />
    <glyph glyph-name="Acircumflex" unicode="&#xc2;" 
d="M-274 784h-80l76 112h100l76 -112h-80l-46 54z" />
    <glyph glyph-name="Atilde" unicode="&#xc3;" 
d="M-274 784h-80l76 112h100l76 -112h-80l-46 54zM-102 1038l2 -6c0 -27.333 -7.16699 -50.166 -21.5 -68.499s-33.166 -27.5 -56.499 -27.5c-8 0 -17.667 1.66699 -29 5c-1.33301 0.666992 -6.83301 2.83398 -16.5 6.50098s-19.334 7.66699 -29.001 12s-17.5 6.5 -23.5 6.5
c-7.33301 0 -13.5 -2.33301 -18.5 -7s-7.5 -12.334 -7.5 -23.001h-52c0 30 6.5 54.167 19.5 72.5s31.167 27.5 54.5 27.5c11.333 0 24 -2 38 -6c2 -0.666992 11.5 -4.83398 28.5 -12.501s29.5 -11.5 37.5 -11.5c14.667 0 22 10.667 22 32h52z" />
    <glyph glyph-name="Adieresis" unicode="&#xc4;" 
d="M-274 784h-80l76 112h100l76 -112h-80l-46 54zM-286 -182v112h130v-112h-130z" />
    <glyph glyph-name="Aring" unicode="&#xc5;" 
d="M-284 784h-80l76 112h100l76 -112h-80l-46 54zM-128 844l0.000976562 26c0 10 1 17 3 21s11.333 16 28 36c5.33301 5.33301 9 10.333 11 15s3 10 3 16v22c0 11.333 -4.66699 17 -14 17c-5.33301 0 -10.166 -1.83301 -14.499 -5.5s-6.5 -7.5 -6.5 -11.5v-30h-64v27
c0 17.333 6.66699 31 20 41s31.666 16 54.999 18h13c20 0 38.167 -3.33301 54.5 -10s26.166 -17 29.499 -31l2 -30c0 -12 -0.5 -20.667 -1.5 -26s-3 -10.5 -6 -15.5s-12.167 -15.167 -27.5 -30.5c-12 -12 -18 -22.333 -18 -31v-18h-67z" />
    <glyph glyph-name="AE" unicode="&#xc6;" horiz-adv-x="234" 
d="M36 2v738h148v-738h-148zM72 766l0.000976562 26c0 10 1 17 3 21s11.333 16 28 36c5.33301 5.33301 9 10.333 11 15s3 10 3 16v22c0 11.333 -4.66699 17 -14 17c-5.33301 0 -10.166 -1.83301 -14.499 -5.5s-6.5 -7.5 -6.5 -11.5v-30h-64v27c0 17.333 6.66699 31 20 41
s31.666 16 54.999 18h13c20 0 38.167 -3.33301 54.5 -10s26.166 -17 29.499 -31l2 -30c0 -12 -0.5 -20.667 -1.5 -26s-3 -10.5 -6 -15.5s-12.167 -15.167 -27.5 -30.5c-12 -12 -18 -22.333 -18 -31v-18h-67z" />
    <glyph glyph-name="Ccedilla" unicode="&#xc7;" horiz-adv-x="227" 
 />
    <glyph glyph-name="Egrave" unicode="&#xc8;" 
d="M-270 886c0 -15.333 3.33105 -27.5 9.99805 -36.5s17.334 -13.5 32.001 -13.5c15.333 0 26.166 4.33301 32.499 13s9.5 21 9.5 37h66c0 -26 -4.66699 -48.333 -14 -67c-11.333 -22 -28.666 -36.333 -51.999 -43l-42 -6c-33.333 0 -59.666 10 -78.999 30
s-29 48.667 -29 86h66zM-236.002 920l-82 112h110l42 -112h-70z" />
    <glyph glyph-name="Eacute" unicode="&#xc9;" 
d="M-270 886c0 -15.333 3.33105 -27.5 9.99805 -36.5s17.334 -13.5 32.001 -13.5c15.333 0 26.166 4.33301 32.499 13s9.5 21 9.5 37h66c0 -26 -4.66699 -48.333 -14 -67c-11.333 -22 -28.666 -36.333 -51.999 -43l-42 -6c-33.333 0 -59.666 10 -78.999 30
s-29 48.667 -29 86h66zM-212.002 924h-74l44 112h114z" />
    <glyph glyph-name="Ecircumflex" unicode="&#xca;" 
d="M-270 886c0 -15.333 3.33105 -27.5 9.99805 -36.5s17.334 -13.5 32.001 -13.5c15.333 0 26.166 4.33301 32.499 13s9.5 21 9.5 37h66c0 -26 -4.66699 -48.333 -14 -67c-11.333 -22 -28.666 -36.333 -51.999 -43l-42 -6c-33.333 0 -59.666 10 -78.999 30
s-29 48.667 -29 86h66z" />
    <glyph glyph-name="Edieresis" unicode="&#xcb;" 
d="M-270 886c0 -15.333 3.33105 -27.5 9.99805 -36.5s17.334 -13.5 32.001 -13.5c15.333 0 26.166 4.33301 32.499 13s9.5 21 9.5 37h66c0 -26 -4.66699 -48.333 -14 -67c-11.333 -22 -28.666 -36.333 -51.999 -43l-42 -6c-33.333 0 -59.666 10 -78.999 30
s-29 48.667 -29 86h66zM-298.002 -166v112h130v-112h-130z" />
    <glyph glyph-name="Igrave" unicode="&#xcc;" horiz-adv-x="234" 
d="M36 2v738h148v-738h-148zM92 800l-82 112h110l42 -112h-70z" />
    <glyph glyph-name="Iacute" unicode="&#xcd;" horiz-adv-x="234" 
d="M36 2v738h148v-738h-148zM130 800h-74l44 112h114z" />
    <glyph glyph-name="Icircumflex" unicode="&#xce;" horiz-adv-x="454" 
d="M146 2l0.000976562 280.002l-116 458h150l32 -170c2.66699 -14.667 6 -31.834 10 -51.501s7.33301 -41.834 10 -66.501h6c1.33301 16 5.16602 39 11.499 69s9.83301 46.333 10.5 49l26 170h140l-124 -458v-280h-156zM156.001 -155.998v112h130v-112h-130z" />
    <glyph glyph-name="Idieresis" unicode="&#xcf;" 
d="M-294 -164v112h130v-112h-130z" />
    <glyph glyph-name="Eth" unicode="&#xd0;" horiz-adv-x="227" 
 />
    <glyph glyph-name="Ntilde" unicode="&#xd1;" horiz-adv-x="476" 
d="M258 740c64 0 108.667 -14.333 134 -43s38 -75 38 -139v-374c0 -64 -13.667 -110.333 -41 -139s-74.333 -43 -141 -43h-170v366h-42v94h42v278h180zM222 368l-0.000976562 -262c20.667 0 35.334 2 44.001 6c13.333 6 20 18 20 36v448c0 20.667 -4.5 33.167 -13.5 37.5
s-25.833 6.5 -50.5 6.5v-178h42v-94h-42z" />
    <glyph glyph-name="Ograve" unicode="&#xd2;" horiz-adv-x="234" 
d="M36 2v738h148v-738h-148zM40 -156v112h130v-112h-130z" />
    <glyph glyph-name="Oacute" unicode="&#xd3;" horiz-adv-x="234" 
d="M36 2v738h148v-738h-148zM242 910l-0.000976562 -6.00098c0 -27.333 -7.16699 -50.166 -21.5 -68.499s-33.166 -27.5 -56.499 -27.5c-7.33301 0 -14.666 1 -21.999 3l-26.5 10c-7 2.66699 -14.5 6 -22.5 10c-12 4.66699 -21 7 -27 7
c-6.66699 0 -12.334 -2.33301 -17.001 -7s-7 -12.334 -7 -23.001h-52c0 30 6.16699 54.167 18.5 72.5s30.166 27.5 53.499 27.5c12.667 0 26 -2 40 -6c15.333 -7.33301 28.333 -13.166 39 -17.499s19 -6.5 25 -6.5c6.66699 0 12.334 2.66699 17.001 8s7 13.333 7 24h52z" />
    <glyph glyph-name="Ocircumflex" unicode="&#xd4;" horiz-adv-x="454" 
d="M192 614l-0.000976562 -480c0 -12 2.66699 -21.667 8 -29s11.333 -11 18 -11s13.334 4 20.001 12s10 17.333 10 28v480c0 12 -2.66699 21 -8 27s-12 9 -20 9c-18.667 0 -28 -12 -28 -36zM387.999 670c5.33301 -12 9.33398 -27.666 12.001 -46.999s4 -38.333 4 -57v-390
c0 -65.333 -12.333 -112.333 -37 -141c-28 -32.667 -77 -49 -147 -49c-68.667 0 -117.334 16.333 -146.001 49c-25.333 29.333 -38 76.333 -38 141v390c0 64.667 12.667 111.667 38 141c28 32.667 76.667 49 146 49c66 0 113.333 -15.333 142 -46c8 4 15.5 11.5 22.5 22.5
s10.5 24.167 10.5 39.5v7h-69v75h120v-64c0 -34 -5.5 -61.333 -16.5 -82s-24.833 -33.334 -41.5 -38.001z" />
    <glyph glyph-name="Otilde" unicode="&#xd5;" 
d="M-92 910l2 -6c0 -27.333 -7.16699 -50.166 -21.5 -68.499s-33.166 -27.5 -56.499 -27.5c-8 0 -17.667 1.66699 -29 5c-1.33301 0.666992 -6.83301 2.83398 -16.5 6.50098s-19.334 7.66699 -29.001 12s-17.5 6.5 -23.5 6.5c-7.33301 0 -13.5 -2.33301 -18.5 -7
s-7.5 -12.334 -7.5 -23.001h-52c0 30 6.5 54.167 19.5 72.5s31.167 27.5 54.5 27.5c11.333 0 24 -2 38 -6c2 -0.666992 11.5 -4.83398 28.5 -12.501s29.5 -11.5 37.5 -11.5c14.667 0 22 10.667 22 32h52z" />
    <glyph glyph-name="Odieresis" unicode="&#xd6;" horiz-adv-x="430" 
d="M380 176c0 -65.333 -11.667 -112.333 -35 -141c-26.667 -32.667 -72.334 -49 -137.001 -49c-64 0 -109.333 16 -136 48c-24 29.333 -36 76.666 -36 141.999v564h146v-606c0 -12.667 2.5 -22.5 7.5 -29.5s11.167 -10.5 18.5 -10.5c6 0 11.833 3.66699 17.5 11
s8.5 17 8.5 29v606h146v-19c6.66699 3.33301 10.834 8 12.501 14s2.5 18.333 2.5 37v7h-69v75h120v-64c0 -73.333 -21.667 -115.666 -65 -126.999z" />
    <glyph glyph-name="multiply" unicode="&#xd7;" horiz-adv-x="227" 
 />
    <glyph glyph-name="Oslash" unicode="&#xd8;" 
d="M-262 790l-82 112h110l42 -112h-70z" />
    <glyph glyph-name="Ugrave" unicode="&#xd9;" 
d="M-214 788h-74l44 112h114z" />
    <glyph glyph-name="Uacute" unicode="&#xda;" 
d="M-270 886c0 -15.333 3.33105 -27.5 9.99805 -36.5s17.334 -13.5 32.001 -13.5c15.333 0 26.166 4.33301 32.499 13s9.5 21 9.5 37h66c0 -26 -4.66699 -48.333 -14 -67c-11.333 -22 -28.666 -36.333 -51.999 -43l-42 -6c-33.333 0 -59.666 10 -78.999 30
s-29 48.667 -29 86h66zM-258.002 908l0.000976562 26c0 10 1 17 3 21s11.333 16 28 36c5.33301 5.33301 9 10.333 11 15s3 10 3 16v22c0 11.333 -4.66699 17 -14 17c-5.33301 0 -10.166 -1.83301 -14.499 -5.5s-6.5 -7.5 -6.5 -11.5v-30h-64v27c0 17.333 6.66699 31 20 41
s31.666 16 54.999 18h13c20 0 38.167 -3.33301 54.5 -10s26.166 -17 29.499 -31l2 -30c0 -12 -0.5 -20.667 -1.5 -26s-3 -10.5 -6 -15.5s-12.167 -15.167 -27.5 -30.5c-12 -12 -18 -22.333 -18 -31v-18h-67z" />
    <glyph glyph-name="Ucircumflex" unicode="&#xdb;" 
d="M-253 776l0.000976562 26c0 10 1 17 3 21s11.333 16 28 36c5.33301 5.33301 9 10.333 11 15s3 10 3 16v22c0 11.333 -4.66699 17 -14 17c-5.33301 0 -10.166 -1.83301 -14.499 -5.5s-6.5 -7.5 -6.5 -11.5v-30h-64v27c0 17.333 6.66699 31 20 41s31.666 16 54.999 18h13
c20 0 38.167 -3.33301 54.5 -10s26.166 -17 29.499 -31l2 -30c0 -12 -0.5 -20.667 -1.5 -26s-3 -10.5 -6 -15.5s-12.167 -15.167 -27.5 -30.5c-12 -12 -18 -22.333 -18 -31v-18h-67z" />
    <glyph glyph-name="Udieresis" unicode="&#xdc;" 
d="M-270 886c0 -15.333 3.33105 -27.5 9.99805 -36.5s17.334 -13.5 32.001 -13.5c15.333 0 26.166 4.33301 32.499 13s9.5 21 9.5 37h66c0 -26 -4.66699 -48.333 -14 -67c-11.333 -22 -28.666 -36.333 -51.999 -43l-42 -6c-33.333 0 -59.666 10 -78.999 30
s-29 48.667 -29 86h66zM-26.002 1032l2 -6c0 -27.333 -7.16699 -50.166 -21.5 -68.499s-33.166 -27.5 -56.499 -27.5c-8 0 -17.667 1.66699 -29 5c-1.33301 0.666992 -6.83301 2.83398 -16.5 6.50098s-19.334 7.66699 -29.001 12s-17.5 6.5 -23.5 6.5
c-7.33301 0 -13.5 -2.33301 -18.5 -7s-7.5 -12.334 -7.5 -23.001h-52c0 30 6.5 54.167 19.5 72.5s31.167 27.5 54.5 27.5c11.333 0 24 -2 38 -6c2 -0.666992 11.5 -4.83398 28.5 -12.501s29.5 -11.5 37.5 -11.5c14.667 0 22 10.667 22 32h52z" />
    <glyph glyph-name="Yacute" unicode="&#xdd;" horiz-adv-x="488" 
d="M270 2c-14 -4.66699 -28.502 -8.16504 -43.502 -10.498s-29.5 -3.5 -43.5 -3.5c-14.667 0 -26.334 0.666992 -35.001 2s-20.667 4 -36 8c-37.333 9.33301 -63.666 30.333 -78.999 63c-11.333 24.667 -17 60 -17 106l2 376c0 53.333 7 92.666 21 117.999
c12 22 30.333 38.667 55 50c28.667 10 56.334 15 83.001 15c16 0 31.833 -1.33301 47.5 -4s30.834 -6.33398 45.501 -11.001h200v-101h-124v-163h123v-103h-123v-236h124v-106h-200zM158.998 589.002v-461c0 -23.333 8 -35 24 -35s24 11.667 24 35v461
c0 23.333 -8 35 -24 35c-6 0 -11.5 -3.16699 -16.5 -9.5s-7.5 -14.833 -7.5 -25.5z" />
    <glyph glyph-name="Thorn" unicode="&#xde;" horiz-adv-x="373" 
d="M14 543c0 41.333 4.33594 73.6641 13.0029 96.9971c12 32.667 34 56.334 66 71.001c25.333 10 51.333 15 78 15c31.333 0 61.666 -5.66699 90.999 -17l29 80h55l-35 -112c14 -16 23 -34.833 27 -56.5s6 -47.5 6 -77.5v-376c0 -58 -8.66699 -99.667 -26 -125
c-14.667 -21.333 -35.834 -35.666 -63.501 -42.999s-55.5 -11 -83.5 -11c-30.667 0 -56.334 4.66699 -77.001 14l-23 -75h-59l37 106c-14 19.333 -23.333 39.333 -28 60s-7 45.334 -7 74.001v376zM211.003 544.998v32c0 10.667 -0.833008 19.5 -2.5 26.5
s-5.5 12.5 -11.5 16.5c-4 4 -10.667 6 -20 6c-18 0 -27 -12.333 -27 -37v-260l11 47zM150.003 184.998l-1.99805 -43c0 -14 2 -25.667 6 -35s10.333 -14 19 -14l6 -2c21.333 0 32 12.333 32 37v278c-4.66699 -13.333 -7.83398 -23.333 -9.50098 -30
s-3.83398 -16 -6.50098 -28z" />
    <glyph glyph-name="germandbls" unicode="&#xdf;" horiz-adv-x="330" 
d="M138 2l-126.002 -0.000976562v579c0 38.667 7.83301 70 23.5 94s41.834 39 78.501 45l45 4c36.667 0 67.667 -7.66699 93 -23c29.333 -18 47 -44.333 53 -79c1.33301 -8.66699 2 -18 2 -28v-29v-26v-26c-1.33301 -7.33301 -2 -12.333 -2 -15c-4 -48 -29.667 -77 -77 -87
v-4c31.333 -6 53 -20 65 -42c9.33301 -17.333 14 -44 14 -80v-165c0 -52.667 -12.333 -87 -37 -103c-18 -11.333 -53.667 -17 -107 -17l-7 2v87c10 0 17 3 21 9s6 14.667 6 26v201c0 22 -9 33 -27 33v87c10 0 17 3 21 9s6 14.667 6 26v120c0 24 -8 36 -24 36
c-5.33301 0 -10.166 -3.16699 -14.499 -9.5s-6.5 -15.166 -6.5 -26.499v-598z" />
    <glyph glyph-name="agrave" unicode="&#xe0;" 
d="M-244 626h-80l76 112h100l76 -112h-80l-46 54zM-88 724l-82 112h110l42 -112h-70z" />
    <glyph glyph-name="aacute" unicode="&#xe1;" 
d="M-244 626h-80l76 112h100l76 -112h-80l-46 54zM-16 702h-74l44 112h114z" />
    <glyph glyph-name="acircumflex" unicode="&#xe2;" 
d="M-244 626h-80l76 112h100l76 -112h-80l-46 54z" />
    <glyph glyph-name="atilde" unicode="&#xe3;" 
d="M-244 626h-80l76 112h100l76 -112h-80l-46 54zM-72 868l2 -6c0 -27.333 -7.16699 -50.166 -21.5 -68.499s-33.166 -27.5 -56.499 -27.5c-8 0 -17.667 1.66699 -29 5c-1.33301 0.666992 -6.83301 2.83398 -16.5 6.50098s-19.334 7.66699 -29.001 12s-17.5 6.5 -23.5 6.5
c-7.33301 0 -13.5 -2.33301 -18.5 -7s-7.5 -12.334 -7.5 -23.001h-52c0 30 6.5 54.167 19.5 72.5s31.167 27.5 54.5 27.5c11.333 0 24 -2 38 -6c2 -0.666992 11.5 -4.83398 28.5 -12.501s29.5 -11.5 37.5 -11.5c14.667 0 22 10.667 22 32h52z" />
    <glyph glyph-name="adieresis" unicode="&#xe4;" 
d="M-244 626h-80l76 112h100l76 -112h-80l-46 54zM-278 -196v112h130v-112h-130z" />
    <glyph glyph-name="aring" unicode="&#xe5;" 
d="M-244 642h-80l76 112h100l76 -112h-80l-46 54zM-88 708l0.000976562 26c0 10 1 17 3 21s11.333 16 28 36c5.33301 5.33301 9 10.333 11 15s3 10 3 16v22c0 11.333 -4.66699 17 -14 17c-5.33301 0 -10.166 -1.83301 -14.499 -5.5s-6.5 -7.5 -6.5 -11.5v-30h-64v27
c0 17.333 6.66699 31 20 41s31.666 16 54.999 18h13c20 0 38.167 -3.33301 54.5 -10s26.166 -17 29.499 -31l2 -30c0 -12 -0.5 -20.667 -1.5 -26s-3 -10.5 -6 -15.5s-12.167 -15.167 -27.5 -30.5c-12 -12 -18 -22.333 -18 -31v-18h-67z" />
    <glyph glyph-name="ae" unicode="&#xe6;" horiz-adv-x="210" 
d="M36 2v590h130v-590h-130zM69 625l0.000976562 26c0 10 1 17 3 21s11.333 16 28 36c5.33301 5.33301 9 10.333 11 15s3 10 3 16v22c0 11.333 -4.66699 17 -14 17c-5.33301 0 -10.166 -1.83301 -14.499 -5.5s-6.5 -7.5 -6.5 -11.5v-30h-64v27c0 17.333 6.66699 31 20 41
s31.666 16 54.999 18h13c20 0 38.167 -3.33301 54.5 -10s26.166 -17 29.499 -31l2 -30c0 -12 -0.5 -20.667 -1.5 -26s-3 -10.5 -6 -15.5s-12.167 -15.167 -27.5 -30.5c-12 -12 -18 -22.333 -18 -31v-18h-67z" />
    <glyph glyph-name="ccedilla" unicode="&#xe7;" horiz-adv-x="227" 
 />
    <glyph glyph-name="egrave" unicode="&#xe8;" 
d="M-240 746c0 -15.333 3.33105 -27.5 9.99805 -36.5s17.334 -13.5 32.001 -13.5c15.333 0 26.166 4.33301 32.499 13s9.5 21 9.5 37h66c0 -26 -4.66699 -48.333 -14 -67c-11.333 -22 -28.666 -36.333 -51.999 -43l-42 -6c-33.333 0 -59.666 10 -78.999 30
s-29 48.667 -29 86h66zM-212.002 784l-82 112h110l42 -112h-70z" />
    <glyph glyph-name="eacute" unicode="&#xe9;" 
d="M-240 746c0 -15.333 3.33105 -27.5 9.99805 -36.5s17.334 -13.5 32.001 -13.5c15.333 0 26.166 4.33301 32.499 13s9.5 21 9.5 37h66c0 -26 -4.66699 -48.333 -14 -67c-11.333 -22 -28.666 -36.333 -51.999 -43l-42 -6c-33.333 0 -59.666 10 -78.999 30
s-29 48.667 -29 86h66zM-176.002 780h-74l44 112h114z" />
    <glyph glyph-name="ecircumflex" unicode="&#xea;" 
d="M-240 746c0 -15.333 3.33105 -27.5 9.99805 -36.5s17.334 -13.5 32.001 -13.5c15.333 0 26.166 4.33301 32.499 13s9.5 21 9.5 37h66c0 -26 -4.66699 -48.333 -14 -67c-11.333 -22 -28.666 -36.333 -51.999 -43l-42 -6c-33.333 0 -59.666 10 -78.999 30
s-29 48.667 -29 86h66z" />
    <glyph glyph-name="edieresis" unicode="&#xeb;" 
d="M-240 746c0 -15.333 3.33105 -27.5 9.99805 -36.5s17.334 -13.5 32.001 -13.5c15.333 0 26.166 4.33301 32.499 13s9.5 21 9.5 37h66c0 -26 -4.66699 -48.333 -14 -67c-11.333 -22 -28.666 -36.333 -51.999 -43l-42 -6c-33.333 0 -59.666 10 -78.999 30
s-29 48.667 -29 86h66zM-270.002 -178v112h130v-112h-130z" />
    <glyph glyph-name="igrave" unicode="&#xec;" horiz-adv-x="210" 
d="M36 2v590h130v-590h-130zM84 658l-82 112h110l42 -112h-70z" />
    <glyph glyph-name="iacute" unicode="&#xed;" horiz-adv-x="210" 
d="M36 2v590h130v-590h-130zM112 656h-74l44 112h114z" />
    <glyph glyph-name="icircumflex" unicode="&#xee;" horiz-adv-x="408" 
d="M274 -2c-6.66699 -45.333 -17 -76.667 -31 -94c-18 -22.667 -48.333 -34 -91 -34h-110v96h50c17.333 0 26 7.33301 26 22l-2 38l-84 566h132l24 -296l6 -146h4l14 158l30 284h122zM292 -172.001v112h130v-112h-130z" />
    <glyph glyph-name="idieresis" unicode="&#xef;" 
d="M-270 -164v112h130v-112h-130z" />
    <glyph glyph-name="eth" unicode="&#xf0;" horiz-adv-x="227" 
 />
    <glyph glyph-name="ntilde" unicode="&#xf1;" horiz-adv-x="396" 
d="M166 132c0 -11.333 2.16797 -20.5 6.50098 -27.5s9.5 -10.5 15.5 -10.5c5.33301 0 10.666 3.66699 15.999 11s8 16.333 8 27v328c0 22.667 -8 34 -24 34c-14.667 0 -22 -11.333 -22 -34v-328zM342.001 2l-128.001 0.000976562v52
c-10.667 -22.667 -23.167 -39.334 -37.5 -50.001s-33.166 -16 -56.499 -16c-28.667 0 -50.167 8.16699 -64.5 24.5s-21.5 38.166 -21.5 65.499l2 8v416l-2 6c0 28.667 7.16699 51.834 21.5 69.501s35.833 26.5 64.5 26.5c40.667 0 70.667 -20.667 90 -62l2 98h-70v60h70v40
h130v-40h34v-60h-34v-638z" />
    <glyph glyph-name="ograve" unicode="&#xf2;" horiz-adv-x="210" 
d="M36 2v590h130v-590h-130zM36 -164v112h130v-112h-130zM36 628v112h130v-112h-130z" />
    <glyph glyph-name="oacute" unicode="&#xf3;" horiz-adv-x="210" 
d="M36 2v590h130v-590h-130zM230 750l-0.000976562 -6.00098c0 -27.333 -7.16699 -50.166 -21.5 -68.499s-33.166 -27.5 -56.499 -27.5c-7.33301 0 -14.666 1 -21.999 3l-26.5 10c-7 2.66699 -14.5 6 -22.5 10c-12 4.66699 -21 7 -27 7
c-6.66699 0 -12.334 -2.33301 -17.001 -7s-7 -12.334 -7 -23.001h-52c0 30 6.16699 54.167 18.5 72.5s30.166 27.5 53.499 27.5c12.667 0 26 -2 40 -6c15.333 -7.33301 28.333 -13.166 39 -17.499s19 -6.5 25 -6.5c6.66699 0 12.334 2.66699 17.001 8s7 13.333 7 24h52z" />
    <glyph glyph-name="ocircumflex" unicode="&#xf4;" horiz-adv-x="379" 
d="M170 478v-358c0 -24 7.33301 -36 22 -36c5.33301 0 11 3.5 17 10.5s9 15.5 9 25.5v358c0 24 -8 36 -24 36s-24 -12 -24 -36zM334 533c6 -8.66699 10.168 -18.1709 12.501 -28.5039s3.5 -22.166 3.5 -35.499v-31v-282c0 -57.333 -10.333 -98.666 -31 -123.999
c-24 -29.333 -65.667 -44 -125 -44c-60 0 -102 14.333 -126 43c-21.333 25.333 -32 67 -32 125v282c0 58.667 10.333 100.334 31 125.001c24 28.667 66.333 43 127 43c52 0 90 -10 114 -30c7.33301 3.33301 12.5 8.5 15.5 15.5s4.5 18.833 4.5 35.5v7h-69v70h120v-59
c0 -34.667 -3.83301 -60.667 -11.5 -78s-18.834 -28.666 -33.501 -33.999z" />
    <glyph glyph-name="otilde" unicode="&#xf5;" 
d="M-78 764l2 -6c0 -27.333 -7.16699 -50.166 -21.5 -68.499s-33.166 -27.5 -56.499 -27.5c-8 0 -17.667 1.66699 -29 5c-1.33301 0.666992 -6.83301 2.83398 -16.5 6.50098s-19.334 7.66699 -29.001 12s-17.5 6.5 -23.5 6.5c-7.33301 0 -13.5 -2.33301 -18.5 -7
s-7.5 -12.334 -7.5 -23.001h-52c0 30 6.5 54.167 19.5 72.5s31.167 27.5 54.5 27.5c11.333 0 24 -2 38 -6c2 -0.666992 11.5 -4.83398 28.5 -12.501s29.5 -11.5 37.5 -11.5c14.667 0 22 10.667 22 32h52z" />
    <glyph glyph-name="odieresis" unicode="&#xf6;" horiz-adv-x="396" 
d="M344 520v-518h-128v50h-4c-10.667 -18.667 -23.5 -33.334 -38.5 -44.001s-32.833 -16 -53.5 -16c-29.333 0 -50.666 8.83301 -63.999 26.5s-20 42.167 -20 73.5v500h130v-458c0 -10 2.33301 -18.5 7 -25.5s9.66699 -10.5 15 -10.5s10.666 3.5 15.999 10.5s8 15.5 8 25.5
v458h132v-14c6 3.33301 9.83301 8 11.5 14s2.5 18.333 2.5 37v7h-69v67h120v-56c0 -73.333 -21.667 -115.666 -65 -126.999z" />
    <glyph glyph-name="divide" unicode="&#xf7;" horiz-adv-x="227" 
 />
    <glyph glyph-name="oslash" unicode="&#xf8;" 
d="M-216 648l-82 112h110l42 -112h-70z" />
    <glyph glyph-name="ugrave" unicode="&#xf9;" 
d="M-166 646h-74l44 112h114z" />
    <glyph glyph-name="uacute" unicode="&#xfa;" 
d="M-240 746c0 -15.333 3.33105 -27.5 9.99805 -36.5s17.334 -13.5 32.001 -13.5c15.333 0 26.166 4.33301 32.499 13s9.5 21 9.5 37h66c0 -26 -4.66699 -48.333 -14 -67c-11.333 -22 -28.666 -36.333 -51.999 -43l-42 -6c-33.333 0 -59.666 10 -78.999 30
s-29 48.667 -29 86h66zM-230.002 762l0.000976562 26c0 10 1 17 3 21s11.333 16 28 36c5.33301 5.33301 9 10.333 11 15s3 10 3 16v22c0 11.333 -4.66699 17 -14 17c-5.33301 0 -10.166 -1.83301 -14.499 -5.5s-6.5 -7.5 -6.5 -11.5v-30h-64v27c0 17.333 6.66699 31 20 41
s31.666 16 54.999 18h13c20 0 38.167 -3.33301 54.5 -10s26.166 -17 29.499 -31l2 -30c0 -12 -0.5 -20.667 -1.5 -26s-3 -10.5 -6 -15.5s-12.167 -15.167 -27.5 -30.5c-12 -12 -18 -22.333 -18 -31v-18h-67z" />
    <glyph glyph-name="ucircumflex" unicode="&#xfb;" 
d="M-236 638l0.000976562 26c0 10 1 17 3 21s11.333 16 28 36c5.33301 5.33301 9 10.333 11 15s3 10 3 16v22c0 11.333 -4.66699 17 -14 17c-5.33301 0 -10.166 -1.83301 -14.499 -5.5s-6.5 -7.5 -6.5 -11.5v-30h-64v27c0 17.333 6.66699 31 20 41s31.666 16 54.999 18h13
c20 0 38.167 -3.33301 54.5 -10s26.166 -17 29.499 -31l2 -30c0 -12 -0.5 -20.667 -1.5 -26s-3 -10.5 -6 -15.5s-12.167 -15.167 -27.5 -30.5c-12 -12 -18 -22.333 -18 -31v-18h-67z" />
    <glyph glyph-name="udieresis" unicode="&#xfc;" 
d="M-240 746c0 -15.333 3.33105 -27.5 9.99805 -36.5s17.334 -13.5 32.001 -13.5c15.333 0 26.166 4.33301 32.499 13s9.5 21 9.5 37h66c0 -26 -4.66699 -48.333 -14 -67c-11.333 -22 -28.666 -36.333 -51.999 -43l-42 -6c-33.333 0 -59.666 10 -78.999 30
s-29 48.667 -29 86h66zM-4.00195 888l2 -6c0 -27.333 -7.16699 -50.166 -21.5 -68.499s-33.166 -27.5 -56.499 -27.5c-8 0 -17.667 1.66699 -29 5c-1.33301 0.666992 -6.83301 2.83398 -16.5 6.50098s-19.334 7.66699 -29.001 12s-17.5 6.5 -23.5 6.5
c-7.33301 0 -13.5 -2.33301 -18.5 -7s-7.5 -12.334 -7.5 -23.001h-52c0 30 6.5 54.167 19.5 72.5s31.167 27.5 54.5 27.5c11.333 0 24 -2 38 -6c2 -0.666992 11.5 -4.83398 28.5 -12.501s29.5 -11.5 37.5 -11.5c14.667 0 22 10.667 22 32h52z" />
    <glyph glyph-name="yacute" unicode="&#xfd;" horiz-adv-x="507" 
d="M142 459l-0.000976562 -345c0 -10 2.33301 -18.333 7 -25s9.33398 -10 14.001 -10c5.33301 0 10.666 3.5 15.999 10.5s8 15.167 8 24.5v345c0 23.333 -8 35 -24 35c-5.33301 0 -10.166 -3.16699 -14.499 -9.5s-6.5 -14.833 -6.5 -25.5zM308.999 114
c0 -10 2.33496 -18.333 7.00195 -25s9.66699 -10 15 -10s10.5 3.33301 15.5 10s7.5 15 7.5 25v108h126v-106c0 -40.667 -14.333 -72.667 -43 -96c-26 -21.333 -58 -32 -96 -32c-34 0 -65 8 -93 24c-30.667 -14.667 -62 -22 -94 -22c-10 0 -20 1 -30 3s-18 3.66699 -24 5
c-34 9.33301 -57.333 28.333 -70 57c-9.33301 21.333 -14 53 -14 95v269c0 50 6 85.667 18 107c10 18 27 32.333 51 43c11.333 4.66699 23.166 8.16699 35.499 10.5s24.166 3.5 35.499 3.5c29.333 0 60 -8 92 -24c25.333 14.667 54.333 22 87 22c38.667 0 71.667 -10 99 -30
c30.667 -22.667 46 -52.667 46 -90v-195h-171v-152zM309.001 459v-109h45v109c0 11.333 -2.33301 20 -7 26s-10 9 -16 9c-14.667 0 -22 -11.667 -22 -35z" />
    <glyph glyph-name="thorn" unicode="&#xfe;" horiz-adv-x="330" 
d="M12 419c0 50 6 85.665 18 106.998c10 18 27 32.333 51 43c23.333 8 48.333 12 75 12c28 0 52.667 -4 74 -12l28 79h55l-37 -105c12.667 -15.333 21 -33 25 -53s6 -43.667 6 -71v-269c0 -41.333 -4.66699 -72.666 -14 -93.999
c-12.667 -29.333 -36.334 -48.666 -71.001 -57.999c-19.333 -4 -39.666 -6 -60.999 -6c-22.667 0 -46.667 3.33301 -72 10l-24 -75h-57l37 99c-14 16 -23 33.667 -27 53s-6 43 -6 71v269zM187 410.998v35.999c0 9.33301 -0.833008 18.166 -2.5 26.499
s-4.16699 13.833 -7.5 16.5l-16 4c-7.33301 0 -14 -3.66699 -20 -11s-9 -15.333 -9 -24v-205c2.66699 8.66699 5.66699 17.834 9 27.501s7 18.834 11 27.501zM132 160.997l-2 -32.999c0 -12 1.5 -22.333 4.5 -31s8.16699 -13.334 15.5 -14.001l9 -2c18.667 0 28 11 28 33
v207l-5 -20.5c-1.33301 -5.66699 -4.33301 -14.5 -9 -26.5z" />
    <glyph glyph-name="ydieresis" unicode="&#xff;" horiz-adv-x="408" 
d="M274 -2c-6.66699 -45.333 -17 -76.667 -31 -94c-18 -22.667 -48.333 -34 -91 -34h-110v96h50c17.333 0 26 7.33301 26 22l-2 38l-84 566h132l24 -296l6 -146h4l14 158l30 284h122zM292 -172.001v112h130v-112h-130z" />
    <glyph glyph-name="OE" unicode="&#x152;" 
d="M-266 800v38c0 9.33301 3 18 9 26s15.667 16.667 29 26c7.33301 4 12.5 7.83301 15.5 11.5s4.5 7.83398 4.5 12.501l-2 12l2 6c0 8 -6 12 -18 12c-13.333 0 -20 -3.33301 -20 -10l-2 -22h-86v16c0 14 8.5 25.167 25.5 33.5s39.833 12.5 68.5 12.5h16
c26.667 0 50.167 -2.66699 70.5 -8s32.833 -13.333 37.5 -24c0 -0.666992 0.666992 -4 2 -10s2 -10.667 2 -14c0 -13.333 -3.33301 -23.333 -10 -30c-4 -4 -18 -13.667 -42 -29c-20 -12.667 -30 -22.334 -30 -29.001v-30h-72z" />
    <glyph glyph-name="oe" unicode="&#x153;" 
d="M-240 650v38c0 9.33301 3 18 9 26s15.667 16.667 29 26c7.33301 4 12.5 7.83301 15.5 11.5s4.5 7.83398 4.5 12.501l-2 12l2 6c0 8 -6 12 -18 12c-13.333 0 -20 -3.33301 -20 -10l-2 -22h-86v16c0 14 8.5 25.167 25.5 33.5s39.833 12.5 68.5 12.5h16
c26.667 0 50.167 -2.66699 70.5 -8s32.833 -13.333 37.5 -24c0 -0.666992 0.666992 -4 2 -10s2 -10.667 2 -14c0 -13.333 -3.33301 -23.333 -10 -30c-4 -4 -18 -13.667 -42 -29c-20 -12.667 -30 -22.334 -30 -29.001v-30h-72z" />
    <glyph glyph-name="Scaron" unicode="&#x160;" horiz-adv-x="227" 
 />
    <glyph glyph-name="scaron" unicode="&#x161;" horiz-adv-x="227" 
 />
    <glyph glyph-name="Ydieresis" unicode="&#x178;" horiz-adv-x="454" 
d="M146 2l0.000976562 280.002l-116 458h150l32 -170c2.66699 -14.667 6 -31.834 10 -51.501s7.33301 -41.834 10 -66.501h6c1.33301 16 5.16602 39 11.499 69s9.83301 46.333 10.5 49l26 170h140l-124 -458v-280h-156zM156.001 -159.998v112h130v-112h-130z" />
    <glyph glyph-name="florin" unicode="&#x192;" horiz-adv-x="227" 
 />
    <glyph glyph-name="circumflex" unicode="&#x2c6;" horiz-adv-x="227" 
 />
    <glyph glyph-name="tilde" unicode="&#x2dc;" horiz-adv-x="227" 
 />
    <glyph glyph-name="endash" unicode="&#x2013;" horiz-adv-x="546" 
d="M0 276v70h500v-70h-500z" />
    <glyph glyph-name="emdash" unicode="&#x2014;" horiz-adv-x="1047" 
d="M0 276v70h1000v-70h-1000z" />
    <glyph glyph-name="quoteleft" unicode="&#x2018;" horiz-adv-x="246" 
d="M48 478l34 262h122l-68 -262h-88z" />
    <glyph glyph-name="quoteright" unicode="&#x2019;" horiz-adv-x="246" 
d="M48 478l34 262h122l-68 -262h-88z" />
    <glyph glyph-name="quotesinglbase" unicode="&#x201a;" horiz-adv-x="227" 
 />
    <glyph glyph-name="quotedblleft" unicode="&#x201c;" horiz-adv-x="362" 
d="M48 720h96v-278h-96v278zM210 720h98v-278h-98v278z" />
    <glyph glyph-name="quotedblright" unicode="&#x201d;" horiz-adv-x="362" 
d="M48 720h96v-278h-96v278zM210 720h98v-278h-98v278z" />
    <glyph glyph-name="quotedblbase" unicode="&#x201e;" horiz-adv-x="227" 
 />
    <glyph glyph-name="dagger" unicode="&#x2020;" horiz-adv-x="227" 
 />
    <glyph glyph-name="daggerdbl" unicode="&#x2021;" horiz-adv-x="227" 
 />
    <glyph glyph-name="bullet" unicode="&#x2022;" horiz-adv-x="227" 
 />
    <glyph glyph-name="ellipsis" unicode="&#x2026;" horiz-adv-x="227" 
 />
    <glyph glyph-name="perthousand" unicode="&#x2030;" horiz-adv-x="227" 
 />
    <glyph glyph-name="guilsinglleft" unicode="&#x2039;" horiz-adv-x="684" 
d="M636 598v-108l-446 -182l446 -184v-108l-588 242v100z" />
    <glyph glyph-name="guilsinglright" unicode="&#x203a;" horiz-adv-x="684" 
d="M48 598l588 -240v-100l-588 -242v108l448 184l-448 182v108z" />
    <glyph glyph-name="trademark" unicode="&#x2122;" horiz-adv-x="750" 
d="M719 750v-421h-55v361l-120 -361h-32l-115 361l-2 -361h-55v421h89l99 -297l103 297h88zM280 750v-60h-109v-361h-61v361h-110v60h280z" />
    <glyph glyph-name=".null" horiz-adv-x="0" 
 />
    <glyph glyph-name="nonmarkingreturn" horiz-adv-x="227" 
 />
  </font>
</defs>
</svg>
