<?xml version="1.0" standalone="no"?>
<!DOCTYPE svg PUBLIC "-//W3C//DTD SVG 1.1//EN" "http://www.w3.org/Graphics/SVG/1.1/DTD/svg11.dtd" >
<svg>
<metadata>
Created by FontForge 20090914 at Fri Mar 25 03:03:05 2016
 By www-data
Copyright (c) 1991 VNI All Rights Reserved.
</metadata>
<defs>
<font id="VNI-Awchon-Bold" horiz-adv-x="12" >
  <font-face 
    font-family="VNI-Awchon"
    font-weight="700"
    font-stretch="normal"
    units-per-em="1000"
    panose-1="0 0 0 0 0 0 0 0 0 0"
    ascent="800"
    descent="-200"
    x-height="480"
    cap-height="652.002"
    bbox="-590 -220 1000 1078"
    underline-thickness="40"
    underline-position="-20"
    unicode-range="U+0020-U+2122"
  />
<missing-glyph horiz-adv-x="804" 
d="M50 0v804h704v-804h-704zM704 50v704h-604v-704h604z" />
    <glyph glyph-name=".notdef" horiz-adv-x="804" 
d="M50 0v804h704v-804h-704zM704 50v704h-604v-704h604z" />
    <glyph glyph-name="space" unicode=" " horiz-adv-x="276" 
 />
    <glyph glyph-name="exclam" unicode="!" horiz-adv-x="338" 
d="M120 200l-60 344c0 3.33301 -0.666992 9 -2 17s-2 12.333 -2 13c0 26 6.33301 46.333 19 61c16.667 19.333 45 29 85 29c42 0 71.667 -9 89 -27c14 -14 21 -35.667 21 -65l-2 -28l-58 -344h-90zM72 80c0 24.667 8.5 44.501 25.5 59.501s37.833 22.5 62.5 22.5
c25.333 0 46.666 -7.66699 63.999 -23s26 -35 26 -59c0 -24.667 -8.16699 -45.834 -24.5 -63.501s-38.166 -26.5 -65.499 -26.5c-25.333 0 -46.333 9 -63 27s-25 39 -25 63z" />
    <glyph glyph-name="quotedbl" unicode="&#x22;" horiz-adv-x="552" 
d="M118 614l-2 6.00098c0 22.667 7.33301 40.667 22 54s31.334 20 50.001 20c16 0 30.667 -5.66699 44 -17s20 -26.333 20 -45v-18l-32 -204c0 -18 -4.33301 -34.5 -13 -49.5s-17.667 -22.5 -27 -22.5c-7.33301 0 -14.333 6.16699 -21 18.5s-12.334 30.166 -17.001 53.499z
M292 614.001l-2 8.00195c0 24 6.66699 42.667 20 56s29.333 20 48 20c17.333 0 33.333 -6.33301 48 -19s22 -29 22 -49c0 -10.667 -0.666992 -18.667 -2 -24l-32 -188c-2.66699 -24.667 -7.66699 -43.834 -15 -57.501s-15 -20.5 -23 -20.5c-8.66699 0 -17 7.66699 -25 23
s-13 33.666 -15 54.999z" />
    <glyph glyph-name="numbersign" unicode="#" horiz-adv-x="686" 
d="M228 482v212h88v-212h86v212h88v-212h86v-88h-86v-86h86v-88h-86v-220h-88v220h-86v-220h-88v220h-118v88h118v86h-118v88h118zM402 394h-86v-86h86v86z" />
    <glyph glyph-name="dollar" unicode="$" horiz-adv-x="522" 
d="M26 74v166h184v-54c0 -13.333 4.66699 -25 14 -35s20 -15 32 -15c10 0 18.833 5 26.5 15s11.5 24.333 11.5 43c0 22.667 -15 41.334 -45 56.001c-16 8 -43 16.667 -81 26c-47.333 9.33301 -84 28 -110 56c-29.333 31.333 -44 72.666 -44 123.999c0 48 12.667 88 38 120
c29.333 36.667 72 58 128 64v60h150v-60c26.667 -6 54.167 -14.833 82.5 -26.5s50.833 -24.167 67.5 -37.5v-150h-192v36c0 16.667 -3.16699 29.5 -9.5 38.5s-13.833 13.5 -22.5 13.5s-17.5 -4.83301 -26.5 -14.5s-13.5 -20.167 -13.5 -31.5
c2.66699 -26 16.667 -45.667 42 -59c14.667 -8 36.667 -14.333 66 -19c60.667 -16 102.667 -35.667 126 -59c26.667 -26.667 40 -69 40 -127v-20c0 -50 -12.5 -88.833 -37.5 -116.5s-65.833 -45.5 -122.5 -53.5v-66h-150v66c-28 4 -53.667 10 -77 18
c-31.333 10.667 -57 24.667 -77 42z" />
    <glyph glyph-name="percent" unicode="%" horiz-adv-x="706" 
d="M4 484v97.999c0 28 12 49.667 36 65s54 23 90 23c41.333 0 72.333 -6 93 -18c26 -15.333 39 -40.666 39 -75.999v-162c0 -34 -15 -58.667 -45 -74c-21.333 -10.667 -48.333 -16 -81 -16c-28.667 0 -55 5 -79 15c-35.333 14.667 -53 37.667 -53 69v76zM148 425.999
l-0.00195312 130c0 9.33301 -0.666992 16 -2 20s-4.66602 6 -9.99902 6s-8.66602 -2.5 -9.99902 -7.5s-2 -11.167 -2 -18.5v-130c0 -12 4 -18 12 -18s12 6 12 18zM433.998 79.999v160c0 28 12.333 50 37 66s54.334 24 89.001 24c41.333 0 72 -6 92 -18
c25.333 -15.333 38 -41.333 38 -78v-154c0 -34 -14.667 -58.667 -44 -74c-20.667 -10.667 -47.334 -16 -80.001 -16c-30 0 -56.333 5 -79 15c-35.333 16 -53 41 -53 75zM577.998 83.999v132c0 16 -4 24 -12 24c-4 0 -7 -1.5 -9 -4.5s-3 -9.5 -3 -19.5v-132
c0 -10.667 4 -16 12 -16s12 5.33301 12 16zM163.998 1.99902l240 656h132l-240 -656h-132z" />
    <glyph glyph-name="ampersand" unicode="&#x26;" horiz-adv-x="564" 
d="M106 348c-30 5.33301 -52.665 22 -67.998 50c-12 22 -18 47.333 -18 76l2 28c5.33301 52.667 31 93 77 121c40 24.667 89 37 147 37l38 -2c38 0 78.167 -6.16699 120.5 -18.5s76.166 -27.5 101.499 -45.5v-126h-204c0 18.667 -2.16699 32 -6.5 40s-13.5 12 -27.5 12
c-16 0 -27 -6.33301 -33 -19s-9 -27.667 -9 -45c0 -20 5.66699 -34.333 17 -43s25 -13 41 -13l18 2v30h204v-30h24v-126h-24v-274h-330c-61.333 0 -105 19.667 -131 59c-19.333 29.333 -29 69 -29 119c0 35.333 3.66699 63.333 11 84c13.333 37.333 39.666 65.333 78.999 84
zM302.002 138v137.999h-34c-16 0 -27 -6.66699 -33 -20s-9 -30.666 -9 -51.999c0 -17.333 2.33301 -31.333 7 -42c7.33301 -16 19 -24 35 -24h34z" />
    <glyph glyph-name="quotesingle" unicode="'" horiz-adv-x="276" 
d="M124 514c-22 0 -39.833 7.5 -53.5 22.5s-20.5 32.167 -20.5 51.5c0 18.667 6.66699 35 20 49s31.333 21 54 21c28 0 49.667 -8 65 -24s23 -36.667 23 -62c0 -22 -4.66699 -43.333 -14 -64c-12 -20 -24.333 -37 -37 -51c-15.333 -16.667 -33 -31 -53 -43l-36 30
c16 16 27 27.667 33 35c10.667 13.333 17 25 19 35z" />
    <glyph glyph-name="parenleft" unicode="(" horiz-adv-x="380" 
d="M272 594c-26.667 -59.333 -47.334 -117.665 -62.001 -174.998s-22 -111 -22 -161v-38c0 -49.333 6.66699 -98.333 20 -147s34.666 -102.334 63.999 -161.001l-78 -60c-29.333 29.333 -58.166 67.166 -86.499 113.499s-47.166 85.5 -56.499 117.5s-16.5 62.333 -21.5 91
s-7.5 57.334 -7.5 86.001c0 69.333 15.333 134.666 46 195.999c16 34 34 66.333 54 97c22.667 34.667 46.667 65.667 72 93z" />
    <glyph glyph-name="parenright" unicode=")" horiz-adv-x="380" 
d="M50 594l78 51.999c26.667 -25.333 51 -54.333 73 -87c16 -24 31.667 -50.333 47 -79c36 -78 54 -151.333 54 -220c0 -62 -14 -130 -42 -204c-6.66699 -22.667 -23.334 -56 -50.001 -100c-29.333 -48 -56.666 -84.667 -81.999 -110l-84 66c29.333 48 52 101.5 68 160.5
s24 118.167 24 177.5s-7.16699 118.333 -21.5 177s-35.833 114.334 -64.5 167.001z" />
    <glyph glyph-name="asterisk" unicode="*" horiz-adv-x="420" 
d="M22 496l30 80l108 -38l-6 114h90l-6 -114l112 38l32 -80l-114 -34l70 -92l-70 -52l-66 96l-66 -96l-72 52l66 92z" />
    <glyph glyph-name="plus" unicode="+" horiz-adv-x="604" 
d="M236 316v188h118v-188h198v-118h-198v-198h-118v198h-188v118h188z" />
    <glyph glyph-name="comma" unicode="," horiz-adv-x="276" 
d="M120 2c-24.667 0 -44.168 8.16602 -58.501 24.499s-21.5 34.833 -21.5 55.5s7.16699 39.167 21.5 55.5s33.833 24.5 58.5 24.5c34.667 0 61 -11 79 -33c15.333 -18.667 23 -41.667 23 -69c0 -11.333 -1 -21.333 -3 -30s-5 -18 -9 -28c-30.667 -50 -64.667 -88 -102 -114
l-42 36c22 22 35.833 37.333 41.5 46s9.83398 19.334 12.501 32.001z" />
    <glyph glyph-name="hyphen" unicode="-" horiz-adv-x="276" 
d="M0 336h256v-156h-256v156z" />
    <glyph glyph-name="period" unicode="." horiz-adv-x="276" 
d="M36 80c0 25.333 8.66797 46.333 26.001 63s38 25 62 25c25.333 0 47 -7.66699 65 -23s27 -37 27 -65s-9.5 -50 -28.5 -66s-40.167 -24 -63.5 -24c-22.667 0 -42.334 7.33301 -59.001 22c-19.333 17.333 -29 40 -29 68z" />
    <glyph glyph-name="slash" unicode="/" horiz-adv-x="482" 
d="M244 646h150l-230 -740l-22 -70h-150l234 758z" />
    <glyph glyph-name="zero" unicode="0" horiz-adv-x="542" 
d="M12 200v262c0 80 27.333 136 82 168c38.667 22.667 94.667 34 168 34c64 0 115 -10.333 153 -31c58 -32 87 -87 87 -165v-274c0 -62 -15.667 -109.667 -47 -143c-38.667 -40.667 -103 -61 -193 -61c-84.667 0 -147.5 17.5 -188.5 52.5s-61.5 87.5 -61.5 157.5zM298 200
v268c0 16.667 -3.83301 29.5 -11.5 38.5s-17.834 13.5 -30.501 13.5c-18 0 -29.167 -4.5 -33.5 -13.5s-6.5 -21.833 -6.5 -38.5v-274c0 -21.333 2.66699 -37 8 -47s16 -15 32 -15c16.667 0 27.834 5.33301 33.501 16s8.5 28 8.5 52z" />
    <glyph glyph-name="one" unicode="1" horiz-adv-x="358" 
d="M40 652h228v-484c0 -11.333 1.16699 -20.833 3.5 -28.5s8.5 -14.167 18.5 -19.5v-118h-250v118c10.667 5.33301 17.334 11.5 20.001 18.5s4 16.833 4 29.5v316c0 12.667 -1.33301 23.167 -4 31.5s-9.33398 13.833 -20.001 16.5v120z" />
    <glyph glyph-name="two" unicode="2" horiz-adv-x="564" 
d="M226 420l-198.002 -0.000976562v168c28.667 24 64.334 41.333 107.001 52s91 16 145 16c8.66699 0 24.167 -0.666992 46.5 -2s34.166 -2 35.499 -2c47.333 -4.66699 86 -27 116 -67c28 -37.333 42 -80.333 42 -129c0 -32.667 -7.33301 -64.167 -22 -94.5
s-36 -54.833 -64 -73.5c-11.333 -8 -30.666 -18.667 -57.999 -32l-108 -52c-32 -10.667 -48 -34.667 -48 -72l18 -2c24 0 41.333 3.66699 52 11c16 11.333 24 32.333 24 63h192v-202h-484v166c0 34 6 62.333 18 85c14.667 28.667 40.667 54.334 78 77.001
c10.667 6 47.334 24.333 110.001 55c41.333 20 66 35.667 74 47c8 8 12 20 12 36c0 14 -3.5 26.167 -10.5 36.5s-16.833 15.5 -29.5 15.5c-14 0 -25 -4 -33 -12c-10 -10.667 -15 -26 -15 -46v-42z" />
    <glyph glyph-name="three" unicode="3" horiz-adv-x="542" 
d="M24 594c24 20 58.001 36.667 102.001 50s87.333 20 130 20c70 0 124.333 -10 163 -30c55.333 -28.667 83 -76.667 83 -144c0 -41.333 -5 -71.666 -15 -90.999c-12 -23.333 -35 -40.333 -69 -51c37.333 -18.667 62.666 -44.334 75.999 -77.001
c9.33301 -22.667 14 -53 14 -91c0 -52 -14 -93.333 -42 -124c-40 -44 -108 -66 -204 -66c-42 0 -85.333 6.66699 -130 20s-80.667 30.666 -108 51.999v178h192v-54c0 -17.333 3.66699 -30.333 11 -39s16.333 -13 27 -13l20 4c18.667 10.667 28 30.667 28 60
c0 20 -5.33301 37.333 -16 52c-12.667 17.333 -30 26 -52 26h-80v126h62c30 0 51.167 5.33301 63.5 16s18.5 25.334 18.5 44.001v18c-2 13.333 -7.33301 24 -16 32s-18 12 -28 12s-18.833 -4.16699 -26.5 -12.5s-11.5 -18.833 -11.5 -31.5v-42h-192v156z" />
    <glyph glyph-name="four" unicode="4" horiz-adv-x="542" 
d="M0 312l227.999 339.999h232v-358h42v-138h-42c0 -7.33301 1.83301 -14.666 5.5 -21.999s9.83398 -14 18.501 -20v-112h-262v106c22.667 12.667 34 28.667 34 48h-256v156zM255.999 293.999v132l-90 -132h90z" />
    <glyph glyph-name="five" unicode="5" horiz-adv-x="522" 
d="M14 294v358.001h460v-172h-192c0 17.333 -3.83301 28.333 -11.5 33s-27.834 7 -60.501 7v-82c10 3.33301 22.833 6.16602 38.5 8.49902s31.5 3.5 47.5 3.5c48 0 89.333 -10 124 -30c42.667 -24.667 64 -60.667 64 -108c0 -14.667 0.333008 -26 1 -34
c3.33301 -40 5 -60.667 5 -62c0 -68.667 -13.667 -120.667 -41 -156c-36 -46.667 -97.667 -70 -185 -70h-12c-42 0 -84.667 7 -128 21s-80 33 -110 57v184h196v-58c0 -22 1.83301 -37.833 5.5 -47.5s13.834 -14.5 30.501 -14.5c14.667 2 24.334 6.83301 29.001 14.5
s7 17.5 7 29.5v100c0 13.333 -4.33301 23.666 -13 30.999s-18.334 11 -29.001 11c-8 0 -15 -2.16699 -21 -6.5s-9 -10.166 -9 -17.499h-196z" />
    <glyph glyph-name="six" unicode="6" horiz-adv-x="542" 
d="M18 204l0.00195312 264c0 57.333 12 101 36 131c34.667 43.333 96.667 65 186 65h18c40 0 82.833 -6.5 128.5 -19.5s80.167 -29.833 103.5 -50.5v-144h-198v30c0 12.667 -2.33301 22.5 -7 29.5s-14.334 10.5 -29.001 10.5c-13.333 0 -22.333 -6.16699 -27 -18.5
s-7 -28.833 -7 -49.5v-50c25.333 16 57.333 24 96 24c8 0 16.5 -0.666992 25.5 -2l26.5 -4c49.333 -11.333 83.666 -32.333 102.999 -63s29 -75.667 29 -135c0 -80 -13 -136 -39 -168c-34.667 -42.667 -101.667 -64 -201 -64c-89.333 0 -154 18.667 -194 56
c-34.667 32 -52 78.667 -52 140zM298.002 180v66c0 14 -3.66699 24.833 -11 32.5s-16.333 11.5 -27 11.5s-19.667 -3.66699 -27 -11s-11 -18.333 -11 -33v-66c0 -33.333 12.667 -50 38 -50c10 0 18.833 4.66699 26.5 14s11.5 21.333 11.5 36z" />
    <glyph glyph-name="seven" unicode="7" horiz-adv-x="522" 
d="M20 652h469.999v-126l-196 -524h-220l196 518c-23.333 0 -39.666 -2 -48.999 -6c-18 -8 -27 -23.333 -27 -46v-78h-174v262z" />
    <glyph glyph-name="eight" unicode="8" horiz-adv-x="564" 
d="M118 342c-28.667 11.333 -49.832 28.832 -63.499 52.499s-20.5 50.167 -20.5 79.5v22c0 112 82 168 246 168c75.333 0 134.833 -15 178.5 -45s65.5 -73 65.5 -129v-16c0 -33.333 -8 -61.666 -24 -84.999c-13.333 -19.333 -31.333 -35 -54 -47
c33.333 -14 57.333 -35.667 72 -65c12 -24 18 -51.667 18 -83v-16c0 -68.667 -22.667 -118 -68 -148c-40.667 -26.667 -103.334 -40 -188.001 -40c-76 0 -135.667 13.333 -179 40c-52.667 32.667 -79 83.334 -79 152.001v12c0 42.667 8 75.667 24 99s40 39.666 72 48.999z
M320.002 467.999c0 16 -1.66797 27.3311 -5.00098 33.998c-6 12 -17.667 18 -35 18c-16 0 -27 -5.5 -33 -16.5s-9 -24.833 -9 -41.5c0 -19.333 2.83301 -35.166 8.5 -47.499s16.834 -18.5 33.501 -18.5c14 0 24.167 5.33301 30.5 16s9.5 29.334 9.5 56.001zM320.001 209.997
c0 22.667 -3.16699 40.333 -9.5 53s-16.5 19 -30.5 19c-18 0 -30.333 -9 -37 -27c-3.33301 -9.33301 -5 -24.333 -5 -45c0 -26 1.66699 -44.333 5 -55c6 -19.333 18.333 -29 37 -29c15.333 0 26.333 8.66699 33 26c4.66699 12.667 7 32 7 58z" />
    <glyph glyph-name="nine" unicode="9" horiz-adv-x="542" 
d="M30 200h185.999l6 -38c5.33301 -20 18.666 -30 39.999 -30c16 0 27 11 33 33s9 49 9 81c-17.333 -6 -34.666 -10.833 -51.999 -14.5s-36 -5.5 -56 -5.5l-30 2c-98.667 12.667 -148 70.667 -148 174v78c0 62 19.167 109.167 57.5 141.5s98.5 48.5 180.5 48.5
c82.667 0 142.334 -13.333 179.001 -40c44.667 -32.667 67 -90.667 67 -174v-270c0 -69.333 -23 -120.333 -69 -153c-40 -28.667 -95 -43 -165 -43c-52.667 0 -98.5 5.5 -137.5 16.5s-72.5 27.5 -100.5 49.5v144zM297.999 402v72c0 32 -12.667 48 -38 48s-38 -16 -38 -48
v-72c0 -33.333 12.667 -50 38 -50c10 0 18.833 4.66699 26.5 14s11.5 21.333 11.5 36z" />
    <glyph glyph-name="colon" unicode=":" horiz-adv-x="276" 
d="M36 354c0 26.667 8.66797 48.334 26.001 65.001s38 25 62 25c26 0 47.833 -7.83301 65.5 -23.5s26.5 -37.834 26.5 -66.501c0 -28 -9.5 -50 -28.5 -66s-40.167 -24 -63.5 -24c-22.667 0 -42.334 7.33301 -59.001 22c-19.333 17.333 -29 40 -29 68zM36.001 80
c0 25.333 8.66797 46.333 26.001 63s38 25 62 25c25.333 0 47 -7.66699 65 -23s27 -37 27 -65s-9.5 -50 -28.5 -66s-40.167 -24 -63.5 -24c-22.667 0 -42.334 7.33301 -59.001 22c-19.333 17.333 -29 40 -29 68z" />
    <glyph glyph-name="semicolon" unicode=";" horiz-adv-x="276" 
d="M42 354c0 26.667 8.66797 48.334 26.001 65.001s38 25 62 25c26 0 47.833 -7.83301 65.5 -23.5s26.5 -37.834 26.5 -66.501c0 -28 -9.5 -50 -28.5 -66s-40.167 -24 -63.5 -24c-22.667 0 -42.334 7.33301 -59.001 22c-19.333 17.333 -29 40 -29 68zM120.001 2
c-24.667 0 -44.168 8.16602 -58.501 24.499s-21.5 34.833 -21.5 55.5s7.16699 39.167 21.5 55.5s33.833 24.5 58.5 24.5c34.667 0 61 -11 79 -33c15.333 -18.667 23 -41.667 23 -69c0 -11.333 -1 -21.333 -3 -30s-5 -18 -9 -28c-30.667 -50 -64.667 -88 -102 -114l-42 36
c22 22 35.833 37.333 41.5 46s9.83398 19.334 12.501 32.001z" />
    <glyph glyph-name="less" unicode="&#x3c;" horiz-adv-x="604" 
d="M48 308l504 212v-126l-346 -142l346 -150v-126l-504 222v110z" />
    <glyph glyph-name="equal" unicode="=" horiz-adv-x="584" 
d="M40 418h504v-126h-504v126zM40 220h504v-126h-504v126z" />
    <glyph glyph-name="greater" unicode="&#x3e;" horiz-adv-x="604" 
d="M552 308v-110l-504 -222v126l346 150l-346 142v126z" />
    <glyph glyph-name="question" unicode="?" horiz-adv-x="542" 
d="M24 594c40 24 73.668 40.667 101.001 50c40 13.333 87.667 20 143 20c56.667 0 105.334 -11.667 146.001 -35c53.333 -30.667 82.666 -77 87.999 -139v-16c0 -46 -11.333 -84.333 -34 -115c-14.667 -19.333 -37.334 -39 -68.001 -59l-57 -29
c-23.333 -16.667 -35 -38.334 -35 -65.001l2 -6h-180v94c0 22 8.33301 41.667 25 59c8 8 45.667 32.333 113 73c6.66699 2.66699 13 9.33398 19 20.001s9 22 9 34c0 9.33301 -2.16699 17.666 -6.5 24.999s-11.5 12.333 -21.5 15l-12 2c-11.333 0 -20.833 -3.66699 -28.5 -11
s-11.5 -19.666 -11.5 -36.999v-48h-192v168zM142.001 80c0 23.333 8.16699 42.835 24.5 58.502s36.833 23.5 61.5 23.5c24 0 44.667 -7.33301 62 -22s26 -34.667 26 -60c0 -26.667 -8.66699 -48.334 -26 -65.001s-38 -25 -62 -25c-26 0 -46.833 8.16699 -62.5 24.5
s-23.5 38.166 -23.5 65.499z" />
    <glyph glyph-name="at" unicode="@" horiz-adv-x="768" 
d="M696 380c0 -64 -27.333 -118 -82 -162c-48 -38.667 -98 -58 -150 -58c-41.333 0 -67.333 14.667 -78 44c-22.667 -14 -36.334 -21.667 -41.001 -23c-12.667 -4.66699 -27 -7 -43 -7c-28 0 -50.333 6.66699 -67 20c-19.333 16 -29 40.667 -29 74c0 26 9 47.333 27 64
c14.667 14 33.667 23.333 57 28l88 28v16c0 8.66699 -0.833008 15.167 -2.5 19.5s-6.16699 7.16602 -13.5 8.49902h-6c-7.33301 0 -12.833 -4 -16.5 -12s-5.5 -18.667 -5.5 -32h-112v82c19.333 14.667 41.5 24.667 66.5 30s52.167 8 81.5 8c34.667 0 63.667 -6.66699 87 -20
c30 -17.333 45 -42.666 45 -75.999v-128c0 -4 -0.166992 -7.16699 -0.5 -9.5s-0.833008 -4.5 -1.5 -6.5l6 -4c26 0 46.833 10.667 62.5 32s23.5 46.666 23.5 75.999c0 36.667 -11.167 70.834 -33.5 102.501s-49 54.167 -80 67.5s-65.167 20 -102.5 20h-20
c-61.333 0 -116.666 -22.333 -165.999 -67c-53.333 -48 -80 -106.333 -80 -175l2 -8c0 -62.667 24.333 -118 73 -166s105.667 -72 171 -72c56 0 105.333 15.333 148 46l64 -70c-58.667 -44 -124 -66 -196 -66h-10c-90.667 0 -169.667 30.333 -237 91
c-72.667 65.333 -109 148.333 -109 249c0 102 37.333 185 112 249c66.667 56.667 142.667 85 228 85s159 -19.333 221 -58c79.333 -50 119 -123.333 119 -220zM378 276v38c-10.667 -3.33301 -18.667 -6 -24 -8c-16 -7.33301 -24 -16 -24 -26c0 -13.333 5.33301 -20 16 -20
c6.66699 0 13 1.66699 19 5s10.333 7 13 11z" />
    <glyph glyph-name="A" unicode="A" horiz-adv-x="564" 
d="M410 652l89.999 -471.998c6.66699 -32 18.667 -54 36 -66v-112h-256v112c10 8 16.167 16.167 18.5 24.5s3.5 20.166 3.5 35.499h-100c0 -14.667 1.33301 -26.334 4 -35.001s9.33398 -17 20.001 -25v-112h-222v118c8.66699 8.66699 15.167 17.667 19.5 27
s7.83301 22.333 10.5 39l84 466h292zM279.999 300.002l-30 190l-30 -190h60z" />
    <glyph glyph-name="B" unicode="B" horiz-adv-x="604" 
d="M32 652l250.001 0.00195312c88 0 149 -7.33301 183 -22c52.667 -22.667 79 -69.334 79 -140.001c0 -40.667 -8 -73.334 -24 -98.001c-18 -27.333 -45.333 -44 -82 -50c40 -5.33301 70.333 -23 91 -53c18 -26 27 -58.333 27 -97v-18
c0 -53.333 -14.333 -93.666 -43 -120.999c-35.333 -34 -94.333 -51 -177 -51h-304v118c13.333 5.33301 21.666 13 24.999 23s5 24.333 5 43v270c0 21.333 -1 35.666 -3 42.999c-4 15.333 -13 24.333 -27 27v126zM258.001 514.002l-0.000976562 -118
c30.667 0 52.334 2.66699 65.001 8s19 18 19 38v14c-2.66699 24 -10.167 39.667 -22.5 47s-32.833 11 -61.5 11zM258 276.002l0.000976562 -138c30.667 0 52.334 4 65.001 12s19 24 19 48v18c-2.66699 26 -8.83398 42.5 -18.501 49.5s-24.834 10.5 -45.501 10.5h-20z" />
    <glyph glyph-name="C" unicode="C" horiz-adv-x="542" 
d="M298 414l0.000976562 70.001c0 12 -3.5 21.667 -10.5 29s-14.833 11 -23.5 11c-10 0 -18.5 -4.16699 -25.5 -12.5s-10.5 -20.833 -10.5 -37.5v-300c0 -12.667 3.5 -23.5 10.5 -32.5s15.5 -13.5 25.5 -13.5c9.33301 0 17.333 4 24 12s10 19.333 10 34v102h204v-208
c-14 -22.667 -43.833 -40.334 -89.5 -53.001s-95.834 -19 -150.501 -19c-74 0 -132 15 -174 45c-46.667 33.333 -70 84.333 -70 153v268c0 69.333 18 120.333 54 153s92 49 168 49c54.667 0 102 -4.83301 142 -14.5s80 -26.167 120 -49.5v-186h-204z" />
    <glyph glyph-name="D" unicode="D" horiz-adv-x="564" 
d="M16 652l304.002 0.000976562c61.333 0 108.333 -10 141 -30c50 -30.667 75 -84 75 -160v-258c0 -60 -12.333 -105.667 -37 -137c-34 -43.333 -91.667 -65 -173 -65h-310v118c13.333 5.33301 21.666 12.166 24.999 20.499s5 21.5 5 39.5v300c0 10 -2.33301 20.5 -7 31.5
s-12.334 17.833 -23.001 20.5v120zM256.002 508.001v-370l18 -2c15.333 0 27.833 4.5 37.5 13.5s14.5 23.833 14.5 44.5v268c0 19.333 -5.16699 31.833 -15.5 37.5s-28.5 8.5 -54.5 8.5z" />
    <glyph glyph-name="E" unicode="E" horiz-adv-x="542" 
d="M24 652l490 0.000976562v-226h-192v42c0 13.333 -5.16699 23.333 -15.5 30s-23.166 10 -38.499 10h-18v-118h132v-126h-132v-126l16 -2c18.667 0 32.667 4.66699 42 14s14 21.333 14 36v48h192v-232h-490v118c7.33301 4 12.166 8.66699 14.499 14s3.5 12.666 3.5 21.999
v328c0 24 -6 42 -18 54v114z" />
    <glyph glyph-name="F" unicode="F" horiz-adv-x="522" 
d="M26 652l475.999 0.000976562v-226h-178v42c0 23.333 -10.333 37 -31 41c-16 2 -27.667 3.66699 -35 5v-124h126v-126h-126v-84c0 -15.333 0.833008 -27 2.5 -35s6.83398 -16.333 15.501 -25v-118h-244v118c16 10.667 24 28.667 24 54v310c0 14 -2.5 24.667 -7.5 32
s-12.5 12.666 -22.5 15.999v120z" />
    <glyph glyph-name="G" unicode="G" horiz-adv-x="542" 
d="M18 204l-0.000976562 270.001c0 58.667 18.667 104 56 136s93.333 48 168 48h38c38.667 0 77 -6.66699 115 -20c29.333 -10.667 63 -27.334 101 -50.001v-162h-198v42c0 16.667 -3.5 29.834 -10.5 39.501s-15.5 14.5 -25.5 14.5c-10.667 0 -20 -5.5 -28 -16.5
s-12 -25.5 -12 -43.5v-282c0 -33.333 12.667 -50 38 -50c10 0 18.833 3.83301 26.5 11.5s11.5 18.5 11.5 32.5v66h-30v124h228v-308c-14 -16.667 -45.667 -31.834 -95 -45.501s-93.666 -20.5 -132.999 -20.5h-28c-74 0 -128.333 14.667 -163 44
c-39.333 33.333 -59 90 -59 170z" />
    <glyph glyph-name="H" unicode="H" horiz-adv-x="604" 
d="M26 652l243.999 -0.000976562v-114c-6 -6 -10.5 -13.667 -13.5 -23s-4.5 -23 -4.5 -41v-72h72v98c0 15.333 -6 28 -18 38v114h250v-114c-8.66699 -8.66699 -15.167 -18.667 -19.5 -30s-6.5 -22 -6.5 -32l2 -26v-256c0 -20.667 1.33301 -37.167 4 -49.5
s9.33398 -22.5 20.001 -30.5v-112h-250v112c8 5.33301 13 12 15 20s3 19.333 3 34v108h-72v-90c0 -19.333 1 -34.166 3 -44.499s7 -19.5 15 -27.5v-112h-244v112c8.66699 7.33301 14.834 16.333 18.501 27s5.5 22.334 5.5 35.001v292c0 21.333 -1.83301 36.666 -5.5 45.999
s-9.83398 17.333 -18.501 24v114z" />
    <glyph glyph-name="I" unicode="I" horiz-adv-x="318" 
d="M22 652l256.001 0.00195312v-114c-10.667 -8 -17.334 -16.833 -20.001 -26.5s-4 -22.167 -4 -37.5v-288c0 -22.667 1.5 -37.834 4.5 -45.501s9.5 -16.5 19.5 -26.5v-112h-256v112c8.66699 7.33301 14.5 15.333 17.5 24s4.5 18.667 4.5 30v324
c0 10.667 -1.33301 19.667 -4 27s-8.66699 13.666 -18 18.999v114z" />
    <glyph glyph-name="J" unicode="J" horiz-adv-x="338" 
d="M54 652l243.999 0.000976562v-114c-8.66699 -8.66699 -13.834 -16.5 -15.501 -23.5s-2.5 -20.5 -2.5 -40.5v-304c0 -30.667 -3.33301 -56.334 -10 -77.001c-10 -30.667 -28 -55 -54 -73c-13.333 -10 -32 -17.833 -56 -23.5s-49.333 -8.5 -76 -8.5
c-17.333 0 -33.333 1 -48 3s-28.667 5.66699 -42 11v118l16 -2c22.667 0 39.334 9.33301 50.001 28c8 14 12 32 12 54v288c0 12 -1.16699 21.833 -3.5 29.5s-7.16602 14.5 -14.499 20.5v114z" />
    <glyph glyph-name="K" unicode="K" horiz-adv-x="604" 
d="M32 652l243.999 0.00195312v-120c-8 -8 -13 -17.333 -15 -28s-3 -24.667 -3 -42v-72l54 84c16 24.667 24 50 24 76v102h220v-120c-10 -4 -19 -10.667 -27 -20c-4 -4.66699 -17 -25.334 -39 -62.001l-58 -96l88 -180c10 -20 16.333 -32 19 -36
c8.66699 -13.333 18.334 -21.333 29.001 -24v-112h-232v82c0 22 -6 48 -18 78l-60 114v-90c0 -17.333 1 -31.666 3 -42.999s7 -21 15 -29v-112h-244v112c8.66699 3.33301 14.834 11.166 18.501 23.499s5.5 27.166 5.5 44.499v274c0 20 -1.33301 36.333 -4 49
s-9.33398 21.667 -20.001 27v120z" />
    <glyph glyph-name="L" unicode="L" horiz-adv-x="542" 
d="M24 652l244.001 0.00195312v-120c-8.66699 -3.33301 -14.834 -9.66602 -18.501 -18.999s-5.5 -20.333 -5.5 -33v-342c24 0 40.333 3.33301 49 10c11.333 8.66699 17 26 17 52v118h186v-316h-478v112c9.33301 3.33301 15.666 8.66602 18.999 15.999s5 16.666 5 27.999v338
c0 8 -1.16699 15.167 -3.5 21.5s-7.16602 11.166 -14.499 14.499v120z" />
    <glyph glyph-name="M" unicode="M" horiz-adv-x="726" 
d="M34 652l261.999 -0.00195312l64 -250l68 250h250v-114c-11.333 -8.66699 -18.166 -17.834 -20.499 -27.501s-3.5 -31.834 -3.5 -66.501v-250c0 -24.667 1.16699 -41.834 3.5 -51.501s9.16602 -17.167 20.499 -22.5v-118h-244v118c8.66699 3.33301 14.5 8.33301 17.5 15
s4.5 16.334 4.5 29.001v184l-90 -346h-58l-90 340v-148c0 -23.333 1.33301 -40.166 4 -50.499s9.33398 -18.166 20.001 -23.499v-118h-208v118c8.66699 2 14.5 5.83301 17.5 11.5s4.5 13.834 4.5 24.501v340c0 14 -1.83301 23.833 -5.5 29.5s-9.16699 9.83398 -16.5 12.501
v114z" />
    <glyph glyph-name="N" unicode="N" horiz-adv-x="604" 
d="M32 652l219.998 -0.00390625l112 -292v136c0 11.333 -1.33301 20 -4 26s-6.66699 11.333 -12 16v114h208v-114c-10.667 -8 -17.334 -16.333 -20.001 -25s-4 -21.667 -4 -39v-472h-196l-126 292v-100c0 -19.333 1.33301 -34.166 4 -44.499s9.33398 -18.166 20.001 -23.499
v-124h-202v118c8.66699 5.33301 14.834 12.333 18.501 21s5.5 18.334 5.5 29.001v320c0 10.667 -1.66699 19.834 -5 27.501s-9.66602 14.5 -18.999 20.5v114z" />
    <glyph glyph-name="O" unicode="O" horiz-adv-x="564" 
d="M28 200l-0.000976562 267.999c0 66.667 20.333 116 61 148s104.334 48 191.001 48c84.667 0 145.5 -15.167 182.5 -45.5s55.5 -78.5 55.5 -144.5v-294c0 -64 -17.333 -111 -52 -141c-38 -32.667 -100 -49 -186 -49c-88 0 -152 17.333 -192 52s-60 87.334 -60 158.001z
M313.999 193.999l0.000976562 274.001c0 17.333 -0.333008 27.666 -1 30.999c-2.66699 14 -13.667 21 -33 21c-28 0 -42 -17.333 -42 -52v-274c0 -25.333 3.66699 -42 11 -50s17.666 -12 30.999 -12c22.667 0 34 20.667 34 62z" />
    <glyph glyph-name="P" unicode="P" horiz-adv-x="564" 
d="M28 652l304.002 -0.000976562c55.333 0 102.333 -13.333 141 -40c46 -32 69 -78 69 -138v-110c0 -118.667 -66 -178 -198 -178h-82l-2 -32c0 -8.66699 1.5 -15.5 4.5 -20.5s8.16699 -9.5 15.5 -13.5v-118h-252v118c9.33301 3.33301 15.666 9 18.999 17s5 17.667 5 29v318
c0 12 -1.33301 21.333 -4 28s-9.33398 11.334 -20.001 14.001v126zM262.002 507.999v-184.001l18 -2c16 0 28.667 4.33301 38 13s14 22.334 14 41.001v74c0 22.667 -5 38 -15 46s-28.333 12 -55 12z" />
    <glyph glyph-name="Q" unicode="Q" horiz-adv-x="542" 
d="M18 186l-0.000976562 264c0 72.667 18.833 125.5 56.5 158.5s98.167 49.5 181.5 49.5c168 0 252 -63.333 252 -190v-282c0 -26 -2.66699 -48.5 -8 -67.5s-16.666 -37.833 -33.999 -56.5l42 -36l-66 -120c-32.667 12 -60.5 24.5 -83.5 37.5s-45.167 28.5 -66.5 46.5
l-30 -2c-30 0 -60 2.83301 -90 8.5s-53.333 13.5 -70 23.5c-24 14 -43.333 33.333 -58 58c-17.333 30 -26 66 -26 108zM221.999 456l-0.000976562 -256c0 -22 2.16699 -38.833 6.5 -50.5s15.5 -17.5 33.5 -17.5c14.667 0 24.334 3.83301 29.001 11.5s7 18.5 7 32.5v280
c0 22.667 -3 38 -9 46s-17 12 -33 12c-12.667 0 -21.5 -5.5 -26.5 -16.5s-7.5 -24.833 -7.5 -41.5z" />
    <glyph glyph-name="R" unicode="R" horiz-adv-x="604" 
d="M26 652l297.996 -0.00195312c54 0 97 -7.66699 129 -23c56.667 -27.333 85 -77 85 -149c0 -50 -9 -87.333 -27 -112c-14 -18.667 -36.333 -33.334 -67 -44.001c32 -5.33301 54.333 -17.666 67 -36.999c10 -15.333 15 -37 15 -65v-48c0 -15.333 1.33301 -27.833 4 -37.5
s9.33398 -17.167 20.001 -22.5v-112h-220c-4 12 -7 29 -9 51s-3 50.333 -3 85v62c0 20.667 -7 35.334 -21 44.001c-8 4.66699 -23 9.33398 -45 14.001v-78c0 -17.333 1.33301 -32 4 -44s9.33398 -19.333 20.001 -22v-112h-250v112c10.667 8 17.334 17.5 20.001 28.5
s4 28.167 4 51.5v290c0 10.667 -1.66699 19.667 -5 27s-9.66602 12.333 -18.999 15v126zM251.996 513.998l0.000976562 -130l16 -2c17.333 0 30.666 3 39.999 9c14.667 9.33301 22 25 22 47v12c-2.66699 28 -9.16699 45.667 -19.5 53s-29.833 11 -58.5 11z" />
    <glyph glyph-name="S" unicode="S" horiz-adv-x="564" 
d="M28 234l203.999 -0.00292969v-40c0 -38.667 12 -58 36 -58l12 2c12 2.66699 19.667 8.83398 23 18.501s5 24.167 5 43.5c0 26 -24 46.667 -72 62l-112 32c-41.333 16.667 -69.666 42 -84.999 76c-11.333 24.667 -17 59.334 -17 104.001c0 58.667 18.333 104 55 136
s91.667 48 165 48h20c46 0 89.667 -6.33301 131 -19c31.333 -9.33301 65 -24.333 101 -45v-156h-192v36c0 14.667 -3.5 26 -10.5 34s-14.833 12 -23.5 12c-9.33301 0 -17.333 -2.66699 -24 -8s-10.667 -12.666 -12 -21.999l-2 -10c0 -26 17.333 -45.333 52 -58
c2 -0.666992 29.833 -7.16699 83.5 -19.5s93.5 -36.5 119.5 -72.5c23.333 -32 35 -70.667 35 -116c0 -14 -1.33301 -28.833 -4 -44.5s-6 -32.167 -10 -49.5c-16 -52 -50.333 -88.333 -103 -109c-36 -14 -85 -21 -147 -21c-35.333 0 -75.333 6 -120 18
c-58.667 16 -94.667 36 -108 60v166z" />
    <glyph glyph-name="T" unicode="T" horiz-adv-x="604" 
d="M8 652l559.998 0.00195312v-292h-148v114c0 11.333 -2.16699 19.333 -6.5 24s-12.166 8 -23.499 10v-322c0 -17.333 1.83301 -32 5.5 -44s9.83398 -19.333 18.501 -22v-118h-252v112c8.66699 3.33301 14.834 9.66602 18.501 18.999s5.5 19.666 5.5 30.999v344
c-12.667 0 -20.834 -3.66699 -24.501 -11s-5.5 -17 -5.5 -29v-108h-148v292z" />
    <glyph glyph-name="U" unicode="U" horiz-adv-x="564" 
d="M16 652h252.001v-120c-10.667 -5.33301 -17.334 -13.666 -20.001 -24.999s-4 -26.333 -4 -45v-252c0 -26.667 0.333008 -42 1 -46c3.33301 -21.333 16.333 -32 39 -32c14.667 0 24.334 4.16699 29.001 12.5s7 20.833 7 37.5v298c0 14.667 -1.33301 26 -4 34
s-9.33398 14 -20.001 18v120h246v-120c-13.333 -8 -21.666 -18.833 -24.999 -32.5s-5 -32.167 -5 -55.5v-244c0 -42 -5 -75.667 -15 -101c-16.667 -42 -47.667 -72.333 -93 -91c-13.333 -6.66699 -31.5 -11.667 -54.5 -15s-46.167 -5 -69.5 -5
c-26.667 0 -51.334 1.66699 -74.001 5s-42 8.33301 -58 15c-43.333 19.333 -73.666 47 -90.999 83c-11.333 24 -17 53 -17 87v300c0 13.333 -1.33301 24.166 -4 32.499s-9.33398 15.5 -20.001 21.5v120z" />
    <glyph glyph-name="V" unicode="V" horiz-adv-x="542" 
d="M0 652h256v-120c-7.33301 -2.66699 -12.833 -7.33398 -16.5 -14.001s-5.5 -14 -5.5 -22c0 -6 1 -13.667 3 -23s3 -15 3 -17l40 -252l36 252c0 2 0.666992 7.66699 2 17s2 17 2 23c0 8 -0.333008 13 -1 15c-3.33301 10.667 -10.333 17.667 -21 21v120h226v-120
c-7.33301 -8.66699 -12.833 -17.667 -16.5 -27s-7.5 -23.666 -11.5 -42.999l-90 -460h-282l-88 436c-6 44.667 -18 76 -36 94v120z" />
    <glyph glyph-name="W" unicode="W" horiz-adv-x="768" 
d="M-2 652l252.001 -0.000976562v-114c-7.33301 -4 -12.5 -9.5 -15.5 -16.5s-4.5 -15.5 -4.5 -25.5l2 -28l24 -162l64 346h126l72 -346l24 174c0 15.333 -1.33301 27.5 -4 36.5s-9.33398 16.167 -20.001 21.5v114h220v-114c-5.33301 -5.33301 -10.5 -13.666 -15.5 -24.999
s-9.83301 -28.333 -14.5 -51l-88 -460h-198l-54 310l-60 -310h-196l-78 460c-5.33301 26 -17.333 51.333 -36 76v114z" />
    <glyph glyph-name="X" unicode="X" horiz-adv-x="542" 
d="M6 652l238 0.000976562v-70c0 -12.667 2.5 -26.167 7.5 -40.5s12.5 -29.5 22.5 -45.5c10.667 18 18.334 33 23.001 45s7 25.667 7 41v70h210v-114c-8 -8 -14.667 -15 -20 -21c-8.66699 -9.33301 -14 -16.333 -16 -21l-96 -148l96 -180l36 -54v-112h-246v78
c0 33.333 -11.333 68.666 -34 105.999c-12.667 -22 -21.834 -41.167 -27.501 -57.5s-8.5 -32.5 -8.5 -48.5v-78h-204v112c10.667 8 21 20 31 36c7.33301 12 13 24 17 36l94 162l-76 120l-30 43.5c-9.33301 13.667 -17.333 22.5 -24 26.5v114z" />
    <glyph glyph-name="Y" unicode="Y" horiz-adv-x="542" 
d="M0 652l234 -0.00390625v-90c0 -19.333 3.33301 -39 10 -59c4.66699 -14 12.667 -31.667 24 -53c12 16.667 21 34.834 27 54.501s9 38.834 9 57.501v90h210v-114c-19.333 -19.333 -35.333 -40.666 -48 -63.999l-108 -222v-84c0 -15.333 1.66699 -26.5 5 -33.5
s9.66602 -13.833 18.999 -20.5v-112h-252v112c10.667 8 17.334 15.5 20.001 22.5s4 17.5 4 31.5v78l-100 204c-8.66699 21.333 -16 38 -22 50c-11.333 22.667 -22 35.334 -32 38.001v114z" />
    <glyph glyph-name="Z" unicode="Z" horiz-adv-x="564" 
d="M22 652h495.999v-114l-256 -400l18 -2c36.667 0 61.334 7 74.001 21c9.33301 10 14 27.667 14 53v66h156v-274h-502v118l246 394c-32.667 0 -55.667 -2.66699 -69 -8c-19.333 -8 -29 -22.667 -29 -44v-66h-148v256z" />
    <glyph glyph-name="bracketleft" unicode="[" horiz-adv-x="338" 
d="M18 658h280v-120h-100v-560h100v-120h-280v800z" />
    <glyph glyph-name="backslash" unicode="\" horiz-adv-x="482" 
d="M136 646l18 -52l234 -758h-150l-22 70l-230 740h150z" />
    <glyph glyph-name="bracketright" unicode="]" horiz-adv-x="338" 
d="M18 658h280v-800h-280v120h102v560h-102v120z" />
    <glyph glyph-name="asciicircum" unicode="^" horiz-adv-x="574" 
d="M284 568l-126 -284l-110 48l180 378h118l182 -378l-102 -48z" />
    <glyph glyph-name="underscore" unicode="_" horiz-adv-x="400" 
d="M2 2h382v-162h-382v162z" />
    <glyph glyph-name="grave" unicode="`" horiz-adv-x="276" 
d="M42 664h130l44 -126h-92z" />
    <glyph glyph-name="a" unicode="a" horiz-adv-x="502" 
d="M34 432c29.333 22 62.665 37.166 99.998 45.499s77.333 12.5 120 12.5c52.667 0 96.334 -10 131.001 -30c43.333 -25.333 65 -62.666 65 -111.999v-192c0 -13.333 2.33301 -23.666 7 -30.999c5.33301 -6 11 -11.667 17 -17v-106h-196v36l-47 -30
c-23.333 -12 -49.666 -18 -78.999 -18c-40.667 0 -73.334 10.333 -98.001 31c-29.333 24.667 -44 61.667 -44 111c0 38.667 13.667 70.667 41 96c22 20.667 49.667 34.667 83 42l132 42v24c0 11.333 -1.66699 20.666 -5 27.999s-9.66602 11.333 -18.999 12h-8
c-11.333 0 -19.833 -5.83301 -25.5 -17.5s-8.5 -27.167 -8.5 -46.5h-166v120zM265.999 143.999l0.000976562 55.999c-16 -4 -28 -7.66699 -36 -11c-24 -10.667 -36 -23.667 -36 -39c0 -20 8 -30 24 -30c8 0 17.167 2.83301 27.5 8.5s17.166 10.834 20.499 15.501z" />
    <glyph glyph-name="b" unicode="b" horiz-adv-x="502" 
d="M10 652h207.999v-190c12 6 27.5 11.167 46.5 15.5s38.833 6.5 59.5 6.5h18c38.667 0 68.334 -10.667 89.001 -32s31 -56 31 -104v-198c0 -59.333 -21.667 -102.333 -65 -129c-33.333 -20.667 -79 -31 -137 -31c-55.333 0 -100.333 6 -135 18
c-28 9.33301 -58.333 25.333 -91 48v428c0 30.667 -8 48.667 -24 54v114zM217.999 264l-0.000976562 -138c0.666992 0 5.16699 -1.33301 13.5 -4s14.5 -4 18.5 -4c22.667 0 34 20.667 34 62v126c0 14.667 -3.16699 26 -9.5 34s-13.833 12 -22.5 12
c-9.33301 0 -20.666 -3.33301 -33.999 -10v-78z" />
    <glyph glyph-name="c" unicode="c" horiz-adv-x="482" 
d="M22 150v173.998c0 56.667 13.667 96.667 41 120c30.667 26.667 85 40 163 40c48 0 90 -4.16699 126 -12.5s63.333 -23.5 82 -45.5v-126h-166v30c0 16.667 -1 27.334 -3 32.001c-4 9.33301 -13 14 -27 14s-23.5 -4.66699 -28.5 -14s-7.5 -24 -7.5 -44v-150
c0 -24 1.5 -41 4.5 -51s11.5 -15 25.5 -15s23.5 5 28.5 15s7.5 25 7.5 45v42h166v-148c-21.333 -21.333 -51 -37.666 -89 -48.999s-74.333 -17 -109 -17h-22c-56 0 -99.333 9.66699 -130 29c-41.333 26 -62 69.667 -62 131z" />
    <glyph glyph-name="d" unicode="d" horiz-adv-x="502" 
d="M16 144l-0.00195312 198.003c0 39.333 7.66699 70.666 23 93.999c20.667 32 54.334 48 101.001 48h12c24 0 42.833 -1.66699 56.5 -5s30.834 -11 51.501 -23v28c0 30 -6 48 -18 54v114h198v-458c0 -33.333 1.66699 -54.833 5 -64.5s9 -16.834 17 -21.501v-106h-202v18
c-10.667 -10.667 -27 -18.334 -49 -23.001s-45.667 -7 -71 -7c-36.667 0 -66 10.333 -88 31c-25.333 24 -38 59.667 -38 107zM259.998 132.003l0.000976562 210c-4.66699 2.66699 -10.334 4.66699 -17.001 6s-13 2 -19 2c-20 0 -30 -16.667 -30 -50v-96
c0 -53.333 12 -80 36 -80c13.333 4 23.333 6.66699 30 8z" />
    <glyph glyph-name="e" unicode="e" horiz-adv-x="482" 
d="M16 150l-0.000976562 179.998c0 62 18.667 105 56 129c32 20.667 85.333 31 160 31c62 0 110 -9 144 -27c42.667 -22.667 64 -59 64 -109v-150h-244v-48c0 -16 2.83301 -28 8.5 -36s12.834 -12 21.501 -12c7.33301 0 14.166 2.83301 20.499 8.5s9.5 12.834 9.5 21.501v42
h184v-124c-15.333 -15.333 -45.333 -30.166 -90 -44.499s-88 -21.5 -130 -21.5c-67.333 0 -118.166 13 -152.499 39s-51.5 66.333 -51.5 121zM195.999 311.998h72.001c0 23.333 -2.33301 39.833 -7 49.5s-14.334 14.5 -29.001 14.5c-14 0 -23.5 -5 -28.5 -15
s-7.5 -26.333 -7.5 -49z" />
    <glyph glyph-name="f" unicode="f" horiz-adv-x="298" 
d="M4 370l-0.000976562 110.001h24v40c0 39.333 8.66699 71.666 26 96.999c21.333 31.333 52.666 47 93.999 47c30 0 53.5 -0.666992 70.5 -2s35.5 -4.66602 55.5 -9.99902v-108c-20.667 0 -36 -4 -46 -12c-13.333 -10.667 -20 -28 -20 -52h54v-110h-54v-196
c0 -20.667 1.33301 -35.5 4 -44.5s9.33398 -16.167 20.001 -21.5v-106h-228v106c10.667 5.33301 17.334 12.666 20.001 21.999s4 22 4 38v202h-24z" />
    <glyph glyph-name="g" unicode="g" horiz-adv-x="522" 
d="M26 126l-0.000976562 192.001c0 56 7.66699 95.667 23 119c20.667 31.333 58.334 47 113.001 47c26 0 47.5 -1.83301 64.5 -5.5s33.5 -13.167 49.5 -28.5v30h204v-110c-16 -8.66699 -24 -26 -24 -52v-334c0 -72.667 -17 -122 -51 -148c-28 -21.333 -77 -32 -147 -32h-18
c-36.667 0 -75.5 6 -116.5 18s-69.5 26 -85.5 42v114h172c0 -20 1.5 -34 4.5 -42s11.5 -12 25.5 -12c14.667 0 24.334 3 29.001 9s7 15.667 7 29v64c-14 -10.667 -29.833 -19.334 -47.5 -26.001s-37.834 -10 -60.501 -10c-46 0 -81.167 12.167 -105.5 36.5
s-36.5 57.5 -36.5 99.5zM275.999 132.001v216c-8 4 -18 6 -30 6c-24 0 -36 -16 -36 -48v-106c0 -28 2.33301 -47.667 7 -59s13.667 -17 27 -17c2 0 7 1.16699 15 3.5s13.667 3.83301 17 4.5z" />
    <glyph glyph-name="h" unicode="h" horiz-adv-x="542" 
d="M24 652l209.997 0.00292969v-184c19.333 14.667 48 22 86 22c42 0 77.333 -9.33301 106 -28c34.667 -22.667 52 -55.334 52 -98.001v-184c0 -22 1.33301 -37.833 4 -47.5s9.33398 -15.834 20.001 -18.501v-112h-198c-4 28 -7 52.5 -9 73.5s-3 43.833 -3 68.5v162
c0 15.333 -3.16699 28.166 -9.5 38.499s-15.166 15.5 -26.499 15.5c-9.33301 -2.66699 -16.666 -4.66699 -21.999 -6v-192c0 -12.667 1 -23.167 3 -31.5s6.33301 -13.833 13 -16.5v-112h-226v112c10.667 5.33301 17.334 11.833 20.001 19.5s4 19.167 4 34.5v312
c0 17.333 -1.83301 29.833 -5.5 37.5s-9.83398 12.5 -18.501 14.5v120z" />
    <glyph glyph-name="i" unicode="i" horiz-adv-x="276" 
d="M18 480h204v-312c0 -16 1.83301 -29 5.5 -39s9.16699 -15 16.5 -15v-112h-226v106c7.33301 4 12.166 8.5 14.499 13.5s3.5 11.833 3.5 20.5v176c0 14 -1.16699 23.667 -3.5 29s-7.16602 11 -14.499 17v116zM24 588c0 24 10.1689 42.667 30.502 56s43.5 20 69.5 20
c26.667 0 49.667 -6.5 69 -19.5s29 -31.833 29 -56.5c0 -26.667 -9.83301 -46.667 -29.5 -60s-43.834 -20 -72.501 -20c-26.667 0 -49.334 7.66699 -68.001 23s-28 34.333 -28 57z" />
    <glyph glyph-name="j" unicode="j" horiz-adv-x="276" 
d="M24 480l204.001 -0.000976562v-518c0 -26.667 -3 -48.334 -9 -65.001c-8.66699 -24.667 -24.334 -43.667 -47.001 -57c-12 -7.33301 -26.667 -12.833 -44 -16.5s-35.333 -5.5 -54 -5.5c-31.333 0 -60 6 -86 18v106h16c16.667 0 28.167 5.5 34.5 16.5s9.5 31.5 9.5 61.5
v286c0 16.667 -1.5 29.334 -4.5 38.001s-9.5 15.334 -19.5 20.001v116zM30.001 593.999c0 20 9 36.667 27 50s40.333 20 67 20c28.667 0 52.5 -6 71.5 -18s29.833 -29.333 32.5 -52v-12c0 -21.333 -9.33301 -39 -28 -53s-44 -21 -76 -21c-30.667 0 -54 8.33301 -70 25
s-24 37 -24 61z" />
    <glyph glyph-name="k" unicode="k" horiz-adv-x="522" 
d="M14 652l208.001 0.00292969v-304c24 21.333 39.667 40.666 47 57.999c4.66699 10.667 7 25.334 7 44.001v30h204v-104c-8 -2.66699 -15.667 -7.33398 -23 -14.001l-19 -20l-48 -66l60 -126c2.66699 -8 7.66699 -15.333 15 -22
c5.33301 -4.66699 11.666 -9.33398 18.999 -14.001v-112h-166l-96 208v-54c0 -17.333 8 -31.333 24 -42v-112h-232v112c10.667 5.33301 17.334 12.166 20.001 20.499s4 21.5 4 39.5v306c0 19.333 -1.83301 33.833 -5.5 43.5s-9.83398 16.5 -18.501 20.5v108z" />
    <glyph glyph-name="l" unicode="l" horiz-adv-x="276" 
d="M18 652h204v-472c0 -24 1 -40.5 3 -49.5s8.33301 -16.5 19 -22.5v-106h-226v106c10.667 5.33301 17.334 13 20.001 23s4 22.333 4 37v312c0 18 -1.33301 31.5 -4 40.5s-9.33398 14.833 -20.001 17.5v114z" />
    <glyph glyph-name="m" unicode="m" horiz-adv-x="768" 
d="M16 480l204 0.000976562v-24c18 14 35.5 24.167 52.5 30.5s36.833 9.5 59.5 9.5c26 0 46.167 -2.83301 60.5 -8.5s30.166 -18.167 47.499 -37.5c22.667 15.333 41.667 26 57 32c23.333 9.33301 48.333 14 75 14c44 0 77 -9.66699 99 -29c24.667 -22 37 -56.333 37 -103
v-190c0 -38.667 8 -60.667 24 -66v-106h-196c-2.66699 26 -4.33398 47.667 -5.00098 65s-1 35 -1 53v12v176c0 16.667 -3.5 29.167 -10.5 37.5s-16.167 12.5 -27.5 12.5l-28 -4v-192c0 -25.333 8 -43.333 24 -54v-106h-198c-2.66699 26 -4.33398 47.667 -5.00098 65
s-1 35 -1 53v12v168c0 17.333 -1.33301 29.666 -4 36.999c-5.33301 15.333 -16 23 -32 23c-3.33301 0 -7.66602 -0.666992 -12.999 -2s-10.333 -2.66602 -15 -3.99902v-192c0 -30.667 8 -48.667 24 -54v-106h-228v106c10.667 8 17.334 16.167 20.001 24.5s4 20.166 4 35.499
v132c0 17.333 -2.16699 31.833 -6.5 43.5s-12.166 18.5 -23.499 20.5z" />
    <glyph glyph-name="n" unicode="n" horiz-adv-x="542" 
d="M18 480l209.999 -0.000976562v-18c17.333 12 35.5 19.667 54.5 23s40.167 5 63.5 5c54 0 91.667 -17 113 -51c12.667 -20 19 -45 19 -75v-190c0 -33.333 8 -55.333 24 -66v-106h-204c0 32.667 -0.666992 58.834 -2 78.501s-2.66602 42.834 -3.99902 69.501v150
c0 14 -3.5 26.5 -10.5 37.5s-16.833 16.5 -29.5 16.5c-8 0 -16 -2 -24 -6v-180c0 -24.667 7.33301 -42.667 22 -54v-112h-232v112c10.667 5.33301 17.334 12.666 20.001 21.999s4 22 4 38v144c0 12.667 -1.83301 23 -5.5 31s-9.83398 13 -18.501 15v116z" />
    <glyph glyph-name="o" unicode="o" horiz-adv-x="482" 
d="M10 168l0.000976562 168.001c0 57.333 15.667 97.333 47 120s87.666 34 168.999 34c82 0 138.167 -10.667 168.5 -32s45.5 -62 45.5 -122v-180c0 -64.667 -17.667 -108.334 -53 -131.001c-30 -19.333 -83.667 -29 -161 -29s-131.333 10.667 -162 32
c-36 25.333 -54 72 -54 140zM262.001 156.001v186c0 12.667 -3.5 22.5 -10.5 29.5s-15.5 10.5 -25.5 10.5s-18.5 -3.83301 -25.5 -11.5s-10.5 -19.167 -10.5 -34.5v-180c0 -15.333 3.5 -27.166 10.5 -35.499s15.5 -12.5 25.5 -12.5s18.5 4.16699 25.5 12.5
s10.5 20.166 10.5 35.499z" />
    <glyph glyph-name="p" unicode="p" horiz-adv-x="522" 
d="M20 480l202 0.00292969v-24c18 10.667 36.167 19 54.5 25s40.166 9 65.499 9c88 0 132 -40 132 -120v-214c0 -40 -4.66699 -70.333 -14 -91c-17.333 -38 -50.666 -61 -99.999 -69l-32 -2c-20.667 0 -39.834 2.5 -57.501 7.5s-33.834 13.167 -48.501 24.5
c0 -24 1.33301 -42.333 4 -55s9.33398 -20.334 20.001 -23.001v-118h-226v118c10.667 5.33301 17.334 12.666 20.001 21.999s4 22 4 38v298c0 37.333 -8 58.666 -24 63.999v110zM222 348.003v-216l17.5 -5c7 -2 12.5 -3 16.5 -3c25.333 0 38 18.667 38 56v126
c0 17.333 -3.33301 30 -10 38s-15.334 12 -26.001 12c-8 0 -14.167 -0.5 -18.5 -1.5s-10.166 -3.16699 -17.499 -6.5z" />
    <glyph glyph-name="q" unicode="q" horiz-adv-x="502" 
d="M16 138v225.999c0 36.667 9 65.334 27 86.001c22.667 26.667 59 40 109 40c20 0 41.333 -3 64 -9s39.334 -14.333 50.001 -25v24h174v-490c0 -14 0.666992 -24.667 2 -32s8 -12.666 20 -15.999v-112h-220v112c17.333 13.333 26 32.666 26 57.999l-2 32
c-10 -10 -25.5 -19.5 -46.5 -28.5s-43.5 -13.5 -67.5 -13.5c-34.667 0 -63.334 8.33301 -86.001 25c-33.333 24.667 -50 65.667 -50 123zM266 125.999v222.001c-13.333 6.66699 -25.333 10 -36 10c-24 0 -36 -15.333 -36 -46v-138c0 -16.667 4.5 -29.834 13.5 -39.501
s19.833 -14.5 32.5 -14.5c7.33301 0 16 2 26 6z" />
    <glyph glyph-name="r" unicode="r" horiz-adv-x="338" 
d="M12 480l197.999 0.00195312v-30c10 13.333 18.333 22.333 25 27c13.333 10 29 15 47 15c13.333 0 22.666 -0.666992 27.999 -2v-172c-5.33301 1.33301 -14 2 -26 2c-20 0 -37.333 -5.66699 -52 -17s-22 -26.333 -22 -45v-90c0 -17.333 2.5 -30.833 7.5 -40.5
s12.5 -16.167 22.5 -19.5v-106h-228v106c10.667 8 17.334 16.167 20.001 24.5s4 20.166 4 35.499v150c0 8.66699 -1.66699 17.667 -5 27s-9.66602 17.666 -18.999 24.999v110z" />
    <glyph glyph-name="s" unicode="s" horiz-adv-x="482" 
d="M22 186h174.004v-36c0 -12.667 3.83301 -22.834 11.5 -30.501s16.5 -11.5 26.5 -11.5c9.33301 0 17.333 2.83301 24 8.5s10 13.5 10 23.5v10c-4.66699 21.333 -30.667 37.333 -78 48c-65.333 14.667 -99.333 22.667 -102 24
c-25.333 10.667 -44.666 26.834 -57.999 48.501s-20 45.5 -20 71.5s7.16699 51.667 21.5 77s33.166 43.666 56.499 54.999c15.333 6.66699 34.666 12 57.999 16s46.666 6 69.999 6c27.333 0 53 -2.5 77 -7.5s44.333 -10.5 61 -16.5c34.667 -12 59.334 -27.333 74.001 -46
v-114h-166v30c0 12.667 -4.16699 22.5 -12.5 29.5s-17.5 10.5 -27.5 10.5c-8 0 -15.333 -2.66699 -22 -8s-10 -12 -10 -20c0 -19.333 10.333 -33 31 -41c6 -2.66699 21.667 -7 47 -13c49.333 -9.33301 83.666 -19 102.999 -29c38 -20 61 -52.333 69 -97
c0.666992 -4.66699 1.16699 -10.167 1.5 -16.5s0.5 -12.166 0.5 -17.499c0 -49.333 -21.333 -87 -64 -113c-36.667 -22 -84 -33 -142 -33c-16.667 0 -34.334 1.33301 -53.001 4s-36.334 6 -53.001 10c-18.667 3.33301 -39.667 10.833 -63 22.5s-38.333 22.167 -45 31.5v124z
" />
    <glyph glyph-name="t" unicode="t" horiz-adv-x="298" 
d="M-2 370l-0.000976562 110.001h24v96l186 46v-142h60v-110h-60v-190c0 -22.667 4.33301 -39.334 13 -50.001s24.334 -16 47.001 -16v-106c-14 -4 -30.667 -7 -50 -9s-42.666 -3 -69.999 -3c-38.667 0 -69.334 11 -92.001 33s-34 52.333 -34 91v250h-24z" />
    <glyph glyph-name="u" unicode="u" horiz-adv-x="522" 
d="M8 480l192.001 -0.000976562c10.667 -12.667 16 -32.667 16 -60v-204c0 -29.333 2.33301 -52.333 7 -69s13 -25 25 -25c7.33301 0 16.666 3.33301 27.999 10v198c0 11.333 -1.66699 20.333 -5 27s-9.66602 13 -18.999 19v104h210v-312c0 -28.667 7.33301 -48.667 22 -60
v-106h-208v24c-6.66699 -6.66699 -20.334 -13.334 -41.001 -20.001s-43 -10 -67 -10c-51.333 0 -86.833 11.5 -106.5 34.5s-29.5 60.833 -29.5 113.5v180c0 14.667 -1.5 25.334 -4.5 32.001s-9.5 13.334 -19.5 20.001v104z" />
    <glyph glyph-name="v" unicode="v" horiz-adv-x="482" 
d="M-2 480h222v-110c-10.667 -4 -16 -13.333 -16 -28c0 -11.333 5.33301 -37.333 16 -78l18 -70l30 118l6 34c0 10.667 -6 18.667 -18 24v110h202v-110c-8 -2.66699 -14.167 -7.66699 -18.5 -15s-8.16602 -17.666 -11.499 -30.999l-96 -322h-214l-90 310
c-4 17.333 -7.33301 28.666 -10 33.999c-4.66699 11.333 -11.334 19.333 -20.001 24v110z" />
    <glyph glyph-name="w" unicode="w" horiz-adv-x="706" 
d="M-2 480l234 0.000976562v-110l-12 -14c-4 -4.66699 -6 -11.334 -6 -20.001c0 -8 2 -20 6 -36l12 -60l64 240h120l66 -240l18 66c0.666992 4 2.16699 11 4.5 21s3.5 16.333 3.5 19c0 14 -6.66699 22 -20 24v110h196v-116c-10.667 -4.66699 -19.667 -17 -27 -37
c-4.66699 -12 -17 -54.333 -37 -127l-54 -198h-178l-44 178l-54 -178h-172l-72 268c-11.333 58 -27.333 91.333 -48 100v110z" />
    <glyph glyph-name="x" unicode="x" horiz-adv-x="482" 
d="M4 480l209.997 -0.000976562v-36c0 -16 1.33301 -29.833 4 -41.5s9.33398 -24.5 20.001 -38.5c12.667 14 21.334 28.333 26.001 43c2.66699 9.33301 4 21.666 4 36.999v36h184v-110c-8.66699 -4.66699 -18.167 -12.167 -28.5 -22.5s-18.166 -20.166 -23.499 -29.499
l-62 -72l66 -90l18 -24c10 -12.667 20 -20.667 30 -24v-106h-208v36c0 20 -2.16699 35.833 -6.5 47.5s-14.166 25.167 -29.499 40.5c-13.333 -15.333 -22 -28.666 -26 -39.999s-6 -29.333 -6 -54v-30h-172v106c9.33301 3.33301 20.833 13 34.5 29l31.5 37l54 72l-42 54
c-14.667 20.667 -28.334 36 -41.001 46s-25 16 -37 18v116z" />
    <glyph glyph-name="y" unicode="y" horiz-adv-x="482" 
d="M-2 480l240.001 -0.000976562v-110c-6 0 -10.833 -2.16699 -14.5 -6.5s-5.5 -9.5 -5.5 -15.5c0 -8 1.66699 -17.667 5 -29c6 -19.333 9 -29.666 9 -30.999l24 -78l18 78l10 60c0 14.667 -5.33301 22 -16 22v110h202v-110c-10 -6.66699 -18.333 -19.667 -25 -39
c-7.33301 -24.667 -13 -43 -17 -55l-96 -298c-16 -51.333 -29 -84.333 -39 -99c-12 -18 -32.333 -32.333 -61 -43c-20 -8 -43.333 -12 -70 -12c-14.667 0 -30 1.66699 -46 5s-29.333 7 -40 11v108c22 0 38.667 4.5 50 13.5s18.666 20.5 21.999 34.5l-90 250l-21 66
c-10.667 30.667 -23.667 50 -39 58v110z" />
    <glyph glyph-name="z" unicode="z" horiz-adv-x="482" 
d="M10 480l436 0.000976562v-110l-208 -256h36c12 0 20.667 2.66699 26 8s8 16.666 8 33.999v30h138v-184h-436v112l204 250h-38c-10 0 -17.167 -2 -21.5 -6s-6.5 -13.333 -6.5 -28v-30h-138v180z" />
    <glyph glyph-name="braceleft" unicode="{" horiz-adv-x="338" 
d="M24 252c24 5.33301 41.667 17 53 35c8.66699 14 13 30.333 13 49v190c0 48 13.667 81 41 99c23.333 15.333 65 23 125 23l66 -2c-23.333 -8.66699 -40.166 -23.667 -50.499 -45s-15.5 -48.333 -15.5 -81v-166c0 -36.667 -5.83301 -62 -17.5 -76
s-29.834 -22.667 -54.501 -26c24 -6.66699 41.333 -17.334 52 -32.001c13.333 -18 20 -45.333 20 -82v-202c0 -14.667 5 -29 15 -43c12.667 -18 29.667 -29.667 51 -35h-60c-62.667 0 -107 7 -133 21s-39 41 -39 81v208c0 24.667 -5.66699 43 -17 55
c-8 8.66699 -24.333 18.334 -49 29.001z" />
    <glyph glyph-name="bar" unicode="|" horiz-adv-x="288" 
d="M80 710h118v-710h-118v710z" />
    <glyph glyph-name="braceright" unicode="}" horiz-adv-x="338" 
d="M124 252c-20 7.33301 -35.998 18.6641 -47.998 33.9971c-14.667 19.333 -22 45.333 -22 78v196c0 19.333 -3 34.666 -9 45.999c-8.66699 16.667 -25.667 30 -51 40c12.667 2.66699 27.167 4.33398 43.5 5.00098s35.166 1 56.499 1h14
c41.333 -4.66699 70.666 -14.667 87.999 -30s26 -36 26 -62v-200c0 -27.333 4.33301 -49.666 13 -66.999s25.667 -31 51 -41c-24 -9.33301 -40.667 -20.833 -50 -34.5s-14 -36.167 -14 -67.5v-172c0 -32 -3.66699 -55.167 -11 -69.5s-24.333 -27.166 -51 -38.499
c-18 -8 -42.667 -12 -74 -12c-10 0 -25.333 1 -46 3s-36 3 -46 3c18 2.66699 32.5 13.834 43.5 33.501s16.5 44.5 16.5 74.5v160c0 36 5.66699 63.5 17 82.5s29 31.5 53 37.5z" />
    <glyph glyph-name="asciitilde" unicode="~" horiz-adv-x="604" 
d="M552 284c-24 -42.667 -50.002 -73.666 -78.002 -92.999c-24 -16.667 -48 -25 -72 -25c-15.333 0 -29.5 2.66699 -42.5 8s-24.167 10.166 -33.5 14.499l-48 21.5c-32 14.667 -56 22 -72 22c-15.333 0 -31 -5.83301 -47 -17.5s-32.333 -30.5 -49 -56.5l-62 70
c22.667 46 47.667 79 75 99c22.667 16.667 48.334 25 77.001 25c18 0 37 -3 57 -9c9.33301 -2.66699 26.333 -9 51 -19c23.333 -12 40 -20.333 50 -25c18 -8.66699 32.667 -13 44 -13c14 0 28 5.66699 42 17c16.667 13.333 31.334 33 44.001 59z" />
    <glyph glyph-name="nonbreakingspace" unicode="&#xa0;" horiz-adv-x="500" 
 />
    <glyph glyph-name="cent" unicode="&#xa2;" horiz-adv-x="482" 
d="M154 2l-0.000976562 78.0029c-34.667 0 -64 11 -88 33c-29.333 27.333 -44 65.666 -44 114.999v216c0 36 16 64.667 48 86c16 10.667 46 23.334 90 38.001v84h154v-84c22 -6.66699 42.333 -14.334 61 -23.001s38.334 -21 59.001 -37v-132h-172v50
c0 9.33301 -2.66699 16.666 -8 21.999s-12 8 -20 8c-7.33301 0 -14.5 -2.83301 -21.5 -8.5s-10.5 -12.834 -10.5 -21.501v-180c0 -18.667 3.16699 -33 9.5 -43s13.833 -15 22.5 -15c6 0 12.167 4 18.5 12s9.5 17.333 9.5 28v54h172v-144
c-8.66699 -14 -26.5 -27.167 -53.5 -39.5s-51.167 -18.5 -72.5 -18.5v-78h-154z" />
    <glyph glyph-name="sterling" unicode="&#xa3;" horiz-adv-x="564" 
d="M28 2l0.00195312 118.001c9.33301 3.33301 15.666 8.33301 18.999 15s5 17.667 5 33v84h-18v124h18v56c0 83.333 22.333 144.666 67 183.999c37.333 33.333 87.666 50 150.999 50c50 0 101.333 -9 154 -27c46 -15.333 79.333 -32.333 100 -51v-180h-186v66
c0 12.667 -3.5 22.5 -10.5 29.5s-15.5 10.5 -25.5 10.5c-10.667 0 -20 -3.66699 -28 -11s-12 -17 -12 -29v-98h132v-124h-132v-114l14 -2c14 0 27.833 3.66699 41.5 11s20.5 16.333 20.5 27v42h186v-214h-496z" />
    <glyph glyph-name="currency" unicode="&#xa4;" horiz-adv-x="676" 
d="M198 552c22.667 14 46.502 24.5 71.502 31.5s49.167 10.5 72.5 10.5c26.667 0 52.5 -3.83301 77.5 -11.5s47.833 -17.834 68.5 -30.501l48 46l86 -86l-46 -54c10 -15.333 18.833 -37.166 26.5 -65.499s11.5 -55.833 11.5 -82.5c0 -26 -3.5 -50.5 -10.5 -73.5
s-18.833 -43.833 -35.5 -62.5l54 -48l-94 -86l-40 48c-20 -15.333 -43.333 -26.833 -70 -34.5s-53.334 -11.5 -80.001 -11.5c-30.667 0 -59 4.33301 -85 13s-44.333 19.667 -55 33l-56 -48l-86 86l54 48c-12.667 16 -22.5 36.667 -29.5 62s-10.5 52.666 -10.5 81.999
c0 30.667 4.16699 58.834 12.5 84.501s20.166 44.167 35.499 55.5l-54 46l86 94zM346.002 434c-36.667 0 -65.5 -12 -86.5 -36s-31.5 -52 -31.5 -84c0 -29.333 9.16699 -55 27.5 -77s43.833 -33 76.5 -33l8 2c34 0 61.5 11.833 82.5 35.5s31.5 50.5 31.5 80.5
c0 28.667 -8.66699 53.667 -26 75c-20 24.667 -47.333 37 -82 37z" />
    <glyph glyph-name="yen" unicode="&#xa5;" horiz-adv-x="542" 
d="M12 652l231.997 0.000976562v-90c0 -16 3.33301 -33.667 10 -53s15.334 -39 26.001 -59c12.667 17.333 21.834 34.666 27.501 51.999s8.5 37.333 8.5 60v90h204v-120c-6.66699 -6.66699 -12.334 -13.5 -17.001 -20.5s-13 -21.5 -25 -43.5l-48 -92h94v-70h-130l-12 -24
h142v-78h-160v-36c0 -8.66699 2 -18.5 6 -29.5s10 -19.167 18 -24.5v-112h-252v112c10.667 8 17.334 15.5 20.001 22.5s4 17.5 4 31.5v42h-154v78h130l-12 24h-118v72h90l-36 72c-9.33301 21.333 -17.666 38 -24.999 50s-15 20.667 -23 26v120zM141.997 778.001l-2 7.99805
c0 16 6.16699 28.333 18.5 37s26.833 13 43.5 13h10c16 0 30.333 -5.33301 43 -16s19 -24.667 19 -42c0 -21.333 -7 -38.666 -21 -51.999s-29.667 -20 -47 -20s-32.333 6.33301 -45 19s-19 30.334 -19 53.001zM309.997 777.999c0 18.667 6.49902 33 19.499 43
s27.833 15 44.5 15s31.834 -5 45.501 -15s20.5 -24.333 20.5 -43c0 -22.667 -6.33301 -40.667 -19 -54s-27.667 -20 -45 -20c-16 0 -31 6.66699 -45 20s-21 31.333 -21 54z" />
    <glyph glyph-name="brokenbar" unicode="&#xa6;" horiz-adv-x="288" 
d="M80 710h118v-710h-118v710z" />
    <glyph glyph-name="section" unicode="&#xa7;" horiz-adv-x="482" 
d="M218 390c-7.33301 0 -13.833 -2.5 -19.5 -7.5s-8.5 -11.167 -8.5 -18.5c0 -16 5.33301 -27.667 16 -35c8 -5.33301 23.333 -11 46 -17c4.66699 4 8.5 8.16699 11.5 12.5s4.5 9.5 4.5 15.5v10c-6 18 -22.667 31.333 -50 40zM408 252
c8 -10 14.6719 -20.332 20.0049 -30.999s9.33301 -23 12 -37c0.666992 -4.66699 1.16699 -10.167 1.5 -16.5s0.5 -12.166 0.5 -17.499c0 -49.333 -21.333 -87 -64 -113c-36.667 -22 -84 -33 -142 -33c-16.667 0 -34.334 1.33301 -53.001 4s-36.334 6 -53.001 10
c-18.667 3.33301 -39.667 10.833 -63 22.5s-38.333 22.167 -45 31.5v124h174v-36c0 -12.667 3.83301 -22.834 11.5 -30.501s16.5 -11.5 26.5 -11.5c9.33301 0 17.333 2.83301 24 8.5s10 13.5 10 23.5v10c-4.66699 21.333 -30.667 37.333 -78 48
c-65.333 14.667 -99.333 22.667 -102 24c-25.333 10.667 -44.666 26.834 -57.999 48.501s-20 45.5 -20 71.5c0 38 12 70 36 96c-12.667 11.333 -21.834 25 -27.501 41s-8.5 33.667 -8.5 53c0 26 7.16699 51.667 21.5 77s33.166 43.666 56.499 54.999
c15.333 6.66699 34.666 12 57.999 16s46.666 6 69.999 6c27.333 0 53 -2.5 77 -7.5s44.333 -10.5 61 -16.5c34.667 -12 59.334 -27.333 74.001 -46v-114h-166v30c0 12.667 -4.16699 22.5 -12.5 29.5s-17.5 10.5 -27.5 10.5c-8 0 -15.333 -2.66699 -22 -8s-10 -12 -10 -20
c0 -19.333 10.333 -33 31 -41c6 -2.66699 21.667 -7 47 -13c49.333 -9.33301 83.666 -19 102.999 -29c38 -20 61 -52.333 69 -97c0.666992 -4.66699 1.16699 -10.167 1.5 -16.5s0.5 -12.166 0.5 -17.499c0 -18.667 -2.83301 -34.834 -8.5 -48.501
s-14.167 -26.834 -25.5 -39.501z" />
    <glyph glyph-name="dieresis" unicode="&#xa8;" horiz-adv-x="420" 
d="M64 594l-2 7.99805c0 16 6.16699 28.333 18.5 37s26.833 13 43.5 13h10c16 0 30.333 -5.33301 43 -16s19 -24.667 19 -42c0 -21.333 -7 -38.666 -21 -51.999s-29.667 -20 -47 -20s-32.333 6.33301 -45 19s-19 30.334 -19 53.001zM232 593.998
c0 18.667 6.49902 33 19.499 43s27.833 15 44.5 15s31.834 -5 45.501 -15s20.5 -24.333 20.5 -43c0 -22.667 -6.33301 -40.667 -19 -54s-27.667 -20 -45 -20c-16 0 -31 6.66699 -45 20s-21 31.333 -21 54z" />
    <glyph glyph-name="copyright" unicode="&#xa9;" horiz-adv-x="768" 
d="M446 384c-2.66699 22.667 -11.167 39.334 -25.5 50.001s-31.833 16 -52.5 16c-25.333 0 -46 -13.167 -62 -39.5s-24 -56.5 -24 -90.5c0 -32 6.83301 -59.333 20.5 -82s33.5 -34 59.5 -34c22 0 40 3.66699 54 11c17.333 9.33301 27.333 23.666 30 42.999h90v-10
c0 -34 -15 -64 -45 -90c-34 -29.333 -79 -44 -135 -44c-59.333 0 -107.333 22 -144 66c-33.333 40 -50 88 -50 144c0 54.667 16.333 100.667 49 138c37.333 42.667 87.666 64 150.999 64c42.667 0 79.334 -8 110.001 -24c46.667 -24.667 70 -64 70 -118h-96zM356 562
c-61.333 0 -116.666 -22.333 -165.999 -67c-53.333 -48 -80 -106.333 -80 -175l2 -8c0 -62.667 24.333 -118 73 -166s105.667 -72 171 -72c67.333 0 126.166 22.833 176.499 68.5s75.5 102.167 75.5 169.5v8c0 66 -24.167 122.833 -72.5 170.5s-101.5 71.5 -159.5 71.5h-20z
M356 658c95.333 0 176.834 -31.833 244.501 -95.5s101.5 -145.167 101.5 -244.5c0 -92.667 -32.833 -171.5 -98.5 -236.5s-142.834 -97.5 -231.501 -97.5h-10c-90.667 0 -169.667 30.333 -237 91c-72.667 65.333 -109 148.333 -109 249c0 102 37.333 185 112 249
c66.667 56.667 142.667 85 228 85z" />
    <glyph glyph-name="ordfeminine" unicode="&#xaa;" horiz-adv-x="644" 
d="M4 634h612v-628h-612v628z" />
    <glyph glyph-name="guillemotleft" unicode="&#xab;" horiz-adv-x="420" 
d="M290 258l66 -120h-106l-68 126l68 126h106zM142 258l66 -120h-108l-66 126l66 126h108z" />
    <glyph glyph-name="logicalnot" unicode="&#xac;" horiz-adv-x="614" 
d="M442 300h-386v118h496v-300h-110v182z" />
    <glyph glyph-name="minus" unicode="&#xad;" horiz-adv-x="276" 
d="M0 336h256v-156h-256v156z" />
    <glyph glyph-name="registered" unicode="&#xae;" horiz-adv-x="624" 
d="M356 568c-62.667 0 -117 -21.334 -163 -64.001c-51.333 -48 -77 -110.667 -77 -188l2 -10c0 -55.333 24.167 -106.833 72.5 -154.5s105.5 -71.5 171.5 -71.5c64 0 121 24 171 72s75 99.333 75 154v10c0 62.667 -22.333 119.334 -67 170.001
c-48 54.667 -106.333 82 -175 82h-10zM356 663.999c84 0 159.667 -26.667 227 -80c79.333 -63.333 119 -148 119 -254c0 -84 -27.667 -159.667 -83 -227c-65.333 -79.333 -153 -119 -263 -119h-10c-80.667 0 -153.667 31.667 -219 95c-70 68 -105 149.667 -105 245
c0 102.667 36.333 186.667 109 252c65.333 58.667 140.333 88 225 88zM214 513.999h202c38.667 0 68 -10.667 88 -32c17.333 -18 26 -40.667 26 -68c0 -30 -6 -54.333 -18 -73c-15.333 -23.333 -39.333 -35 -72 -35l72 -144h-102l-60 144h-48v-144h-88v352zM302 455.999v-86
h98c12.667 0 22.5 3.83301 29.5 11.5s10.5 17.167 10.5 28.5c0 10.667 -4 21 -12 31s-17.333 15 -28 15h-98z" />
    <glyph glyph-name="macron" unicode="&#xaf;" horiz-adv-x="502" 
d="M0 650h496v-158h-496v158z" />
    <glyph glyph-name="degree" unicode="&#xb0;" horiz-adv-x="564" 
d="M190 814c0 25.333 9.33301 45.333 28 60s40.667 22 66 22c24 0 45.333 -6.16699 64 -18.5s30 -31.5 34 -57.5v-8c0 -30 -9.83301 -53.833 -29.5 -71.5s-42.5 -26.5 -68.5 -26.5c-24.667 0 -46 8.66699 -64 26c-20 19.333 -30 44 -30 74zM256 808
c0 -20 9.33301 -30.001 28 -30.001c6.66699 0 13.334 2.83301 20.001 8.5s10 12.834 10 21.501s-2.83301 15.167 -8.5 19.5s-12.834 6.5 -21.501 6.5c-18.667 0 -28 -8.66699 -28 -26z" />
    <glyph glyph-name="plusminus" unicode="&#xb1;" horiz-adv-x="574" 
d="M34 0v118h504v-118h-504zM220 418v118h118v-118h198v-118h-198v-142h-118v142l-186 -2v120h186z" />
    <glyph glyph-name="twosuperior" unicode="&#xb2;" horiz-adv-x="460" 
d="M194 730h-118.001v102c16.667 14 37.834 24.167 63.501 30.5s54.5 9.5 86.5 9.5h24c8 0 21.5 -1 40.5 -3s37 -14.667 54 -38s25.5 -49.666 25.5 -78.999c0 -19.333 -4.16699 -38.166 -12.5 -56.499s-20.833 -32.833 -37.5 -43.5c-5.33301 -3.33301 -18 -10 -38 -20
l-62 -30c-20 -6.66699 -30 -21.334 -30 -44.001l12 -2c14 0 24 2.33301 30 7c8.66699 6.66699 14 19.667 16 39h114v-122h-290v100c0 20 4.16699 37.667 12.5 53s23.5 29.666 45.5 42.999l65 33c24.667 12.667 39.667 22 45 28s8 13.667 8 23c0 20 -8 30 -24 30
c-20 0 -30 -11.333 -30 -34v-26z" />
    <glyph glyph-name="threesuperior" unicode="&#xb3;" horiz-adv-x="460" 
d="M74 836c14 12 34.001 22 60.001 30s52 12 78 12c42 0 75 -6.33301 99 -19c32.667 -17.333 49 -46.333 49 -87c0 -24 -3.33301 -42.5 -10 -55.5s-20 -22.5 -40 -28.5c22.667 -12 38 -27.667 46 -47c5.33301 -12.667 8 -31 8 -55c-2.66699 -32 -11.334 -56 -26.001 -72
c-23.333 -25.333 -64 -38 -122 -38c-26 0 -52.333 3.5 -79 10.5s-47.667 16.833 -63 29.5v106h114v-32c0 -20 8 -30 24 -30c6.66699 0.666992 10.667 1.33398 12 2.00098c10.667 6.66699 16 18.667 16 36c0 12 -3.5 22.667 -10.5 32s-16.833 14 -29.5 14h-48v76h36
c18 0 30.833 3.16699 38.5 9.5s11.5 15.166 11.5 26.499v10c-0.666992 8.66699 -3.66699 15.5 -9 20.5s-11 7.5 -17 7.5s-11.5 -2.83301 -16.5 -8.5s-7.5 -12.167 -7.5 -19.5v-24h-114v94z" />
    <glyph glyph-name="acute" unicode="&#xb4;" horiz-adv-x="298" 
d="M64 532l42 114h126l-78 -114h-90z" />
    <glyph glyph-name="mu" unicode="&#xb5;" horiz-adv-x="522" 
d="M60 30c-10 11.333 -17.167 26.165 -21.5 44.498s-6.5 41.5 -6.5 69.5v180c0 14.667 -1.5 25.334 -4.5 32.001s-9.5 13.334 -19.5 20.001v104h192c10.667 -12.667 16 -32.667 16 -60v-204c0 -29.333 2.33301 -52.333 7 -69s13 -25 25 -25
c7.33301 0 16.666 3.33301 27.999 10v198c0 11.333 -1.66699 20.333 -5 27s-9.66602 13 -18.999 19v104h210v-312c0 -28.667 7.33301 -48.667 22 -60v-106h-208v24c-6.66699 -6.66699 -20.334 -13.334 -41.001 -20.001s-43 -10 -67 -10h-38
c2 -13.333 8.33301 -35.333 19 -66c8.66699 -25.333 13 -44.666 13 -57.999c0 -23.333 -5.16699 -42.166 -15.5 -56.499s-25.166 -21.5 -44.499 -21.5c-24 0 -41.333 6.66699 -52 20s-16 32.666 -16 57.999c0 0.666992 5.66699 27.667 17 81c6 28 9 53.667 9 77z" />
    <glyph glyph-name="paragraph" unicode="&#xb6;" horiz-adv-x="726" 
d="M378 214c-76.667 6.66699 -137.667 36 -183 88c-40.667 46.667 -61 102 -61 166c0 66.667 21 123.667 63 171c46.667 52.667 109.667 79 189 79h316v-88h-72v-850h-78v850h-86v-850h-88v434z" />
    <glyph glyph-name="periodcentered" unicode="&#xb7;" horiz-adv-x="298" 
d="M22 288c0 36 11.832 64 35.499 84s51.834 30 84.501 30c32 0 61 -10.5 87 -31.5s39 -48.5 39 -82.5v-12c0 -38.667 -13 -69.334 -39 -92.001c-23.333 -20 -51.666 -30 -84.999 -30c-32.667 0 -60.334 10 -83.001 30c-26 22.667 -39 53.334 -39 92.001v12z" />
    <glyph glyph-name="periodcentered" unicode="&#x2219;" horiz-adv-x="298" 
d="M22 288c0 36 11.832 64 35.499 84s51.834 30 84.501 30c32 0 61 -10.5 87 -31.5s39 -48.5 39 -82.5v-12c0 -38.667 -13 -69.334 -39 -92.001c-23.333 -20 -51.666 -30 -84.999 -30c-32.667 0 -60.334 10 -83.001 30c-26 22.667 -39 53.334 -39 92.001v12z" />
    <glyph glyph-name="onesuperior" unicode="&#xb9;" horiz-adv-x="460" 
d="M152 870h138v-290c0 -14.667 4 -24.667 12 -30v-70h-150v70c7.33301 4 11.833 8 13.5 12s2.5 10 2.5 18v190c0 7.33301 -1 13.333 -3 18s-6.33301 8 -13 10v72z" />
    <glyph glyph-name="ordmasculine" unicode="&#xba;" horiz-adv-x="644" 
d="M2 626h596v-650h-596v650zM58 570v-544h488v544h-488z" />
    <glyph glyph-name="guillemotright" unicode="&#xbb;" horiz-adv-x="420" 
d="M196 120l66 138l-66 126h106l66 -132l-66 -132h-106zM40 120l66 138l-66 126h108l66 -132l-66 -132h-108z" />
    <glyph glyph-name="onequarter" unicode="&#xbc;" horiz-adv-x="860" 
d="M122 710h138v-290c0 -14.667 4 -24.667 12 -30v-70h-150v70c7.33301 4 11.833 8 13.5 12s2.5 10 2.5 18v190c0 7.33301 -1 13.333 -3 18s-6.33301 8 -13 10v72zM444 746h150l-230 -740l-22 -70h-150l234 758zM460 186l136 204h138v-214h26v-84h-26
c0 -4.66699 1.16699 -9.16699 3.5 -13.5s6.5 -7.83301 12.5 -10.5v-68h-158v64c13.333 6 20 15.333 20 28h-152v94zM612 176v78l-54 -78h54z" />
    <glyph glyph-name="onehalf" unicode="&#xbd;" horiz-adv-x="860" 
d="M634 250h-118.001v102c16.667 14 37.834 24.167 63.501 30.5s54.5 9.5 86.5 9.5h24c8 0 21.5 -1 40.5 -3s37 -14.667 54 -38s25.5 -49.666 25.5 -78.999c0 -19.333 -4.16699 -38.166 -12.5 -56.499s-20.833 -32.833 -37.5 -43.5c-5.33301 -3.33301 -18 -10 -38 -20
l-62 -30c-20 -6.66699 -30 -21.334 -30 -44.001l12 -2c14 0 24 2.33301 30 7c8.66699 6.66699 14 19.667 16 39h114v-122h-290v100c0 20 4.16699 37.667 12.5 53s23.5 29.666 45.5 42.999l65 33c24.667 12.667 39.667 22 45 28s8 13.667 8 23c0 20 -8 30 -24 30
c-20 0 -30 -11.333 -30 -34v-26zM121.999 710h138v-290c0 -14.667 4 -24.667 12 -30v-70h-150v70c7.33301 4 11.833 8 13.5 12s2.5 10 2.5 18v190c0 7.33301 -1 13.333 -3 18s-6.33301 8 -13 10v72zM443.999 746h150l-230 -740l-22 -70h-150l234 758z" />
    <glyph glyph-name="threequarters" unicode="&#xbe;" horiz-adv-x="860" 
d="M444 746h150l-230 -740l-22 -70h-150l234 758zM460 186l136 204h138v-214h26v-84h-26c0 -4.66699 1.16699 -9.16699 3.5 -13.5s6.5 -7.83301 12.5 -10.5v-68h-158v64c13.333 6 20 15.333 20 28h-152v94zM612 176v78l-54 -78h54zM4 676c14 12 34.001 22 60.001 30
s52 12 78 12c42 0 75 -6.33301 99 -19c32.667 -17.333 49 -46.333 49 -87c0 -24 -3.33301 -42.5 -10 -55.5s-20 -22.5 -40 -28.5c22.667 -12 38 -27.667 46 -47c5.33301 -12.667 8 -31 8 -55c-2.66699 -32 -11.334 -56 -26.001 -72c-23.333 -25.333 -64 -38 -122 -38
c-26 0 -52.333 3.5 -79 10.5s-47.667 16.833 -63 29.5v106h114v-32c0 -20 8 -30 24 -30c6.66699 0.666992 10.667 1.33398 12 2.00098c10.667 6.66699 16 18.667 16 36c0 12 -3.5 22.667 -10.5 32s-16.833 14 -29.5 14h-48v76h36c18 0 30.833 3.16699 38.5 9.5
s11.5 15.166 11.5 26.499v10c-0.666992 8.66699 -3.66699 15.5 -9 20.5s-11 7.5 -17 7.5s-11.5 -2.83301 -16.5 -8.5s-7.5 -12.167 -7.5 -19.5v-24h-114v94z" />
    <glyph glyph-name="Agrave" unicode="&#xc0;" 
d="M-290 766l-30 -48h-108l90 126h88l90 -126h-102zM-590 928h130l42 -126h-88z" />
    <glyph glyph-name="Aacute" unicode="&#xc1;" 
d="M-290 766l-30 -48h-108l90 126h88l90 -126h-102zM-158 802l42 114h126l-80 -114h-88z" />
    <glyph glyph-name="Acircumflex" unicode="&#xc2;" 
d="M-290 766l-30 -48h-108l90 126h88l90 -126h-102z" />
    <glyph glyph-name="Atilde" unicode="&#xc3;" 
d="M-290 766l-30 -48h-108l90 126h88l90 -126h-102zM-372 894l-72.001 -0.000976562c0 32.667 12.333 58.667 37 78c20.667 16 42.334 24 65.001 24c5.33301 0 24 -4 56 -12c16 -4 28 -6 36 -6c13.333 0 22 4 26 12h66c0 -25.333 -8.83301 -48.666 -26.5 -69.999
s-38.834 -32 -63.501 -32c-12.667 0 -30.667 3.33301 -54 10s-38.666 10 -45.999 10c-12 0 -20 -4.66699 -24 -14z" />
    <glyph glyph-name="Adieresis" unicode="&#xc4;" 
d="M-290 766l-30 -48h-108l90 126h88l90 -126h-102zM-358 -116c0 18.667 6.49902 33 19.499 43s27.833 15 44.5 15s31.834 -5 45.501 -15s20.5 -24.333 20.5 -43c0 -22.667 -6.33301 -40.667 -19 -54s-27.667 -20 -45 -20c-16 0 -31 6.66699 -45 20s-21 31.333 -21 54z" />
    <glyph glyph-name="Aring" unicode="&#xc5;" 
d="M-230 904v20.001c3.33301 30 17.666 52.333 42.999 67c19.333 11.333 42.333 17 69 17h16c26.667 0 49.334 -5.33301 68.001 -16c26 -14.667 40.667 -37.334 44 -68.001v-8c0 -22 -6 -39.667 -18 -53c-5.33301 -6 -17.333 -15 -36 -27
c-10.667 -4.66699 -18.667 -9.66699 -24 -15c-9.33301 -9.33301 -14 -21 -14 -35l-56 -2v40c0 10 5.83301 22 17.5 36l36.5 44v14c0 7.33301 -2.33301 12.833 -7 16.5s-9.66699 5.5 -15 5.5h-18c-4 0 -7.33301 -0.666992 -10 -2c-8 -4 -12 -10.667 -12 -20v-14h-84z
M-290 766.001l-30 -48h-108l90 126h88l90 -126h-102z" />
    <glyph glyph-name="AE" unicode="&#xc6;" horiz-adv-x="318" 
d="M22 652l256.001 0.00195312v-114c-10.667 -8 -17.334 -16.833 -20.001 -26.5s-4 -22.167 -4 -37.5v-288c0 -22.667 1.5 -37.834 4.5 -45.501s9.5 -16.5 19.5 -26.5v-112h-256v112c8.66699 7.33301 14.5 15.333 17.5 24s4.5 18.667 4.5 30v324
c0 10.667 -1.33301 19.667 -4 27s-8.66699 13.666 -18 18.999v114zM30.001 844.002v20.001c3.33301 30 17.666 52.333 42.999 67c19.333 11.333 42.333 17 69 17h16c26.667 0 49.334 -5.33301 68.001 -16c26 -14.667 40.667 -37.334 44 -68.001v-8c0 -22 -6 -39.667 -18 -53
c-5.33301 -6 -17.333 -15 -36 -27c-10.667 -4.66699 -18.667 -9.66699 -24 -15c-9.33301 -9.33301 -14 -21 -14 -35l-56 -2v40c0 10 5.83301 22 17.5 36l36.5 44v14c0 7.33301 -2.33301 12.833 -7 16.5s-9.66699 5.5 -15 5.5h-18c-4 0 -7.33301 -0.666992 -10 -2
c-8 -4 -12 -10.667 -12 -20v-14h-84z" />
    <glyph glyph-name="Ccedilla" unicode="&#xc7;" horiz-adv-x="542" 
d="M228 168c0 -15.333 3.16406 -27.167 9.49707 -35.5s14.5 -12.5 24.5 -12.5s18.5 4.16699 25.5 12.5s10.5 20.166 10.5 35.499v102h204v-208c-14.667 -23.333 -45.167 -42.166 -91.5 -56.499s-95.833 -21.5 -148.5 -21.5v-18h24c16 0 24 -14 24 -42v-60
c0 -14.667 -3.66699 -26 -11 -34s-19.666 -12 -36.999 -12h-76v64h54v48h-18c-7.33301 0 -11.666 1 -12.999 3c-3.33301 4 -5 13 -5 27v30c-63.333 0 -111.666 21.333 -144.999 64c-27.333 35.333 -41 79.333 -41 132v270c0 69.333 18 120.333 54 153s92 49 168 49
c54.667 0 102 -4.83301 142 -14.5s80 -26.167 120 -49.5v-180h-204v66c0 13.333 -3.33301 24.333 -10 33s-14 13 -22 13c-10 0 -18.833 -6.33301 -26.5 -19s-11.5 -31.667 -11.5 -57v-282z" />
    <glyph glyph-name="Egrave" unicode="&#xc8;" 
d="M-436 814l86 -0.000976562c0 -4 2.33301 -7.66699 7 -11c8.66699 -6 23 -9 43 -9c19.333 0 32.833 1.83301 40.5 5.5s11.5 8.5 11.5 14.5h74c0 -34 -15.667 -59.333 -47 -76c-22.667 -12 -50.334 -18 -83.001 -18c-29.333 0 -55.666 5.66699 -78.999 17
c-35.333 16.667 -53 42.334 -53 77.001zM-432 981.999h132l42 -126h-90z" />
    <glyph glyph-name="Eacute" unicode="&#xc9;" 
d="M-436 814l86 -0.000976562c0 -4 2.33301 -7.66699 7 -11c8.66699 -6 23 -9 43 -9c19.333 0 32.833 1.83301 40.5 5.5s11.5 8.5 11.5 14.5h74c0 -34 -15.667 -59.333 -47 -76c-22.667 -12 -50.334 -18 -83.001 -18c-29.333 0 -55.666 5.66699 -78.999 17
c-35.333 16.667 -53 42.334 -53 77.001zM-344 855.999l40 114h126l-78 -114h-88z" />
    <glyph glyph-name="Ecircumflex" unicode="&#xca;" 
d="M-436 814l86 -0.000976562c0 -4 2.33301 -7.66699 7 -11c8.66699 -6 23 -9 43 -9c19.333 0 32.833 1.83301 40.5 5.5s11.5 8.5 11.5 14.5h74c0 -34 -15.667 -59.333 -47 -76c-22.667 -12 -50.334 -18 -83.001 -18c-29.333 0 -55.666 5.66699 -78.999 17
c-35.333 16.667 -53 42.334 -53 77.001z" />
    <glyph glyph-name="Edieresis" unicode="&#xcb;" 
d="M-436 814l86 -0.000976562c0 -4 2.33301 -7.66699 7 -11c8.66699 -6 23 -9 43 -9c19.333 0 32.833 1.83301 40.5 5.5s11.5 8.5 11.5 14.5h74c0 -34 -15.667 -59.333 -47 -76c-22.667 -12 -50.334 -18 -83.001 -18c-29.333 0 -55.666 5.66699 -78.999 17
c-35.333 16.667 -53 42.334 -53 77.001zM-368 -116.001c0 18.667 6.49902 33 19.499 43s27.833 15 44.5 15s31.834 -5 45.501 -15s20.5 -24.333 20.5 -43c0 -22.667 -6.33301 -40.667 -19 -54s-27.667 -20 -45 -20c-16 0 -31 6.66699 -45 20s-21 31.333 -21 54z" />
    <glyph glyph-name="Igrave" unicode="&#xcc;" horiz-adv-x="318" 
d="M62 832h132l42 -126h-90zM22 652l256.001 0.00195312v-114c-10.667 -8 -17.334 -16.833 -20.001 -26.5s-4 -22.167 -4 -37.5v-288c0 -22.667 1.5 -37.834 4.5 -45.501s9.5 -16.5 19.5 -26.5v-112h-256v112c8.66699 7.33301 14.5 15.333 17.5 24s4.5 18.667 4.5 30v324
c0 10.667 -1.33301 19.667 -4 27s-8.66699 13.666 -18 18.999v114z" />
    <glyph glyph-name="Iacute" unicode="&#xcd;" horiz-adv-x="318" 
d="M116 700l42 114h126l-78 -114h-90zM22 652l256.001 0.00195312v-114c-10.667 -8 -17.334 -16.833 -20.001 -26.5s-4 -22.167 -4 -37.5v-288c0 -22.667 1.5 -37.834 4.5 -45.501s9.5 -16.5 19.5 -26.5v-112h-256v112c8.66699 7.33301 14.5 15.333 17.5 24
s4.5 18.667 4.5 30v324c0 10.667 -1.33301 19.667 -4 27s-8.66699 13.666 -18 18.999v114z" />
    <glyph glyph-name="Icircumflex" unicode="&#xce;" horiz-adv-x="542" 
d="M0 652l234 -0.00390625v-90c0 -19.333 3.33301 -39 10 -59c4.66699 -14 12.667 -31.667 24 -53c12 16.667 21 34.834 27 54.501s9 38.834 9 57.501v90h210v-114c-19.333 -19.333 -35.333 -40.666 -48 -63.999l-108 -222v-84c0 -15.333 1.66699 -26.5 5 -33.5
s9.66602 -13.833 18.999 -20.5v-112h-252v112c10.667 8 17.334 15.5 20.001 22.5s4 17.5 4 31.5v78l-100 204c-8.66699 21.333 -16 38 -22 50c-11.333 22.667 -22 35.334 -32 38.001v114zM192 -116.004c0 18.667 6.49902 33 19.499 43s27.833 15 44.5 15
s31.834 -5 45.501 -15s20.5 -24.333 20.5 -43c0 -22.667 -6.33301 -40.667 -19 -54s-27.667 -20 -45 -20c-16 0 -31 6.66699 -45 20s-21 31.333 -21 54z" />
    <glyph glyph-name="Idieresis" unicode="&#xcf;" 
d="M-358 -116c0 18.667 6.49902 33 19.499 43s27.833 15 44.5 15s31.834 -5 45.501 -15s20.5 -24.333 20.5 -43c0 -22.667 -6.33301 -40.667 -19 -54s-27.667 -20 -45 -20c-16 0 -31 6.66699 -45 20s-21 31.333 -21 54z" />
    <glyph glyph-name="Ntilde" unicode="&#xd1;" horiz-adv-x="564" 
d="M46 280l-17.998 0.000976562v110h18v90c0 10 -2.33301 20.5 -7 31.5s-12.334 17.833 -23.001 20.5v120h304c61.333 0 108.333 -10 141 -30c50 -30.667 75 -84 75 -160v-258c0 -60 -12.333 -105.667 -37 -137c-34 -43.333 -91.667 -65 -173 -65h-310v118
c13.333 5.33301 21.666 12.166 24.999 20.499s5 21.5 5 39.5v100zM256.002 280.001v-142l18 -2c15.333 0 27.833 4.5 37.5 13.5s14.5 23.833 14.5 44.5v268c0 19.333 -5.16699 31.833 -15.5 37.5s-28.5 8.5 -54.5 8.5v-118h42v-110h-42z" />
    <glyph glyph-name="Ograve" unicode="&#xd2;" horiz-adv-x="318" 
d="M22 652l256.001 0.00195312v-114c-10.667 -8 -17.334 -16.833 -20.001 -26.5s-4 -22.167 -4 -37.5v-288c0 -22.667 1.5 -37.834 4.5 -45.501s9.5 -16.5 19.5 -26.5v-112h-256v112c8.66699 7.33301 14.5 15.333 17.5 24s4.5 18.667 4.5 30v324
c0 10.667 -1.33301 19.667 -4 27s-8.66699 13.666 -18 18.999v114zM92.001 -115.998c0 18.667 6.49902 33 19.499 43s27.833 15 44.5 15s31.834 -5 45.501 -15s20.5 -24.333 20.5 -43c0 -22.667 -6.33301 -40.667 -19 -54s-27.667 -20 -45 -20c-16 0 -31 6.66699 -45 20
s-21 31.333 -21 54z" />
    <glyph glyph-name="Oacute" unicode="&#xd3;" horiz-adv-x="318" 
d="M22 652l256.001 0.00195312v-114c-10.667 -8 -17.334 -16.833 -20.001 -26.5s-4 -22.167 -4 -37.5v-288c0 -22.667 1.5 -37.834 4.5 -45.501s9.5 -16.5 19.5 -26.5v-112h-256v112c8.66699 7.33301 14.5 15.333 17.5 24s4.5 18.667 4.5 30v324
c0 10.667 -1.33301 19.667 -4 27s-8.66699 13.666 -18 18.999v114zM78.001 724.002l-72.001 -0.000976562c0 32.667 12.333 58.667 37 78c20.667 16 42.334 24 65.001 24c5.33301 0 24 -4 56 -12c16 -4 28 -6 36 -6c13.333 0 22 4 26 12h66
c0 -25.333 -8.83301 -48.666 -26.5 -69.999s-38.834 -32 -63.501 -32c-12.667 0 -30.667 3.33301 -54 10s-38.666 10 -45.999 10c-12 0 -20 -4.66699 -24 -14z" />
    <glyph glyph-name="Ocircumflex" unicode="&#xd4;" horiz-adv-x="564" 
d="M502 564c5.33301 -10.667 9.33301 -24.167 12 -40.5s4 -32.833 4 -49.5v-294c0 -64 -17.333 -111 -52 -141c-38 -32.667 -100 -49 -186 -49c-88 0 -152 17.333 -192 52s-60 87.334 -60 158.001v268c0 66.667 20.333 116 61 148s104.334 48 191.001 48
c95.333 0 160.666 -18.667 195.999 -56c15.333 17.333 24.666 32.666 27.999 45.999c-22 0 -39.833 7.5 -53.5 22.5s-20.5 32.167 -20.5 51.5c0 18.667 6.66699 35 20 49s31.333 21 54 21c28 0 49.667 -8 65 -24s23 -36.667 23 -62c0 -22 -4.66699 -43.333 -14 -64
c-19.333 -32.667 -44.666 -60.667 -75.999 -84zM314 194l0.000976562 274.001c0 17.333 -0.333008 27.666 -1 30.999c-2.66699 14 -13.667 21 -33 21c-28 0 -42 -17.333 -42 -52v-274c0 -25.333 3.66699 -42 11 -50s17.666 -12 30.999 -12c22.667 0 34 20.667 34 62z" />
    <glyph glyph-name="Otilde" unicode="&#xd5;" 
d="M-362 724l-72.001 -0.000976562c0 32.667 12.333 58.667 37 78c20.667 16 42.334 24 65.001 24c5.33301 0 24 -4 56 -12c16 -4 28 -6 36 -6c13.333 0 22 4 26 12h66c0 -25.333 -8.83301 -48.666 -26.5 -69.999s-38.834 -32 -63.501 -32c-12.667 0 -30.667 3.33301 -54 10
s-38.666 10 -45.999 10c-12 0 -20 -4.66699 -24 -14z" />
    <glyph glyph-name="Odieresis" unicode="&#xd6;" horiz-adv-x="564" 
d="M512 586v-386.001c0 -42 -5 -75.667 -15 -101c-16.667 -42 -47.667 -72.333 -93 -91c-13.333 -6.66699 -31.5 -11.667 -54.5 -15s-46.167 -5 -69.5 -5c-26.667 0 -51.334 1.66699 -74.001 5s-42 8.33301 -58 15c-43.333 19.333 -73.666 47 -90.999 83
c-11.333 24 -17 53 -17 87v300c0 13.333 -1.33301 24.166 -4 32.499s-9.33398 15.5 -20.001 21.5v120h252v-120c-10.667 -5.33301 -17.334 -13.666 -20.001 -24.999s-4 -26.333 -4 -45v-252c0 -26.667 0.333008 -42 1 -46c3.33301 -21.333 16.333 -32 39 -32
c14.667 0 24.334 4.16699 29.001 12.5s7 20.833 7 37.5v298c0 14.667 -1.33301 26 -4 34s-9.33398 14 -20.001 18v120h210c10.667 12.667 16.667 23.334 18 32.001c-22 0 -39.833 7.5 -53.5 22.5s-20.5 32.167 -20.5 51.5c0 18.667 6.66699 35 20 49s31.333 21 54 21
c28 0 49.667 -8 65 -24s23 -36.667 23 -62c0 -22 -4.66699 -43.333 -14 -64c-11.333 -19.333 -23.666 -36.5 -36.999 -51.5s-29.666 -28.5 -48.999 -40.5z" />
    <glyph glyph-name="multiply" unicode="&#xd7;" horiz-adv-x="604" 
d="M300 180l-170 -170l-82 82l170 170l-170 170l82 82l170 -170l170 170l82 -82l-170 -170l170 -170l-82 -82z" />
    <glyph glyph-name="Oslash" unicode="&#xd8;" 
d="M-370 838h130l42 -126h-88z" />
    <glyph glyph-name="Ugrave" unicode="&#xd9;" 
d="M-328 712l42 114h126l-80 -114h-88z" />
    <glyph glyph-name="Uacute" unicode="&#xda;" 
d="M-436 814l86 -0.000976562c0 -4 2.33301 -7.66699 7 -11c8.66699 -6 23 -9 43 -9c19.333 0 32.833 1.83301 40.5 5.5s11.5 8.5 11.5 14.5h74c0 -34 -15.667 -59.333 -47 -76c-22.667 -12 -50.334 -18 -83.001 -18c-29.333 0 -55.666 5.66699 -78.999 17
c-35.333 16.667 -53 42.334 -53 77.001zM-420 973.999v20.001c3.33301 30 17.666 52.333 42.999 67c19.333 11.333 42.333 17 69 17h16c26.667 0 49.334 -5.33301 68.001 -16c26 -14.667 40.667 -37.334 44 -68.001v-8c0 -22 -6 -39.667 -18 -53
c-5.33301 -6 -17.333 -15 -36 -27c-10.667 -4.66699 -18.667 -9.66699 -24 -15c-9.33301 -9.33301 -14 -21 -14 -35l-56 -2v40c0 10 5.83301 22 17.5 36l36.5 44v14c0 7.33301 -2.33301 12.833 -7 16.5s-9.66699 5.5 -15 5.5h-18c-4 0 -7.33301 -0.666992 -10 -2
c-8 -4 -12 -10.667 -12 -20v-14h-84z" />
    <glyph glyph-name="Ucircumflex" unicode="&#xdb;" 
d="M-400 844v20.001c3.33301 30 17.666 52.333 42.999 67c19.333 11.333 42.333 17 69 17h16c26.667 0 49.334 -5.33301 68.001 -16c26 -14.667 40.667 -37.334 44 -68.001v-8c0 -22 -6 -39.667 -18 -53c-5.33301 -6 -17.333 -15 -36 -27
c-10.667 -4.66699 -18.667 -9.66699 -24 -15c-9.33301 -9.33301 -14 -21 -14 -35l-56 -2v40c0 10 5.83301 22 17.5 36l36.5 44v14c0 7.33301 -2.33301 12.833 -7 16.5s-9.66699 5.5 -15 5.5h-18c-4 0 -7.33301 -0.666992 -10 -2c-8 -4 -12 -10.667 -12 -20v-14h-84z" />
    <glyph glyph-name="Udieresis" unicode="&#xdc;" 
d="M-436 814l86 -0.000976562c0 -4 2.33301 -7.66699 7 -11c8.66699 -6 23 -9 43 -9c19.333 0 32.833 1.83301 40.5 5.5s11.5 8.5 11.5 14.5h74c0 -34 -15.667 -59.333 -47 -76c-22.667 -12 -50.334 -18 -83.001 -18c-29.333 0 -55.666 5.66699 -78.999 17
c-35.333 16.667 -53 42.334 -53 77.001zM-272 863.999l-72.001 -0.000976562c0 32.667 12.333 58.667 37 78c20.667 16 42.334 24 65.001 24c5.33301 0 24 -4 56 -12c16 -4 28 -6 36 -6c13.333 0 22 4 26 12h66c0 -25.333 -8.83301 -48.666 -26.5 -69.999
s-38.834 -32 -63.501 -32c-12.667 0 -30.667 3.33301 -54 10s-38.666 10 -45.999 10c-12 0 -20 -4.66699 -24 -14z" />
    <glyph glyph-name="Yacute" unicode="&#xdd;" horiz-adv-x="318" 
d="M22 652l256.001 0.00195312v-114c-10.667 -8 -17.334 -16.833 -20.001 -26.5s-4 -22.167 -4 -37.5v-288c0 -22.667 1.5 -37.834 4.5 -45.501s9.5 -16.5 19.5 -26.5v-112h-256v112c8.66699 7.33301 14.5 15.333 17.5 24s4.5 18.667 4.5 30v324
c0 10.667 -1.33301 19.667 -4 27s-8.66699 13.666 -18 18.999v114zM156.001 768.002l-30 -50h-108l90 126h90l88 -126h-100z" />
    <glyph glyph-name="Thorn" unicode="&#xde;" horiz-adv-x="564" 
d="M52 484l0.00195312 190c0 12.667 -1.33301 22.5 -4 29.5s-9.33398 12.5 -20.001 16.5v118h252v-118c-7.33301 -4 -12.5 -8.5 -15.5 -13.5s-4.5 -11.833 -4.5 -20.5v-34h72c55.333 0 102.333 -13.333 141 -40c46 -32 69 -78 69 -138v-110c0 -118.667 -66 -178 -198 -178
h-82l-2 -32c0 -8.66699 1.5 -15.5 4.5 -20.5s8.16699 -9.5 15.5 -13.5v-118h-252v118c9.33301 3.33301 15.666 9 18.999 17s5 17.667 5 29v318zM262.002 508v-184.001l18 -2c16 0 28.667 4.33301 38 13s14 22.334 14 41.001v74c0 22.667 -5 38 -15 46s-28.333 12 -55 12z
" />
    <glyph glyph-name="agrave" unicode="&#xe0;" 
d="M-264 588l-30 -50h-108l90 126h90l88 -126h-100zM-556 754h132l40 -126h-88z" />
    <glyph glyph-name="aacute" unicode="&#xe1;" 
d="M-264 588l-30 -50h-108l90 126h90l88 -126h-100zM-144 628l42 114h124l-76 -114h-90z" />
    <glyph glyph-name="acircumflex" unicode="&#xe2;" 
d="M-264 588l-30 -50h-108l90 126h90l88 -126h-100z" />
    <glyph glyph-name="atilde" unicode="&#xe3;" 
d="M-264 588l-30 -50h-108l90 126h90l88 -126h-100zM-334 706l-72.002 0.000976562c0 32.667 12.333 58.667 37 78c20.667 16 42.334 24 65.001 24c8 0 23 -3 45 -9s37.667 -9 47 -9c13.333 0 22 4 26 12h68c0 -24.667 -9.16699 -47.834 -27.5 -69.501
s-39.166 -32.5 -62.499 -32.5c-12 0 -26 2 -42 6c-36.667 9.33301 -56.667 14 -60 14c-12 0 -20 -4.66699 -24 -14z" />
    <glyph glyph-name="adieresis" unicode="&#xe4;" 
d="M-264 588l-30 -50h-108l90 126h90l88 -126h-100zM-328 -116c0 18.667 6.49902 33 19.499 43s27.833 15 44.5 15s31.834 -5 45.501 -15s20.5 -24.333 20.5 -43c0 -22.667 -6.33301 -40.667 -19 -54s-27.667 -20 -45 -20c-16 0 -31 6.66699 -45 20s-21 31.333 -21 54z" />
    <glyph glyph-name="aring" unicode="&#xe5;" 
d="M-264 588l-30 -50h-108l90 126h90l88 -126h-100zM-220 724v20.001c3.33301 30 17.666 52.333 42.999 67c19.333 11.333 42.333 17 69 17h16c26.667 0 49.334 -5.33301 68.001 -16c26 -14.667 40.667 -37.334 44 -68.001v-8c0 -22 -6 -39.667 -18 -53
c-5.33301 -6 -17.333 -15 -36 -27c-10.667 -4.66699 -18.667 -9.66699 -24 -15c-9.33301 -9.33301 -14 -21 -14 -35l-56 -2v40c0 10 5.83301 22 17.5 36l36.5 44v14c0 7.33301 -2.33301 12.833 -7 16.5s-9.66699 5.5 -15 5.5h-18c-4 0 -7.33301 -0.666992 -10 -2
c-8 -4 -12 -10.667 -12 -20v-14h-84z" />
    <glyph glyph-name="ae" unicode="&#xe6;" horiz-adv-x="276" 
d="M12 484h203.999v-304c0 -22 1.33301 -38.167 4 -48.5s9.33398 -18.166 20.001 -23.499v-106h-228v106c10.667 5.33301 17.334 13 20.001 23s4 22.333 4 37v126c0 23.333 -1.33301 41.166 -4 53.499s-9.33398 19.833 -20.001 22.5v114zM-0.000976562 664v20.001
c3.33301 30 17.666 52.333 42.999 67c19.333 11.333 42.333 17 69 17h16c26.667 0 49.334 -5.33301 68.001 -16c26 -14.667 40.667 -37.334 44 -68.001v-8c0 -22 -6 -39.667 -18 -53c-5.33301 -6 -17.333 -15 -36 -27c-10.667 -4.66699 -18.667 -9.66699 -24 -15
c-9.33301 -9.33301 -14 -21 -14 -35l-56 -2v40c0 10 5.83301 22 17.5 36l36.5 44v14c0 7.33301 -2.33301 12.833 -7 16.5s-9.66699 5.5 -15 5.5h-18c-4 0 -7.33301 -0.666992 -10 -2c-8 -4 -12 -10.667 -12 -20v-14h-84z" />
    <glyph glyph-name="ccedilla" unicode="&#xe7;" horiz-adv-x="482" 
d="M22 150v173.998c0 56.667 13.667 96.667 41 120c30.667 26.667 85 40 163 40c45.333 0 84.5 -4 117.5 -12s63.167 -23.333 90.5 -46v-126h-166v30c0 16.667 -1 27.334 -3 32.001c-4 9.33301 -13 14 -27 14s-23.5 -4.66699 -28.5 -14s-7.5 -24 -7.5 -44v-150
c0 -24 1.5 -41 4.5 -51s11.5 -15 25.5 -15s23.5 5 28.5 15s7.5 25 7.5 45v42h166v-148c-23.333 -24 -56 -41.667 -98 -53c-32 -8.66699 -66.667 -13 -104 -13v-18h18c16 0 24 -12 24 -36v-72c0 -16.667 -3.33301 -27.5 -10 -32.5s-16.667 -7.5 -30 -7.5h-80v64h54v42
c-12.667 0 -22.167 1.33301 -28.5 4s-9.5 9.33398 -9.5 20.001v42c-58 10 -98 28.667 -120 56c-18.667 23.333 -28 56 -28 98z" />
    <glyph glyph-name="egrave" unicode="&#xe8;" 
d="M-386 634l86 -0.000976562c0 -4 2.33301 -7.66699 7 -11c8.66699 -6 23 -9 43 -9c19.333 0 32.833 1.83301 40.5 5.5s11.5 8.5 11.5 14.5h74c0 -34 -15.667 -59.333 -47 -76c-22.667 -12 -50.334 -18 -83.001 -18c-29.333 0 -55.666 5.66699 -78.999 17
c-35.333 16.667 -53 42.334 -53 77.001zM-378 797.999h132l40 -126h-88z" />
    <glyph glyph-name="eacute" unicode="&#xe9;" 
d="M-386 634l86 -0.000976562c0 -4 2.33301 -7.66699 7 -11c8.66699 -6 23 -9 43 -9c19.333 0 32.833 1.83301 40.5 5.5s11.5 8.5 11.5 14.5h74c0 -34 -15.667 -59.333 -47 -76c-22.667 -12 -50.334 -18 -83.001 -18c-29.333 0 -55.666 5.66699 -78.999 17
c-35.333 16.667 -53 42.334 -53 77.001zM-296 677.999l44 114h124l-76 -114h-92z" />
    <glyph glyph-name="ecircumflex" unicode="&#xea;" 
d="M-386 634l86 -0.000976562c0 -4 2.33301 -7.66699 7 -11c8.66699 -6 23 -9 43 -9c19.333 0 32.833 1.83301 40.5 5.5s11.5 8.5 11.5 14.5h74c0 -34 -15.667 -59.333 -47 -76c-22.667 -12 -50.334 -18 -83.001 -18c-29.333 0 -55.666 5.66699 -78.999 17
c-35.333 16.667 -53 42.334 -53 77.001z" />
    <glyph glyph-name="edieresis" unicode="&#xeb;" 
d="M-386 634l86 -0.000976562c0 -4 2.33301 -7.66699 7 -11c8.66699 -6 23 -9 43 -9c19.333 0 32.833 1.83301 40.5 5.5s11.5 8.5 11.5 14.5h74c0 -34 -15.667 -59.333 -47 -76c-22.667 -12 -50.334 -18 -83.001 -18c-29.333 0 -55.666 5.66699 -78.999 17
c-35.333 16.667 -53 42.334 -53 77.001zM-328 -116.001c0 18.667 6.49902 33 19.499 43s27.833 15 44.5 15s31.834 -5 45.501 -15s20.5 -24.333 20.5 -43c0 -22.667 -6.33301 -40.667 -19 -54s-27.667 -20 -45 -20c-16 0 -31 6.66699 -45 20s-21 31.333 -21 54z" />
    <glyph glyph-name="igrave" unicode="&#xec;" horiz-adv-x="276" 
d="M42 664h130l44 -126h-92zM12 484h203.999v-304c0 -22 1.33301 -38.167 4 -48.5s9.33398 -18.166 20.001 -23.499v-106h-228v106c10.667 5.33301 17.334 13 20.001 23s4 22.333 4 37v126c0 23.333 -1.33301 41.166 -4 53.499s-9.33398 19.833 -20.001 22.5v114z" />
    <glyph glyph-name="iacute" unicode="&#xed;" horiz-adv-x="276" 
d="M72 538l42 114h126l-80 -114h-88zM12 484h203.999v-304c0 -22 1.33301 -38.167 4 -48.5s9.33398 -18.166 20.001 -23.499v-106h-228v106c10.667 5.33301 17.334 13 20.001 23s4 22.333 4 37v126c0 23.333 -1.33301 41.166 -4 53.499s-9.33398 19.833 -20.001 22.5v114z
" />
    <glyph glyph-name="icircumflex" unicode="&#xee;" horiz-adv-x="482" 
d="M-2 480l240.001 -0.000976562v-110c-6 0 -10.833 -2.16699 -14.5 -6.5s-5.5 -9.5 -5.5 -15.5c0 -8 1.66699 -17.667 5 -29c6 -19.333 9 -29.666 9 -30.999l24 -78l18 78l10 60c0 14.667 -5.33301 22 -16 22v110h202v-110c-10 -6.66699 -18.333 -19.667 -25 -39
c-7.33301 -24.667 -13 -43 -17 -55l-96 -298c-16 -51.333 -29 -84.333 -39 -99c-12 -18 -32.333 -32.333 -61 -43c-20 -8 -43.333 -12 -70 -12c-14.667 0 -30 1.66699 -46 5s-29.333 7 -40 11v108c22 0 38.667 4.5 50 13.5s18.666 20.5 21.999 34.5l-90 250l-21 66
c-10.667 30.667 -23.667 50 -39 58v110zM372.001 -116.001c0 18.667 6.49902 33 19.499 43s27.833 15 44.5 15s31.834 -5 45.501 -15s20.5 -24.333 20.5 -43c0 -22.667 -6.33301 -40.667 -19 -54s-27.667 -20 -45 -20c-16 0 -31 6.66699 -45 20s-21 31.333 -21 54z" />
    <glyph glyph-name="idieresis" unicode="&#xef;" 
d="M-328 -116c0 18.667 6.49902 33 19.499 43s27.833 15 44.5 15s31.834 -5 45.501 -15s20.5 -24.333 20.5 -43c0 -22.667 -6.33301 -40.667 -19 -54s-27.667 -20 -45 -20c-16 0 -31 6.66699 -45 20s-21 31.333 -21 54z" />
    <glyph glyph-name="ntilde" unicode="&#xf1;" horiz-adv-x="502" 
d="M242 510l-54.0029 0.00292969v110h54v32h198v-32h22v-110h-22v-316c0 -33.333 1.66699 -54.833 5 -64.5s9 -16.834 17 -21.501v-106h-202v18c-10.667 -10.667 -27 -18.334 -49 -23.001s-45.667 -7 -71 -7c-36.667 0 -66 10.333 -88 31c-25.333 24 -38 59.667 -38 107
l2 16v198c0 39.333 7.66699 70.666 23 93.999c20.667 32 54.334 48 101.001 48h12c24 0 42.833 -1.66699 56.5 -5s30.834 -11 51.501 -23c0 9.33301 -1.66699 20 -5 32s-7.66602 19.333 -12.999 22zM259.997 132.003l0.000976562 210
c-4.66699 2.66699 -10.334 4.66699 -17.001 6s-13 2 -19 2c-20 0 -30 -16.667 -30 -50v-96c0 -53.333 12 -80 36 -80c13.333 4 23.333 6.66699 30 8z" />
    <glyph glyph-name="ograve" unicode="&#xf2;" horiz-adv-x="276" 
d="M18 480h204v-312c0 -16 1.83301 -29 5.5 -39s9.16699 -15 16.5 -15v-112h-226v106c7.33301 4 12.166 8.5 14.499 13.5s3.5 11.833 3.5 20.5v176c0 14 -1.16699 23.667 -3.5 29s-7.16602 11 -14.499 17v116zM24 588c0 24 10.1689 42.667 30.502 56s43.5 20 69.5 20
c26.667 0 49.667 -6.5 69 -19.5s29 -31.833 29 -56.5c0 -26.667 -9.83301 -46.667 -29.5 -60s-43.834 -20 -72.501 -20c-26.667 0 -49.334 7.66699 -68.001 23s-28 34.333 -28 57zM62.002 -116c0 18.667 6.49902 33 19.499 43s27.833 15 44.5 15s31.834 -5 45.501 -15
s20.5 -24.333 20.5 -43c0 -22.667 -6.33301 -40.667 -19 -54s-27.667 -20 -45 -20c-16 0 -31 6.66699 -45 20s-21 31.333 -21 54z" />
    <glyph glyph-name="oacute" unicode="&#xf3;" horiz-adv-x="276" 
d="M12 484h203.999v-304c0 -22 1.33301 -38.167 4 -48.5s9.33398 -18.166 20.001 -23.499v-106h-228v106c10.667 5.33301 17.334 13 20.001 23s4 22.333 4 37v126c0 23.333 -1.33301 41.166 -4 53.499s-9.33398 19.833 -20.001 22.5v114zM45.999 556l-72.002 0.000976562
c0 32.667 12.333 58.667 37 78c20.667 16 42.334 24 65.001 24c8 0 23 -3 45 -9s37.667 -9 47 -9c13.333 0 22 4 26 12h68c0 -24.667 -9.16699 -47.834 -27.5 -69.501s-39.166 -32.5 -62.499 -32.5c-12 0 -26 2 -42 6c-36.667 9.33301 -56.667 14 -60 14
c-12 0 -20 -4.66699 -24 -14z" />
    <glyph glyph-name="ocircumflex" unicode="&#xf4;" horiz-adv-x="482" 
d="M430 410c4 -9.33301 6.66895 -20.167 8.00195 -32.5s2 -26.166 2 -41.499v-180c0 -64.667 -17.667 -108.334 -53 -131.001c-30 -19.333 -83.667 -29 -161 -29s-131.333 10.667 -162 32c-36 25.333 -54 72 -54 140v168c0 57.333 15.667 97.333 47 120
s87.666 34 168.999 34c92 0 152.667 -14.667 182 -44c14 14 22.667 27.333 26 40c-18 0 -32.833 6.16699 -44.5 18.5s-17.5 26.833 -17.5 43.5c0 14.667 5.66699 27.667 17 39s26.333 17 45 17c23.333 0 41.166 -6.5 53.499 -19.5s18.5 -29.833 18.5 -50.5
c0 -16.667 -4 -34 -12 -52c-9.33301 -15.333 -18.333 -28 -27 -38c-10.667 -12.667 -23 -24 -37 -34zM262.002 155.999v186c0 12.667 -3.5 22.5 -10.5 29.5s-15.5 10.5 -25.5 10.5s-18.5 -3.83301 -25.5 -11.5s-10.5 -19.167 -10.5 -34.5v-180
c0 -15.333 3.5 -27.166 10.5 -35.499s15.5 -12.5 25.5 -12.5s18.5 4.16699 25.5 12.5s10.5 20.166 10.5 35.499z" />
    <glyph glyph-name="otilde" unicode="&#xf5;" 
d="M-324 556l-72.002 0.000976562c0 32.667 12.333 58.667 37 78c20.667 16 42.334 24 65.001 24c8 0 23 -3 45 -9s37.667 -9 47 -9c13.333 0 22 4 26 12h68c0 -24.667 -9.16699 -47.834 -27.5 -69.501s-39.166 -32.5 -62.499 -32.5c-12 0 -26 2 -42 6
c-36.667 9.33301 -56.667 14 -60 14c-12 0 -20 -4.66699 -24 -14z" />
    <glyph glyph-name="odieresis" unicode="&#xf6;" horiz-adv-x="522" 
d="M462 468l15.0029 17c9.33301 11.333 15 21.666 17 30.999c-18 0 -32.833 6.16699 -44.5 18.5s-17.5 26.833 -17.5 43.5c0 14.667 5.66699 27.667 17 39s26.333 17 45 17c23.333 0 41.166 -6.5 53.499 -19.5s18.5 -29.833 18.5 -50.5c0 -16.667 -4 -34 -12 -52
c-8.66699 -14.667 -19.334 -29 -32.001 -43s-26.667 -25.667 -42 -35l-18 -12v-254c0 -28.667 7.33301 -48.667 22 -60v-106h-208v24c-6.66699 -6.66699 -20.334 -13.334 -41.001 -20.001s-43 -10 -67 -10c-51.333 0 -86.833 11.5 -106.5 34.5s-29.5 60.833 -29.5 113.5v180
c0 14.667 -1.5 25.334 -4.5 32.001s-9.5 13.334 -19.5 20.001v104h192c10.667 -12.667 16 -32.667 16 -60v-204c0 -29.333 2.33301 -52.333 7 -69s13 -25 25 -25c7.33301 0 16.666 3.33301 27.999 10v198c0 11.333 -1.66699 20.333 -5 27s-9.66602 13 -18.999 19v104h210
v-12z" />
    <glyph glyph-name="divide" unicode="&#xf7;" horiz-adv-x="614" 
d="M52 208v116h504v-116h-504zM304 174c22 0 41.167 -8.16699 57.5 -24.5s24.5 -35.5 24.5 -57.5c0 -22.667 -8 -42 -24 -58s-35.333 -24 -58 -24c-23.333 0 -42.833 7.83301 -58.5 23.5s-23.5 35.167 -23.5 58.5c0 22 7.83301 41.167 23.5 57.5s35.167 24.5 58.5 24.5z
M304 522c22 0 41.167 -8.16699 57.5 -24.5s24.5 -35.5 24.5 -57.5c0 -22.667 -8 -42 -24 -58s-35.333 -24 -58 -24c-23.333 0 -42.833 7.83301 -58.5 23.5s-23.5 35.167 -23.5 58.5c0 22 7.83301 41.167 23.5 57.5s35.167 24.5 58.5 24.5z" />
    <glyph glyph-name="oslash" unicode="&#xf8;" 
d="M-366 664h132l40 -126h-88z" />
    <glyph glyph-name="ugrave" unicode="&#xf9;" 
d="M-324 538l42 114h124l-76 -114h-90z" />
    <glyph glyph-name="uacute" unicode="&#xfa;" 
d="M-386 634l86 -0.000976562c0 -4 2.33301 -7.66699 7 -11c8.66699 -6 23 -9 43 -9c19.333 0 32.833 1.83301 40.5 5.5s11.5 8.5 11.5 14.5h74c0 -34 -15.667 -59.333 -47 -76c-22.667 -12 -50.334 -18 -83.001 -18c-29.333 0 -55.666 5.66699 -78.999 17
c-35.333 16.667 -53 42.334 -53 77.001zM-370 793.999v20.001c3.33301 30 17.666 52.333 42.999 67c19.333 11.333 42.333 17 69 17h16c26.667 0 49.334 -5.33301 68.001 -16c26 -14.667 40.667 -37.334 44 -68.001v-8c0 -22 -6 -39.667 -18 -53
c-5.33301 -6 -17.333 -15 -36 -27c-10.667 -4.66699 -18.667 -9.66699 -24 -15c-9.33301 -9.33301 -14 -21 -14 -35l-56 -2v40c0 10 5.83301 22 17.5 36l36.5 44v14c0 7.33301 -2.33301 12.833 -7 16.5s-9.66699 5.5 -15 5.5h-18c-4 0 -7.33301 -0.666992 -10 -2
c-8 -4 -12 -10.667 -12 -20v-14h-84z" />
    <glyph glyph-name="ucircumflex" unicode="&#xfb;" horiz-adv-x="522" 
d="M8 480l192.001 -0.000976562c10.667 -12.667 16 -32.667 16 -60v-204c0 -29.333 2.33301 -52.333 7 -69s13 -25 25 -25c7.33301 0 16.666 3.33301 27.999 10v198c0 11.333 -1.66699 20.333 -5 27s-9.66602 13 -18.999 19v104h210v-312c0 -28.667 7.33301 -48.667 22 -60
v-106h-208v24c-6.66699 -6.66699 -20.334 -13.334 -41.001 -20.001s-43 -10 -67 -10c-51.333 0 -86.833 11.5 -106.5 34.5s-29.5 60.833 -29.5 113.5v180c0 14.667 -1.5 25.334 -4.5 32.001s-9.5 13.334 -19.5 20.001v104zM231.001 592.999l-30 -50h-108l90 126h90l88 -126
h-100z" />
    <glyph glyph-name="udieresis" unicode="&#xfc;" 
d="M-386 634l86 -0.000976562c0 -4 2.33301 -7.66699 7 -11c8.66699 -6 23 -9 43 -9c19.333 0 32.833 1.83301 40.5 5.5s11.5 8.5 11.5 14.5h74c0 -34 -15.667 -59.333 -47 -76c-22.667 -12 -50.334 -18 -83.001 -18c-29.333 0 -55.666 5.66699 -78.999 17
c-35.333 16.667 -53 42.334 -53 77.001zM-214 685.999l-72.002 0.000976562c0 32.667 12.333 58.667 37 78c20.667 16 42.334 24 65.001 24c8 0 23 -3 45 -9s37.667 -9 47 -9c13.333 0 22 4 26 12h68c0 -24.667 -9.16699 -47.834 -27.5 -69.501s-39.166 -32.5 -62.499 -32.5
c-12 0 -26 2 -42 6c-36.667 9.33301 -56.667 14 -60 14c-12 0 -20 -4.66699 -24 -14z" />
    <glyph glyph-name="yacute" unicode="&#xfd;" horiz-adv-x="276" 
d="M12 484h203.999v-304c0 -22 1.33301 -38.167 4 -48.5s9.33398 -18.166 20.001 -23.499v-106h-228v106c10.667 5.33301 17.334 13 20.001 23s4 22.333 4 37v126c0 23.333 -1.33301 41.166 -4 53.499s-9.33398 19.833 -20.001 22.5v114zM110.999 588l-30 -50h-108l90 126
h90l88 -126h-100z" />
    <glyph glyph-name="thorn" unicode="&#xfe;" horiz-adv-x="522" 
d="M222 482l0.00195312 -25.998c18 10.667 36.167 19 54.5 25s40.166 9 65.499 9c88 0 132 -40 132 -120v-214c0 -40 -4.66699 -70.333 -14 -91c-17.333 -38 -50.666 -61 -99.999 -69l-32 -2c-20.667 0 -39.834 2.5 -57.501 7.5s-33.834 13.167 -48.501 24.5
c0 -24 1.33301 -42.333 4 -55s9.33398 -20.334 20.001 -23.001v-118h-226v118c10.667 5.33301 17.334 12.666 20.001 21.999s4 22 4 38v488c0 15.333 -1.33301 27.833 -4 37.5s-9.33398 17.167 -20.001 22.5v118h226v-118c-10.667 -2.66699 -17.334 -9.66699 -20.001 -21
s-4 -29 -4 -53zM222.002 348.002v-216l17.5 -5c7 -2 12.5 -3 16.5 -3c25.333 0 38 18.667 38 56v126c0 17.333 -3.33301 30 -10 38s-15.334 12 -26.001 12c-8 0 -14.167 -0.5 -18.5 -1.5s-10.166 -3.16699 -17.499 -6.5z" />
    <glyph glyph-name="ydieresis" unicode="&#xff;" horiz-adv-x="482" 
d="M-2 480l240.001 -0.000976562v-110c-6 0 -10.833 -2.16699 -14.5 -6.5s-5.5 -9.5 -5.5 -15.5c0 -8 1.66699 -17.667 5 -29c6 -19.333 9 -29.666 9 -30.999l24 -78l18 78l10 60c0 14.667 -5.33301 22 -16 22v110h202v-110c-10 -6.66699 -18.333 -19.667 -25 -39
c-7.33301 -24.667 -13 -43 -17 -55l-96 -298c-16 -51.333 -29 -84.333 -39 -99c-12 -18 -32.333 -32.333 -61 -43c-20 -8 -43.333 -12 -70 -12c-14.667 0 -30 1.66699 -46 5s-29.333 7 -40 11v108c22 0 38.667 4.5 50 13.5s18.666 20.5 21.999 34.5l-90 250l-21 66
c-10.667 30.667 -23.667 50 -39 58v110zM372.001 -116.001c0 18.667 6.49902 33 19.499 43s27.833 15 44.5 15s31.834 -5 45.501 -15s20.5 -24.333 20.5 -43c0 -22.667 -6.33301 -40.667 -19 -54s-27.667 -20 -45 -20c-16 0 -31 6.66699 -45 20s-21 31.333 -21 54z" />
    <glyph glyph-name="OE" unicode="&#x152;" 
d="M-400 844v20.001c3.33301 30 17.666 52.333 42.999 67c19.333 11.333 42.333 17 69 17h16c26.667 0 49.334 -5.33301 68.001 -16c26 -14.667 40.667 -37.334 44 -68.001v-8c0 -22 -6 -39.667 -18 -53c-5.33301 -6 -17.333 -15 -36 -27
c-10.667 -4.66699 -18.667 -9.66699 -24 -15c-9.33301 -9.33301 -14 -21 -14 -35l-56 -2v40c0 10 5.83301 22 17.5 36l36.5 44v14c0 7.33301 -2.33301 12.833 -7 16.5s-9.66699 5.5 -15 5.5h-18c-4 0 -7.33301 -0.666992 -10 -2c-8 -4 -12 -10.667 -12 -20v-14h-84z" />
    <glyph glyph-name="oe" unicode="&#x153;" 
d="M-390 664v20.001c3.33301 30 17.666 52.333 42.999 67c19.333 11.333 42.333 17 69 17h16c26.667 0 49.334 -5.33301 68.001 -16c26 -14.667 40.667 -37.334 44 -68.001v-8c0 -22 -6 -39.667 -18 -53c-5.33301 -6 -17.333 -15 -36 -27
c-10.667 -4.66699 -18.667 -9.66699 -24 -15c-9.33301 -9.33301 -14 -21 -14 -35l-56 -2v40c0 10 5.83301 22 17.5 36l36.5 44v14c0 7.33301 -2.33301 12.833 -7 16.5s-9.66699 5.5 -15 5.5h-18c-4 0 -7.33301 -0.666992 -10 -2c-8 -4 -12 -10.667 -12 -20v-14h-84z" />
    <glyph glyph-name="Scaron" unicode="&#x160;" horiz-adv-x="542" 
d="M130 790l0.000976562 8.00098c0 16 6.33301 28.667 19 38s27 14 43 14h10c17.333 0 31.666 -5.33301 42.999 -16s17 -25.334 17 -44.001c0 -20.667 -6.83301 -37.5 -20.5 -50.5s-29.5 -19.5 -47.5 -19.5c-16.667 0 -31 5.66699 -43 17c-14 13.333 -21 31 -21 53z
M298.001 790.001c0 20 6.49902 35 19.499 45s28.5 15 46.5 15c16.667 0 31.834 -5.16699 45.501 -15.5s20.5 -25.166 20.5 -44.499c0 -22.667 -6.33301 -40.334 -19 -53.001s-27.667 -19 -45 -19c-16.667 0 -31.667 6 -45 18c-15.333 14 -23 32 -23 54zM24 652.001
l490 0.000976562v-226h-192v42c0 13.333 -5.16699 23.333 -15.5 30s-23.166 10 -38.499 10h-18v-118h132v-126h-132v-126l16 -2c18.667 0 32.667 4.66699 42 14s14 21.333 14 36v48h192v-232h-490v118c7.33301 4 12.166 8.66699 14.499 14s3.5 12.666 3.5 21.999v328
c0 24 -6 42 -18 54v114z" />
    <glyph glyph-name="scaron" unicode="&#x161;" horiz-adv-x="482" 
d="M88 610l-2 10.001c0 16 6.16699 28.333 18.5 37s26.833 13 43.5 13h10c17.333 0 32 -5.33301 44 -16s18 -25.334 18 -44.001c0 -20.667 -7.16699 -37.5 -21.5 -50.5s-29.833 -19.5 -46.5 -19.5c-18 0 -33.167 6 -45.5 18s-18.5 29.333 -18.5 52zM256 610.001
c0 20 6.16699 34.999 18.5 44.999s27.5 15 45.5 15c17.333 0 33 -5.16699 47 -15.5s21 -25.166 21 -44.499c0 -22 -6.5 -39.5 -19.5 -52.5s-27.833 -19.5 -44.5 -19.5c-18 0 -33.333 6 -46 18c-14.667 14 -22 32 -22 54zM16 150l-0.000976562 179.998
c0 62 18.667 105 56 129c32 20.667 85.333 31 160 31c62 0 110 -9 144 -27c42.667 -22.667 64 -59 64 -109v-150h-244v-48c0 -16 2.83301 -28 8.5 -36s12.834 -12 21.501 -12c7.33301 0 14.166 2.83301 20.499 8.5s9.5 12.834 9.5 21.501v42h184v-124
c-15.333 -15.333 -45.333 -30.166 -90 -44.499s-88 -21.5 -130 -21.5c-67.333 0 -118.166 13 -152.499 39s-51.5 66.333 -51.5 121zM195.999 311.998h72.001c0 23.333 -2.33301 39.833 -7 49.5s-14.334 14.5 -29.001 14.5c-14 0 -23.5 -5 -28.5 -15s-7.5 -26.333 -7.5 -49z
" />
    <glyph glyph-name="Ydieresis" unicode="&#x178;" horiz-adv-x="542" 
d="M0 652l234 -0.00390625v-90c0 -19.333 3.33301 -39 10 -59c4.66699 -14 12.667 -31.667 24 -53c12 16.667 21 34.834 27 54.501s9 38.834 9 57.501v90h210v-114c-19.333 -19.333 -35.333 -40.666 -48 -63.999l-108 -222v-84c0 -15.333 1.66699 -26.5 5 -33.5
s9.66602 -13.833 18.999 -20.5v-112h-252v112c10.667 8 17.334 15.5 20.001 22.5s4 17.5 4 31.5v78l-100 204c-8.66699 21.333 -16 38 -22 50c-11.333 22.667 -22 35.334 -32 38.001v114zM192 -116.004c0 18.667 6.49902 33 19.499 43s27.833 15 44.5 15
s31.834 -5 45.501 -15s20.5 -24.333 20.5 -43c0 -22.667 -6.33301 -40.667 -19 -54s-27.667 -20 -45 -20c-16 0 -31 6.66699 -45 20s-21 31.333 -21 54z" />
    <glyph glyph-name="endash" unicode="&#x2013;" horiz-adv-x="502" 
d="M0 332h496v-158h-496v158z" />
    <glyph glyph-name="emdash" unicode="&#x2014;" horiz-adv-x="1012" 
d="M8 324h992v-158h-992v158z" />
    <glyph glyph-name="quoteleft" unicode="&#x2018;" horiz-adv-x="276" 
d="M192 640c-12 -10.667 -22.665 -22.667 -31.998 -36s-17.333 -27.333 -24 -42c21.333 0 39 -7 53 -21s21 -33 21 -57c0 -20 -7.83301 -36.667 -23.5 -50s-34.5 -20 -56.5 -20c-26.667 0 -47.334 9 -62.001 27s-22 39.667 -22 65c0 24.667 6.66699 48 20 70
c10 16 23 32.667 39 50c19.333 21.333 35.666 36 48.999 44z" />
    <glyph glyph-name="quoteright" unicode="&#x2019;" horiz-adv-x="276" 
d="M124 514c-22 0 -39.833 7.5 -53.5 22.5s-20.5 32.167 -20.5 51.5c0 18.667 6.66699 35 20 49s31.333 21 54 21c28 0 49.667 -8 65 -24s23 -36.667 23 -62c0 -22 -4.66699 -43.333 -14 -64c-12 -20 -24.333 -37 -37 -51c-15.333 -16.667 -33 -31 -53 -43l-36 30
c16 16 27 27.667 33 35c10.667 13.333 17 25 19 35z" />
    <glyph glyph-name="quotedblleft" unicode="&#x201c;" horiz-adv-x="472" 
d="M192 640c-12 -10.667 -22.665 -22.667 -31.998 -36s-17.333 -27.333 -24 -42c21.333 0 39 -7 53 -21s21 -33 21 -57c0 -20 -7.83301 -36.667 -23.5 -50s-34.5 -20 -56.5 -20c-26.667 0 -47.334 9 -62.001 27s-22 39.667 -22 65c0 24.667 6.66699 48 20 70
c10 16 23 32.667 39 50c19.333 21.333 35.666 36 48.999 44zM392.002 640c-12 -10.667 -22.665 -22.667 -31.998 -36s-17.333 -27.333 -24 -42c21.333 0 39 -7 53 -21s21 -33 21 -57c0 -20 -7.83301 -36.667 -23.5 -50s-34.5 -20 -56.5 -20c-26.667 0 -47.334 9 -62.001 27
s-22 39.667 -22 65c0 24.667 6.66699 48 20 70c10 16 23 32.667 39 50c19.333 21.333 35.666 36 48.999 44z" />
    <glyph glyph-name="quotedblright" unicode="&#x201d;" horiz-adv-x="472" 
d="M124 514c-22 0 -39.833 7.5 -53.5 22.5s-20.5 32.167 -20.5 51.5c0 18.667 6.66699 35 20 49s31.333 21 54 21c28 0 49.667 -8 65 -24s23 -36.667 23 -62c0 -22 -4.66699 -43.333 -14 -64c-12 -20 -24.333 -37 -37 -51c-15.333 -16.667 -33 -31 -53 -43l-36 30
c16 16 27 27.667 33 35c10.667 13.333 17 25 19 35zM324 514c-22 0 -39.833 7.5 -53.5 22.5s-20.5 32.167 -20.5 51.5c0 18.667 6.66699 35 20 49s31.333 21 54 21c28 0 49.667 -8 65 -24s23 -36.667 23 -62c0 -22 -4.66699 -43.333 -14 -64c-12 -20 -24.333 -37 -37 -51
c-15.333 -16.667 -33 -31 -53 -43l-36 30c16 16 27 27.667 33 35c10.667 13.333 17 25 19 35z" />
    <glyph glyph-name="quotedblbase" unicode="&#x201e;" horiz-adv-x="502" 
d="M120 2c-24.667 0 -44.168 8.16602 -58.501 24.499s-21.5 34.833 -21.5 55.5s7.16699 39.167 21.5 55.5s33.833 24.5 58.5 24.5c34.667 0 61 -11 79 -33c15.333 -18.667 23 -41.667 23 -69c0 -11.333 -1 -21.333 -3 -30s-5 -18 -9 -28c-30.667 -50 -64.667 -88 -102 -114
l-42 36c22 22 35.833 37.333 41.5 46s9.83398 19.334 12.501 32.001zM349.999 1.99902c-24.667 0 -44.168 8.16602 -58.501 24.499s-21.5 34.833 -21.5 55.5s7.16699 39.167 21.5 55.5s33.833 24.5 58.5 24.5c34.667 0 61 -11 79 -33c15.333 -18.667 23 -41.667 23 -69
c0 -11.333 -1 -21.333 -3 -30s-5 -18 -9 -28c-30.667 -50 -64.667 -88 -102 -114l-42 36c22 22 35.833 37.333 41.5 46s9.83398 19.334 12.501 32.001z" />
    <glyph glyph-name="dagger" unicode="&#x2020;" horiz-adv-x="542" 
d="M146 292c30.667 56 46.0029 117.333 46.0029 184c-25.333 0 -58.333 -8.33301 -99 -25c-21.333 -8.66699 -35.666 -13 -42.999 -13c-14 0 -26.167 3.83301 -36.5 11.5s-15.5 17.834 -15.5 30.501v4c0 15.333 5.16699 27.5 15.5 36.5s23.166 13.5 38.499 13.5h6
c11.333 -2 31.666 -9 60.999 -21c24 -10 47.667 -15 71 -15v30c0 8 -0.5 17.333 -1.5 28s-2 20.334 -3 29.001s-5.16699 21 -12.5 37c-9.33301 22 -15 36 -17 42l-2 12c0 13.333 5 25 15 35s21.667 15 35 15h14c11.333 -2.66699 19.833 -8.66699 25.5 -18s8.5 -20 8.5 -32
s-2 -22 -6 -30c-14 -33.333 -22.5 -57.5 -25.5 -72.5s-4.5 -39.5 -4.5 -73.5l10 -2c16.667 0 33 3 49 9c46.667 17.333 71.667 26.333 75 27h8c14.667 0 27 -4.66699 37 -14s15 -21.333 15 -36s-5.33301 -26.334 -16 -35.001s-23.334 -13 -38.001 -13l-4 2
c-12.667 0 -28.667 5.33301 -48 16c-13.333 7.33301 -23 12 -29 14s-15.667 3.66699 -29 5l-30 3c0 -38.667 3.16699 -71.5 9.5 -98.5s18.5 -55.5 36.5 -85.5c-16.667 -72 -27.834 -141 -33.501 -207s-8.5 -141 -8.5 -225h-28c0 92 -2.66699 164.667 -8 218
s-18 124.666 -38 213.999z" />
    <glyph glyph-name="daggerdbl" unicode="&#x2021;" horiz-adv-x="460" 
d="M146 302c30.667 56 46.0049 117.332 46.0049 183.999c-25.333 0 -58.333 -8.33301 -99 -25c-21.333 -8.66699 -35.666 -13 -42.999 -13c-14 0 -26.167 3.83301 -36.5 11.5s-15.5 17.834 -15.5 30.501v4c0 15.333 5.16699 27.5 15.5 36.5s23.166 13.5 38.499 13.5h6
c11.333 -2 31.666 -9 60.999 -21c24 -10 47.667 -15 71 -15v30c0 8 -0.5 17.333 -1.5 28s-2 20.334 -3 29.001s-5.16699 21 -12.5 37c-9.33301 22 -15 36 -17 42l-2 12c0 13.333 5 25 15 35s21.667 15 35 15h14c11.333 -2.66699 19.833 -8.66699 25.5 -18s8.5 -20 8.5 -32
s-2 -22 -6 -30c-14 -33.333 -22.5 -57.5 -25.5 -72.5s-4.5 -39.5 -4.5 -73.5l10 -2c16.667 0 33 3 49 9c46.667 17.333 71.667 26.333 75 27h8c14.667 0 27 -4.66699 37 -14s15 -21.333 15 -36s-5.33301 -26.334 -16 -35.001s-23.334 -13 -38.001 -13l-4 2
c-12.667 0 -28.667 5.33301 -48 16c-13.333 7.33301 -23 12 -29 14s-15.667 3.66699 -29 5l-30 3c0 -38 3.16699 -70.833 9.5 -98.5s18.5 -56.834 36.5 -87.501c-14.667 -26.667 -26 -53.834 -34 -81.501s-12 -56.5 -12 -86.5l2 -14c25.333 0 57.666 8.33301 96.999 25
c20.667 8.66699 35 13 43 13c14 0 26.167 -4.16699 36.5 -12.5s15.5 -19.5 15.5 -33.5c0 -14.667 -5 -27 -15 -37s-22.333 -15 -37 -15l-8 2c-5.33301 0.666992 -29.666 8.66699 -72.999 24c-18.667 6.66699 -36.334 10 -53.001 10h-6l-2 -30
c0 -6.66699 0.666992 -14.667 2 -24s2.66602 -19.166 3.99902 -29.499s5.66602 -23.166 12.999 -38.499c10 -22.667 15.667 -36 17 -40v-14c0 -12.667 -3.83301 -24.167 -11.5 -34.5s-17.167 -15.5 -28.5 -15.5h-8c-13.333 0 -25.333 5 -36 15s-16 22.333 -16 37l2 6l30 78
c3.33301 12.667 5.5 25.667 6.5 39s1.5 30.333 1.5 51h-8c-17.333 0 -34.333 -3 -51 -9c-44.667 -16 -69.667 -24.333 -75 -25l-10 -2c-14 0 -25.833 4.83301 -35.5 14.5s-14.5 21.5 -14.5 35.5s5.16699 25.167 15.5 33.5s22.5 12.5 36.5 12.5l6 2
c8 -0.666992 25 -7.16699 51 -19.5s54.333 -18.5 85 -18.5c0 38.667 -3.16699 71.5 -9.5 98.5s-18.5 55.5 -36.5 85.5z" />
    <glyph glyph-name="ellipsis" unicode="&#x2026;" horiz-adv-x="736" 
d="M36 80c0 25.333 8.66797 46.333 26.001 63s38 25 62 25c25.333 0 47 -7.66699 65 -23s27 -37 27 -65s-9.5 -50 -28.5 -66s-40.167 -24 -63.5 -24c-22.667 0 -42.334 7.33301 -59.001 22c-19.333 17.333 -29 40 -29 68zM266.001 80c0 25.333 8.66797 46.333 26.001 63
s38 25 62 25c25.333 0 47 -7.66699 65 -23s27 -37 27 -65s-9.5 -50 -28.5 -66s-40.167 -24 -63.5 -24c-22.667 0 -42.334 7.33301 -59.001 22c-19.333 17.333 -29 40 -29 68zM496.002 80c0 25.333 8.66797 46.333 26.001 63s38 25 62 25c25.333 0 47 -7.66699 65 -23
s27 -37 27 -65s-9.5 -50 -28.5 -66s-40.167 -24 -63.5 -24c-22.667 0 -42.334 7.33301 -59.001 22c-19.333 17.333 -29 40 -29 68z" />
    <glyph glyph-name="perthousand" unicode="&#x2030;" horiz-adv-x="1002" 
d="M4 484v97.999c0 28 12 49.667 36 65s54 23 90 23c41.333 0 72.333 -6 93 -18c26 -15.333 39 -40.666 39 -75.999v-162c0 -34 -15 -58.667 -45 -74c-21.333 -10.667 -48.333 -16 -81 -16c-28.667 0 -55 5 -79 15c-35.333 14.667 -53 37.667 -53 69v76zM148 425.999
l-0.00195312 130c0 9.33301 -0.666992 16 -2 20s-4.66602 6 -9.99902 6s-8.66602 -2.5 -9.99902 -7.5s-2 -11.167 -2 -18.5v-130c0 -12 4 -18 12 -18s12 6 12 18zM433.998 79.999v160c0 28 12.333 50 37 66s54.334 24 89.001 24c41.333 0 72 -6 92 -18
c25.333 -15.333 38 -41.333 38 -78v-154c0 -34 -14.667 -58.667 -44 -74c-20.667 -10.667 -47.334 -16 -80.001 -16c-30 0 -56.333 5 -79 15c-35.333 16 -53 41 -53 75zM577.998 83.999v132c0 16 -4 24 -12 24c-4 0 -7 -1.5 -9 -4.5s-3 -9.5 -3 -19.5v-132
c0 -10.667 4 -16 12 -16s12 5.33301 12 16zM163.998 1.99902l240 656h132l-240 -656h-132zM733.998 79.999v160c0 28 12.333 50 37 66s54.334 24 89.001 24c41.333 0 72 -6 92 -18c25.333 -15.333 38 -41.333 38 -78v-154c0 -34 -14.667 -58.667 -44 -74
c-20.667 -10.667 -47.334 -16 -80.001 -16c-30 0 -56.333 5 -79 15c-35.333 16 -53 41 -53 75zM877.998 83.999v132c0 16 -4 24 -12 24c-4 0 -7 -1.5 -9 -4.5s-3 -9.5 -3 -19.5v-132c0 -10.667 4 -16 12 -16s12 5.33301 12 16z" />
    <glyph glyph-name="guilsinglleft" unicode="&#x2039;" horiz-adv-x="276" 
d="M142 258l66 -120h-108l-66 126l66 126h108z" />
    <glyph glyph-name="guilsinglright" unicode="&#x203a;" horiz-adv-x="276" 
d="M40 120l66 138l-66 126h108l66 -132l-66 -132h-108z" />
    <glyph glyph-name="trademark" unicode="&#x2122;" horiz-adv-x="522" 
d="M12 710h224v-116h-58v44c0 8 -4 12.667 -12 14v-128c0 -15.333 2.66699 -24 8 -26v-48h-100v44c6.66699 3.33301 10 10 10 20v138c-8 0 -12 -5.33301 -12 -16v-42h-60v116zM252 710l106 0.000976562l26 -100l26 100h100v-46
c-4.66699 -2.66699 -7.5 -5.83398 -8.5 -9.50098s-1.5 -13.167 -1.5 -28.5v-100c0 -9.33301 0.5 -15.833 1.5 -19.5s3.83301 -6.5 8.5 -8.5v-48h-98v48c6.66699 2 10 7.33301 10 16v74l-36 -138h-24l-36 136v-60c0 -9.33301 0.5 -15.833 1.5 -19.5s3.83301 -6.5 8.5 -8.5
v-48h-84v48c6.66699 0 10 4.66699 10 14v136c0 8.66699 -3.33301 14 -10 16v46z" />
    <glyph glyph-name=".null" horiz-adv-x="0" 
 />
    <glyph glyph-name="nonmarkingreturn" horiz-adv-x="276" 
 />
  </font>
</defs>
</svg>
